<svg width="100" height="585" viewBox="0 0 100 585" fill="none" xmlns="http://www.w3.org/2000/svg">
<g opacity="0.2">
<path d="M49.7326 584.39C22.4099 584.39 0.1875 562.157 0.1875 534.844C0.1875 507.532 22.4203 485.299 49.7326 485.299C77.0448 485.299 99.2777 507.532 99.2777 534.844C99.2777 562.157 77.0448 584.39 49.7326 584.39ZM49.7326 488.599C24.2314 488.599 3.48702 509.343 3.48702 534.844C3.48702 560.346 24.2314 581.09 49.7326 581.09C75.2337 581.09 95.9782 560.346 95.9782 534.844C95.9782 509.343 75.2337 488.599 49.7326 488.599Z" fill="#7DDACF"/>
<path d="M82.0648 499.491L66.7266 514.829L69.7442 517.847L85.0824 502.509L82.0648 499.491Z" fill="#7DDACF"/>
<path d="M29.2638 552.29L13.9255 567.628L16.9431 570.646L32.2814 555.308L29.2638 552.29Z" fill="#7DDACF"/>
<path d="M70.1934 552.298L67.1758 555.315L82.514 570.653L85.5316 567.636L70.1934 552.298Z" fill="#7DDACF"/>
<path d="M16.9395 499.037L13.9219 502.054L29.2528 517.385L32.2704 514.368L16.9395 499.037Z" fill="#7DDACF"/>
<path d="M61.8167 536.177C62.816 535.178 62.816 533.564 61.8167 532.575L59.6933 530.462C58.6941 529.463 57.0808 529.463 56.092 530.462L54.947 531.607L53.6251 530.285C52.6259 529.286 51.0126 529.286 50.0237 530.285L48.8788 531.441L47.5569 530.109C46.5577 529.109 44.9443 529.109 43.9555 530.109L36.9297 537.134C36.8776 537.186 36.8776 537.27 36.9297 537.332C37.8664 538.269 39.3965 538.269 40.3437 537.332L44.8715 532.804C45.3607 532.315 46.1517 532.315 46.6409 532.804L46.974 533.138C47.0365 533.2 47.0365 533.294 46.974 533.356L43.1957 537.134C43.1436 537.186 43.1436 537.27 43.1957 537.332C44.1325 538.269 45.6625 538.269 46.6097 537.332L50.9501 532.992C51.4393 532.503 52.2304 532.503 52.7196 532.992L53.0526 533.325C53.1047 533.377 53.1047 533.46 53.0526 533.523L49.4096 537.166C49.3576 537.218 49.3576 537.301 49.4096 537.363C50.3464 538.3 51.8765 538.3 52.8237 537.363L57.0183 533.169C57.5075 532.679 58.2986 532.679 58.7878 533.169L59.506 533.887C59.787 534.168 59.787 534.636 59.506 534.917L59.3915 535.032C59.1105 535.313 58.6421 535.313 58.3611 535.032L57.4347 534.105C57.3826 534.053 57.2994 534.053 57.2369 534.105L55.634 535.708C55.582 535.76 55.582 535.844 55.634 535.906L57.0808 537.353C58.08 538.352 59.6934 538.352 60.6822 537.353L61.8272 536.208L61.8167 536.177Z" fill="#7DDACF"/>
<path d="M49.7337 496.853C28.7499 496.853 11.7422 513.861 11.7422 534.845C11.7422 555.828 28.7499 572.836 49.7337 572.836C70.7175 572.836 87.7252 555.828 87.7252 534.845C87.7252 513.861 70.7175 496.853 49.7337 496.853ZM51.2846 508.584C57.3841 508.937 62.9215 511.373 67.2098 515.183L61.7245 520.668C58.8621 518.243 55.2503 516.671 51.2846 516.338V508.584ZM48.1932 508.584V516.338C44.2276 516.661 40.6158 518.243 37.7534 520.668L32.268 515.183C36.5564 511.373 42.0938 508.937 48.1932 508.584ZM30.0823 517.368L35.5676 522.854C33.1424 525.716 31.5707 529.328 31.2376 533.294H23.4832C23.8371 527.194 26.2727 521.657 30.0823 517.368ZM23.4832 536.385H31.2376C31.5603 540.351 33.1424 543.963 35.5676 546.825L30.0823 552.31C26.2727 548.022 23.8371 542.485 23.4832 536.385ZM48.1932 561.095C42.0938 560.741 36.5564 558.306 32.268 554.496L37.7534 549.011C40.6158 551.436 44.2276 553.008 48.1932 553.341V561.095ZM33.7669 534.834C33.7669 526.018 40.9176 518.867 49.7337 518.867C58.5498 518.867 65.7006 526.018 65.7006 534.834C65.7006 543.65 58.5498 550.801 49.7337 550.801C40.9176 550.801 33.7669 543.65 33.7669 534.834ZM51.2846 561.095V553.341C55.2503 553.018 58.8621 551.436 61.7245 549.011L67.2098 554.496C62.9215 558.306 57.3841 560.741 51.2846 561.095ZM69.3956 552.31L63.9103 546.825C66.3355 543.963 67.9072 540.351 68.2403 536.385H75.9947C75.6408 542.485 73.2052 548.022 69.3956 552.31ZM68.2403 533.294C67.9176 529.328 66.3355 525.716 63.9103 522.854L69.3956 517.368C73.2052 521.657 75.6408 527.194 75.9947 533.294H68.2403Z" fill="#7DDACF"/>
<path d="M49.8771 460.932C22.5544 460.932 0.332031 438.7 0.332031 411.387C0.332031 384.075 22.5649 361.842 49.8771 361.842C77.1894 361.842 99.4223 384.075 99.4223 411.387C99.4223 438.7 77.1894 460.932 49.8771 460.932ZM49.8771 365.142C24.376 365.142 3.63155 385.886 3.63155 411.387C3.63155 436.889 24.376 457.633 49.8771 457.633C75.3783 457.633 96.1227 436.889 96.1227 411.387C96.1227 385.886 75.3783 365.142 49.8771 365.142Z" fill="#9DADF2"/>
<path d="M65.9516 380.453C65.7018 380.453 65.452 380.401 65.223 380.286C60.4246 377.913 55.2619 376.706 49.8806 376.706C44.4994 376.706 39.3367 377.913 34.5383 380.286C33.9034 380.599 33.1436 380.474 32.6439 379.974L24.1297 371.46C23.7654 371.096 23.5988 370.596 23.6613 370.086C23.7237 369.576 24.0152 369.128 24.4524 368.868C32.1235 364.267 40.9188 361.842 49.8911 361.842C58.8633 361.842 67.6586 364.278 75.3298 368.868C75.7669 369.128 76.0584 369.576 76.1208 370.086C76.1833 370.596 76.0063 371.096 75.6524 371.46L67.1382 379.974C66.8155 380.286 66.3992 380.453 65.962 380.453H65.9516ZM49.8806 373.406C55.366 373.406 60.6536 374.551 65.6081 376.81L71.77 370.648C65.0669 367.036 57.5414 365.142 49.8806 365.142C42.2199 365.142 34.6945 367.036 27.9913 370.648L34.1532 376.81C39.1077 374.551 44.3953 373.406 49.8806 373.406Z" fill="#9DADF2"/>
<path d="M49.8789 460.932C40.9066 460.932 32.1113 458.497 24.4401 453.907C24.003 453.646 23.7115 453.199 23.6491 452.689C23.5866 452.179 23.7636 451.679 24.1175 451.315L32.6317 442.801C33.1314 442.301 33.9016 442.176 34.5261 442.488C39.3245 444.862 44.4872 446.069 49.8684 446.069C55.2497 446.069 60.4124 444.862 65.2108 442.488C65.8458 442.176 66.6055 442.301 67.1051 442.801L75.6195 451.315C75.9838 451.679 76.1503 452.179 76.0878 452.689C76.0253 453.199 75.7339 453.646 75.2967 453.907C67.6256 458.507 58.8303 460.932 49.8581 460.932H49.8789ZM27.9895 452.127C34.6927 455.739 42.2181 457.633 49.8789 457.633C57.5396 457.633 65.0651 455.739 71.7683 452.127L65.6063 445.965C60.6518 448.224 55.3642 449.368 49.8789 449.368C44.3935 449.368 39.1059 448.224 34.1514 445.965L27.9895 452.127Z" fill="#9DADF2"/>
<path d="M90.9828 437.628C90.5457 437.628 90.1293 437.461 89.8171 437.149L81.3028 428.634C80.8032 428.135 80.6783 427.365 80.9906 426.74C83.3637 421.942 84.5711 416.779 84.5711 411.398C84.5711 406.016 83.3637 400.854 80.9906 396.055C80.6783 395.42 80.8032 394.65 81.3028 394.161L89.8171 385.647C90.1814 385.282 90.681 385.116 91.191 385.178C91.701 385.241 92.1486 385.532 92.4088 385.969C97.0094 393.641 99.4346 402.436 99.4346 411.408C99.4346 420.38 97.0094 429.176 92.4088 436.847C92.1486 437.284 91.701 437.575 91.191 437.638C91.1181 437.638 91.0557 437.638 90.9828 437.638V437.628ZM84.4567 427.115L90.6185 433.277C94.2303 426.574 96.1247 419.048 96.1247 411.387C96.1247 403.727 94.2303 396.201 90.6185 389.498L84.4567 395.66C86.7153 400.614 87.8602 405.902 87.8602 411.387C87.8602 416.873 86.7153 422.16 84.4567 427.115Z" fill="#9DADF2"/>
<path d="M8.77342 437.628C8.70056 437.628 8.6381 437.628 8.57565 437.617C8.06563 437.555 7.61808 437.263 7.35786 436.826C2.75724 429.155 0.332031 420.36 0.332031 411.387C0.332031 402.415 2.75724 393.62 7.35786 385.949C7.61808 385.512 8.06563 385.22 8.57565 385.158C9.08568 385.095 9.5853 385.272 9.9496 385.626L18.4639 394.14C18.9635 394.64 19.0884 395.41 18.7761 396.035C16.4029 400.833 15.1955 405.996 15.1955 411.377C15.1955 416.758 16.4029 421.921 18.7761 426.719C19.0884 427.354 18.9635 428.124 18.4639 428.614L9.9496 437.128C9.63734 437.44 9.221 437.617 8.78384 437.617L8.77342 437.628ZM9.1377 389.498C5.5259 396.201 3.63155 403.727 3.63155 411.387C3.63155 419.048 5.5259 426.574 9.1377 433.277L15.2997 427.115C13.041 422.16 11.896 416.873 11.896 411.387C11.896 405.902 13.041 400.614 15.2997 395.66L9.1377 389.498Z" fill="#9DADF2"/>
<path d="M49.8782 373.396C28.9361 373.396 11.8867 390.435 11.8867 411.387C11.8867 432.34 28.9257 449.379 49.8782 449.379C70.8308 449.379 87.8698 432.34 87.8698 411.387C87.8698 390.435 70.8308 373.396 49.8782 373.396ZM71.2576 398.907C73.0583 401.988 74.1512 405.35 74.5051 408.92C74.5155 409.066 74.453 409.201 74.3281 409.274C71.6115 410.94 69.1759 412.98 67.0733 415.363C66.9796 415.478 66.8235 415.519 66.6882 415.467L61.9939 413.937C61.8586 413.896 61.7649 413.781 61.7441 413.636C61.2133 409.753 60.0059 406.037 58.1531 402.582C58.0907 402.457 58.1011 402.311 58.1844 402.196L61.0884 398.2C61.1612 398.106 61.2757 398.043 61.3902 398.043C61.4214 398.043 61.4422 398.043 61.4735 398.043C64.5752 398.73 67.7603 398.959 70.9245 398.699C71.0703 398.689 71.2055 398.762 71.2784 398.886L71.2576 398.907ZM59.1836 414.291C59.194 414.395 59.1627 414.499 59.1003 414.572C56.6334 417.414 53.49 419.693 50.024 421.151C49.9303 421.192 49.8366 421.192 49.7429 421.151C46.2768 419.683 43.1335 417.403 40.6666 414.572C40.6042 414.499 40.5729 414.395 40.5833 414.291C41.0621 410.523 42.2383 406.922 44.0598 403.591C44.1119 403.498 44.1951 403.435 44.2992 403.414C46.1311 403.029 48.0047 402.831 49.8887 402.831C51.7726 402.831 53.6462 403.029 55.4781 403.414C55.5822 403.435 55.6654 403.498 55.7175 403.591C57.539 406.922 58.7048 410.523 59.194 414.291H59.1836ZM58.6215 388.457C58.6215 388.457 58.7464 388.353 58.8713 388.353C58.9129 388.353 58.965 388.353 59.017 388.384C62.8474 389.904 66.2718 392.402 68.9364 395.597C69.0718 395.754 69.0197 395.92 68.9885 395.983C68.9677 396.035 68.874 396.201 68.6555 396.201C66.2927 396.232 63.9403 395.962 61.6608 395.42C61.5671 395.4 61.4839 395.337 61.4319 395.254C60.214 393.245 59.2356 391.08 58.5278 388.832C58.4654 388.634 58.5799 388.499 58.6319 388.457H58.6215ZM44.6219 387.208C48.0671 386.469 51.6997 386.469 55.145 387.208C55.2803 387.239 55.3948 387.343 55.4261 387.479C56.1651 390.57 57.362 393.526 58.9754 396.264C59.0482 396.388 59.0379 396.545 58.9546 396.669L56.0714 400.646C55.9881 400.76 55.8424 400.823 55.7071 400.791C51.8976 400.021 47.8694 400.021 44.0598 400.791C43.9245 400.823 43.7788 400.76 43.6955 400.646L40.8124 396.669C40.7291 396.555 40.7187 396.388 40.7915 396.264C42.4049 393.526 43.6018 390.57 44.3408 387.479C44.3721 387.343 44.4866 387.239 44.6219 387.208ZM30.8304 395.597C33.4951 392.392 36.9195 389.893 40.7499 388.384C40.802 388.363 40.8539 388.353 40.8956 388.353C41.0309 388.353 41.1142 388.426 41.1454 388.457C41.1974 388.509 41.312 388.634 41.2495 388.832C40.5417 391.09 39.5633 393.245 38.3455 395.254C38.2934 395.337 38.2102 395.4 38.1165 395.42C35.837 395.962 33.4847 396.232 31.1219 396.201C30.9033 396.201 30.8097 396.035 30.7888 395.983C30.7576 395.92 30.7056 395.754 30.8409 395.597H30.8304ZM28.5093 398.907C28.5718 398.793 28.6967 398.72 28.832 398.72C28.832 398.72 28.8528 398.72 28.8632 398.72C32.0378 398.97 35.2229 398.751 38.3143 398.064C38.46 398.033 38.6057 398.085 38.689 398.21L41.593 402.207C41.6763 402.321 41.6866 402.477 41.6242 402.592C39.7715 406.048 38.564 409.764 38.0332 413.646C38.0124 413.781 37.9187 413.896 37.7834 413.948L33.0891 415.478C32.9538 415.519 32.7977 415.478 32.704 415.374C30.6014 412.99 28.1659 410.95 25.4492 409.285C25.3347 409.212 25.2618 409.077 25.2722 408.931C25.6261 405.361 26.7191 401.988 28.5198 398.918L28.5093 398.907ZM29.6438 424.554C29.5814 424.752 29.4045 424.794 29.3316 424.804C29.2587 424.804 29.0922 424.804 28.9777 424.637C26.7606 421.151 25.4492 417.112 25.189 412.969C25.1786 412.761 25.3139 412.657 25.3763 412.626C25.4388 412.595 25.6053 412.522 25.7719 412.647C27.6975 414.01 29.4461 415.613 30.9762 417.393C31.0386 417.466 31.0698 417.56 31.0594 417.664C30.8721 420.006 30.3933 422.327 29.6334 424.565L29.6438 424.554ZM39.9276 434.057C36.6801 432.631 33.8177 430.539 31.4237 427.854C31.3301 427.75 31.2988 427.594 31.3509 427.469C32.5687 424.533 33.3389 421.442 33.6408 418.278C33.6512 418.132 33.7553 418.007 33.8906 417.966L38.5329 416.456C38.5329 416.456 38.6057 416.435 38.6473 416.435C38.7514 416.435 38.8451 416.477 38.918 416.56C41.5201 419.475 44.778 421.848 48.3482 423.42C48.4835 423.482 48.5667 423.607 48.5667 423.753V428.634C48.5667 428.78 48.4835 428.915 48.3482 428.967C45.4338 430.227 42.7275 431.924 40.3023 433.995C40.1982 434.089 40.0421 434.109 39.9172 434.047L39.9276 434.057ZM56.3003 435.088C56.2899 435.161 56.2379 435.327 56.0298 435.379C52.012 436.399 47.7653 436.399 43.7475 435.379C43.5498 435.327 43.4874 435.161 43.477 435.088C43.4666 435.015 43.4457 434.848 43.6226 434.713C45.517 433.308 47.5779 432.132 49.7533 431.226C49.847 431.184 49.9407 431.184 50.0344 431.226C52.1994 432.132 54.2603 433.308 56.1651 434.713C56.3316 434.838 56.3212 435.015 56.3108 435.088H56.3003ZM68.364 427.864C65.97 430.55 63.1076 432.631 59.8601 434.057C59.7248 434.12 59.5791 434.088 59.475 434.005C57.0498 431.934 54.3539 430.237 51.4291 428.978C51.2938 428.915 51.2106 428.791 51.2106 428.645V423.763C51.2106 423.617 51.2938 423.482 51.4291 423.43C54.9993 421.858 58.2676 419.485 60.8593 416.571C60.9322 416.487 61.0259 416.446 61.13 416.446C61.1716 416.446 61.2028 416.446 61.2444 416.467L65.8867 417.976C66.022 418.018 66.1261 418.142 66.1365 418.288C66.4384 421.452 67.2086 424.533 68.4264 427.479C68.4785 427.604 68.4577 427.76 68.3536 427.864H68.364ZM70.7996 424.648C70.6851 424.825 70.5082 424.825 70.4457 424.814C70.3728 424.814 70.2063 424.762 70.1335 424.565C69.384 422.327 68.9052 420.006 68.7075 417.664C68.7075 417.57 68.7283 417.466 68.7907 417.393C70.3208 415.613 72.0694 414.021 73.995 412.647C74.0679 412.595 74.1408 412.574 74.2032 412.574C74.2865 412.574 74.3489 412.605 74.3906 412.626C74.453 412.657 74.5988 412.761 74.578 412.969C74.3178 417.112 73.0063 421.151 70.7892 424.637L70.7996 424.648Z" fill="#9DADF2"/>
<path d="M99.111 289.065C99.111 316.388 76.8782 338.621 49.5555 338.621C22.2328 338.621 0 316.388 0 289.065C0 261.743 22.2328 239.51 49.5555 239.51C76.8782 239.51 99.111 261.743 99.111 289.065ZM3.57015 289.065C3.57015 314.421 24.2001 335.051 49.5555 335.051C74.9109 335.051 95.5408 314.421 95.5408 289.065C95.5408 263.71 74.9109 243.08 49.5555 243.08C24.2001 243.08 3.57015 263.71 3.57015 289.065Z" fill="#478BF9"/>
<path d="M99.1136 167.93C99.1136 168.918 98.3122 169.709 97.3338 169.709C96.3553 169.709 95.5539 168.908 95.5539 167.93C95.5539 142.574 74.924 121.944 49.5685 121.944C24.2131 121.944 3.58317 142.574 3.58317 167.93C3.58317 168.918 2.78169 169.709 1.80327 169.709C0.824862 169.709 0.0234375 168.908 0.0234375 167.93C0.0234375 140.607 22.2563 118.374 49.5789 118.374C76.9016 118.374 99.1344 140.607 99.1344 167.93H99.1136Z" fill="#478BF9"/>
<path d="M40.012 280.312C40.012 282.133 41.2506 283.715 43.0201 284.152L46.382 284.996V276.346H43.9881C41.8023 276.346 40.0224 278.126 40.0224 280.312H40.012Z" fill="#478BF9"/>
<path d="M52.7293 301.785H55.1234C57.3092 301.785 59.0891 300.005 59.0891 297.819C59.0891 295.997 57.8504 294.415 56.081 293.978L52.719 293.135V301.785H52.7293Z" fill="#478BF9"/>
<path d="M49.5564 248.742C27.3235 248.742 9.2229 266.832 9.2229 289.076C9.2229 311.319 27.3131 329.409 49.5564 329.409C71.7996 329.409 89.8898 311.319 89.8898 289.076C89.8898 266.832 71.7996 248.742 49.5564 248.742ZM65.4608 282.706H59.1011V279.521C59.1011 277.772 57.6751 276.335 55.916 276.335H52.731V286.578L57.6335 287.806C62.2341 288.961 65.4504 293.073 65.4504 297.819C65.4504 303.512 60.8185 308.144 55.125 308.144H52.731V316.201H46.3713V308.144H43.1863C37.9195 308.144 33.6416 303.866 33.6416 298.6V295.415H40.0012V298.6C40.0012 300.348 41.4272 301.785 43.1863 301.785H46.3713V291.542L41.4688 290.314C36.8682 289.159 33.652 285.048 33.652 280.301C33.652 274.608 38.2838 269.976 43.9773 269.976H46.3713V261.92H52.731V269.976H55.916C61.1828 269.976 65.4608 274.254 65.4608 279.521V282.706Z" fill="#478BF9"/>
<path d="M99.173 167.17V286.765C99.173 287.754 98.3716 288.545 97.3932 288.545C96.4148 288.545 95.6133 287.743 95.6133 286.765V167.17C95.6133 166.181 96.4148 165.39 97.3932 165.39C98.3716 165.39 99.173 166.191 99.173 167.17Z" fill="#478BF9"/>
<path d="M3.63786 166.909V286.505C3.63786 287.494 2.83637 288.285 1.85796 288.285C0.879549 288.285 0.078125 287.483 0.078125 286.505V166.909C0.078125 165.921 0.879549 165.13 1.85796 165.13C2.83637 165.13 3.63786 165.931 3.63786 166.909Z" fill="#478BF9"/>
<path d="M49.7326 99.1214C37.0341 99.1214 24.3459 94.2919 14.6763 84.6223C-4.65252 65.2934 -4.65252 33.8489 14.6763 14.5201C24.0441 5.15229 36.4928 0 49.7326 0C62.9724 0 75.4212 5.15229 84.7889 14.5201C104.118 33.8489 104.118 65.2934 84.7889 84.6223C75.1297 94.2815 62.4311 99.1214 49.7326 99.1214ZM17.2785 82.0201C35.1709 99.9126 64.2839 99.9126 82.1763 82.0201C100.069 64.1277 100.069 35.0147 82.1763 17.1222C73.506 8.45183 61.9836 3.6847 49.7222 3.6847C37.4609 3.6847 25.9384 8.46223 17.2681 17.1222C-0.624391 35.0147 -0.624391 64.1277 17.2681 82.0201H17.2785Z" fill="#9DADF2"/>
<path d="M49.077 68.1142C49.2539 68.541 49.6703 68.7907 50.1074 68.7907C50.2532 68.7907 50.3989 68.7595 50.5446 68.7074C54.0419 67.2398 57.2269 64.9707 59.7458 62.1395C60.1518 61.6816 60.1101 60.9739 59.6521 60.5679C59.1942 60.162 58.4864 60.2036 58.0804 60.6616C55.7801 63.2533 52.8761 65.3247 49.6806 66.657C49.1186 66.8964 48.8479 67.5521 49.0873 68.1142H49.077Z" fill="#9DADF2"/>
<path d="M68.6226 32.4336L50.1369 25.0434C49.8663 24.9393 49.5748 24.9393 49.3042 25.0434L30.8185 32.4336C30.3917 32.6001 30.1211 33.006 30.1211 33.464V46.7038C30.1419 58.9235 37.8651 69.9671 49.3355 74.1722C49.4604 74.2138 49.5853 74.2347 49.7206 74.2347C49.8559 74.2347 49.9808 74.2138 50.1057 74.1722C61.576 69.9567 69.2992 58.9235 69.32 46.7038V33.464C69.32 33.006 69.0494 32.6001 68.6226 32.4336ZM67.0926 46.7038C67.0718 57.8202 60.0979 67.9478 49.7309 71.9343C39.3639 67.9478 32.3797 57.8202 32.3589 46.7038V34.2238L49.7309 27.2813L67.0926 34.2238V46.7038Z" fill="#9DADF2"/>
<path d="M42.0084 34.1716C41.7378 34.0571 41.4359 34.0571 41.1549 34.1716L36.752 35.9307C36.3253 36.0972 36.0547 36.5032 36.0547 36.9611V41.6554C36.0547 42.2695 36.5543 42.7691 37.1684 42.7691C37.7825 42.7691 38.2821 42.2695 38.2821 41.6554V37.7209L41.9772 36.243C42.2582 36.1285 42.4664 35.9203 42.5913 35.6392C42.7058 35.3686 42.7058 35.0668 42.5913 34.7858C42.4768 34.5047 42.2686 34.2965 41.998 34.1716H42.0084Z" fill="#9DADF2"/>
<path d="M77.8877 21.4211C70.3727 13.8957 60.3699 9.76343 49.7323 9.76343C39.0947 9.76343 29.1024 13.9061 21.577 21.4211C6.05768 36.9404 6.05768 62.2022 21.577 77.7319C29.3418 85.4967 39.5318 89.3686 49.7323 89.3686C59.9328 89.3686 70.1229 85.4863 77.8877 77.7319C93.407 62.2126 93.407 36.9508 77.8877 21.4211ZM72.3815 46.7037C72.4127 60.8282 63.3884 73.1833 49.9301 77.4612C49.8052 77.5029 49.6698 77.5029 49.5345 77.4612C36.0762 73.1833 27.0519 60.8282 27.0832 46.7037V31.0803C27.0832 30.8201 27.2392 30.5807 27.4891 30.4766L49.4929 21.6813C49.5658 21.6501 49.649 21.6397 49.7323 21.6397C49.8156 21.6397 49.8989 21.6501 49.9717 21.6813L71.9756 30.4871C72.2254 30.5807 72.3815 30.8201 72.3815 31.0907V46.7141V46.7037Z" fill="#9DADF2"/>
</g>
</svg>
