<svg width="102" height="1040" viewBox="0 0 102 1040" fill="none" xmlns="http://www.w3.org/2000/svg">
<g opacity="0.6">
<path d="M1.54675 1040.68C1.54675 1013.36 23.7796 991.126 51.1023 991.126C78.425 991.126 100.658 1013.36 100.658 1040.68C100.658 1068 78.425 1090.24 51.1023 1090.24C23.7796 1090.24 1.54675 1068 1.54675 1040.68ZM97.0877 1040.68C97.0877 1015.33 76.4577 994.696 51.1023 994.696C25.7469 994.696 5.11697 1015.33 5.11697 1040.68C5.11697 1066.04 25.7469 1086.67 51.1023 1086.67C76.4577 1086.67 97.0877 1066.04 97.0877 1040.68Z" fill="#478BF9"/>
<path d="M99.1434 1039.48H77.4414V1043.76H99.1434V1039.48Z" fill="#478BF9"/>
<path d="M24.4207 1039.48H2.71863V1043.76H24.4207V1039.48Z" fill="#478BF9"/>
<path d="M53.4107 993.083H49.1328V1014.78H53.4107V993.083Z" fill="#478BF9"/>
<path d="M76.7859 1014.47C61.9432 999.63 37.868 999.63 23.0148 1014.47C8.17213 1029.32 8.17213 1053.39 23.0148 1068.24C37.8576 1083.09 61.9328 1083.09 76.7859 1068.24C91.6286 1053.4 91.6286 1029.33 76.7859 1014.47ZM57.2489 1017.69C61.5789 1019.03 65.4613 1021.54 68.4798 1024.95L69.0626 1025.61L68.2092 1025.81C65.9505 1026.34 63.5357 1026.78 61.0376 1027.1L60.5901 1027.16L60.4652 1026.72C60.0488 1025.3 59.5596 1023.92 58.9975 1022.65C58.3001 1021.06 57.5195 1019.67 56.666 1018.49L55.7292 1017.21L57.2489 1017.68V1017.69ZM39.8768 1040.17L39.8977 1039.63C40.0018 1036.34 40.3661 1033.2 40.9906 1030.3L41.0843 1029.85L41.5526 1029.89C47.0276 1030.37 52.8773 1030.35 58.321 1029.84L58.7893 1029.79L58.8934 1030.25C59.5284 1033.18 59.8927 1036.33 59.9863 1039.63V1040.17H39.8873H39.8768ZM59.9863 1042.59V1043.13C59.8718 1046.43 59.5075 1049.58 58.8726 1052.51L58.7685 1052.96L58.3001 1052.92C52.8564 1052.41 47.0068 1052.4 41.5319 1052.87L41.0634 1052.91L40.9697 1052.45C40.3452 1049.56 39.9809 1046.43 39.8768 1043.13L39.856 1042.59H59.9655H59.9863ZM49.9316 1016.78C52.9605 1016.78 56.0415 1020.62 57.9671 1026.82L58.1648 1027.44L57.5091 1027.49C54.9486 1027.71 52.3048 1027.83 49.6506 1027.83C47.1837 1027.83 44.7273 1027.73 42.3333 1027.54L41.6775 1027.48L41.8753 1026.85C43.8009 1020.63 46.8923 1016.77 49.9316 1016.77V1016.78ZM31.2793 1025.07C34.3186 1021.6 38.2323 1019.05 42.6143 1017.7L44.1444 1017.23L43.1972 1018.52C42.3437 1019.69 41.5527 1021.09 40.8657 1022.67C40.314 1023.92 39.8144 1025.32 39.3773 1026.82L39.2524 1027.24L38.8048 1027.19C36.2859 1026.88 33.8503 1026.46 31.5604 1025.93L30.6964 1025.73L31.2793 1025.07ZM25.2007 1039.61C25.4921 1035.55 26.7932 1031.59 28.9686 1028.15L29.1768 1027.83L29.5515 1027.92C32.2161 1028.6 35.0889 1029.14 38.1074 1029.52L38.6695 1029.6L38.5549 1030.16C37.9304 1033.18 37.5766 1036.37 37.4829 1039.66V1040.17H25.1694L25.2111 1039.61H25.2007ZM29.1768 1054.93L28.9686 1054.61C26.7932 1051.17 25.4921 1047.21 25.2007 1043.15L25.159 1042.59H37.462V1043.1C37.5661 1046.39 37.9305 1049.59 38.5446 1052.6L38.6591 1053.16L38.0969 1053.23C35.0889 1053.62 32.2057 1054.16 29.5411 1054.84L29.1664 1054.93H29.1768ZM42.6143 1065.07C38.2323 1063.72 34.3186 1061.17 31.2793 1057.7L30.6964 1057.03L31.5604 1056.84C33.8503 1056.32 36.2859 1055.89 38.8048 1055.58L39.2524 1055.52L39.3773 1055.95C39.8144 1057.45 40.314 1058.84 40.8657 1060.09C41.5631 1061.69 42.3437 1063.08 43.1972 1064.26L44.1444 1065.55L42.6143 1065.08V1065.07ZM49.9316 1065.97C46.8923 1065.97 43.8009 1062.11 41.8753 1055.9L41.6775 1055.26L42.3333 1055.21C47.2982 1054.82 52.5858 1054.83 57.5091 1055.25L58.1648 1055.31L57.9671 1055.93C56.0311 1062.11 52.9501 1065.96 49.9316 1065.96V1065.97ZM68.4798 1057.8C65.4613 1061.22 61.5684 1063.73 57.2489 1065.07L55.7292 1065.54L56.666 1064.26C57.5195 1063.09 58.3001 1061.69 58.9975 1060.09C59.5492 1058.81 60.0488 1057.45 60.4652 1056.02L60.5901 1055.59L61.0376 1055.65C63.5357 1055.97 65.9505 1056.41 68.2092 1056.94L69.0626 1057.15L68.4798 1057.8ZM74.6521 1043.15C74.3607 1047.25 73.0388 1051.26 70.8113 1054.73L70.6032 1055.06L70.2285 1054.96C67.5951 1054.26 64.7327 1053.71 61.735 1053.31L61.1729 1053.23L61.2874 1052.68C61.9119 1049.66 62.2762 1046.45 62.3699 1043.11V1042.6H74.6833L74.6417 1043.16L74.6521 1043.15ZM62.3907 1040.17V1039.66C62.2866 1036.32 61.9224 1033.09 61.2978 1030.09L61.1834 1029.53L61.7454 1029.46C64.7431 1029.05 67.595 1028.5 70.2388 1027.81L70.6136 1027.71L70.8217 1028.03C73.0491 1031.51 74.3815 1035.51 74.6625 1039.62L74.7042 1040.18H62.4012L62.3907 1040.17Z" fill="#478BF9"/>
<path d="M16.6172 953.672C-2.87255 934.182 -2.87255 902.473 16.6172 882.984C36.1069 863.494 67.8156 863.494 87.3053 882.984C106.795 902.473 106.795 934.182 87.3053 953.672C67.8156 973.162 36.1069 973.162 16.6172 953.672ZM84.9497 885.339C66.7586 867.148 37.1638 867.148 18.9775 885.339C0.7865 903.53 0.7865 933.125 18.9775 951.312C37.1686 969.503 66.7634 969.503 84.9497 951.312C103.141 933.121 103.141 903.526 84.9497 885.339Z" fill="white"/>
<path d="M85.4893 907.725C85.3139 907.55 85.1717 907.327 85.0912 907.081C83.3612 901.962 80.5363 897.426 76.6971 893.587C72.8626 889.752 68.322 886.927 63.2031 885.192C62.5253 884.96 62.0703 884.33 62.0703 883.614V871.466C62.0703 870.954 62.3073 870.471 62.7102 870.153C63.1178 869.836 63.6439 869.727 64.1368 869.85C72.8863 872.04 80.8965 876.58 87.2951 882.984C93.6937 889.387 98.2344 897.393 100.424 906.142C100.547 906.64 100.434 907.166 100.121 907.573C99.8032 907.981 99.3198 908.213 98.8079 908.213H86.66C86.205 908.213 85.7879 908.028 85.4798 907.72L85.4893 907.725ZM79.0527 891.231C82.9677 895.146 85.9206 899.734 87.8449 904.881H96.6324C94.4237 897.525 90.4091 890.804 84.9442 885.339C79.4793 879.875 72.7584 875.86 65.4071 873.656V882.443C70.5544 884.363 75.1424 887.316 79.0574 891.236L79.0527 891.231Z" fill="white"/>
<path d="M16.616 953.672C10.2174 947.273 5.67197 939.263 3.48222 930.514C3.35899 930.016 3.47275 929.49 3.78557 929.087C4.10313 928.679 4.58656 928.447 5.09845 928.447H17.2464C17.9621 928.447 18.5972 928.902 18.8247 929.58C20.5547 934.699 23.3795 939.235 27.2187 943.074C31.0531 946.908 35.5938 949.733 40.7127 951.468C41.3905 951.695 41.8455 952.33 41.8455 953.046V965.194C41.8455 965.706 41.6085 966.189 41.2056 966.507C40.798 966.825 40.2719 966.934 39.7742 966.81C31.0247 964.621 23.0194 960.08 16.616 953.681V953.672ZM7.28348 931.774C9.49219 939.13 13.5067 945.851 18.9716 951.316C24.4365 956.781 31.1575 960.796 38.5135 963.004V954.217C33.3662 952.297 28.7781 949.344 24.8631 945.429C20.9481 941.514 17.9952 936.926 16.0709 931.779H7.28348V931.774Z" fill="white"/>
<path d="M62.5663 966.365C62.2535 966.052 62.0781 965.63 62.0781 965.185V953.037C62.0781 952.321 62.5331 951.686 63.2109 951.459C68.3298 949.729 72.8657 946.904 76.7049 943.065C80.5441 939.225 83.3642 934.689 85.0989 929.571C85.3264 928.893 85.9616 928.438 86.6773 928.438H98.8252C99.3371 928.438 99.8205 928.675 100.138 929.078C100.456 929.48 100.565 930.011 100.441 930.504C98.2469 939.254 93.7063 947.259 87.3076 953.663C80.909 960.066 72.8989 964.607 64.1494 966.796C63.6517 966.92 63.1256 966.806 62.7227 966.493C62.6706 966.446 62.6185 966.403 62.5711 966.355L62.5663 966.365ZM65.4102 954.212V963C72.7662 960.791 79.4871 956.777 84.952 951.312C90.4169 945.847 94.4267 939.126 96.6402 931.77H87.8527C85.9331 936.917 82.9803 941.5 79.0605 945.42C75.1455 949.335 70.5575 952.293 65.4102 954.212Z" fill="white"/>
<path d="M3.91901 907.725C3.87161 907.678 3.82423 907.626 3.78631 907.573C3.46875 907.171 3.35973 906.64 3.48296 906.142C5.67271 897.393 10.2134 889.382 16.6167 882.984C23.0201 876.585 31.0254 872.04 39.775 869.85C40.2726 869.727 40.7988 869.841 41.2016 870.153C41.6045 870.471 41.8415 870.954 41.8415 871.466V883.614C41.8415 884.33 41.3865 884.965 40.7087 885.192C35.5898 886.922 31.0539 889.747 27.2147 893.587C23.3803 897.421 20.5554 901.962 18.8207 907.081C18.5932 907.758 17.9581 908.213 17.2424 908.213H5.09448C4.64895 908.213 4.22235 908.038 3.91427 907.73L3.91901 907.725ZM38.5095 873.656C31.1535 875.865 24.4325 879.879 18.9676 885.344C13.5027 890.809 9.49293 897.53 7.27948 904.886H16.0669C17.9865 899.739 20.9393 895.155 24.8591 891.236C28.7741 887.321 33.3622 884.368 38.5095 882.443V873.656Z" fill="white"/>
<path d="M79.0566 891.231C64.1171 876.291 39.8023 876.287 24.8627 891.231C9.91839 906.175 9.92313 930.485 24.8627 945.425C39.8023 960.364 64.1123 960.369 79.0566 945.425C94.001 930.48 93.9962 906.17 79.0566 891.231Z" fill="white"/>
<path d="M65.7833 932.005L38.2557 932.188C37.0961 932.196 36.1622 933.142 36.1699 934.302L36.1764 935.283C36.1841 936.442 37.1304 937.376 38.29 937.368L65.8177 937.186C66.9773 937.178 67.9111 936.232 67.9034 935.072L67.8969 934.091C67.8892 932.932 66.9429 931.998 65.7833 932.005Z" fill="#110A1D"/>
<path d="M42.0062 915.389C41.7076 915.389 41.4043 915.323 41.1294 915.19L38.9823 914.152C38.0486 913.697 37.622 912.593 38.0106 911.631L38.9965 909.175C39.2999 908.427 40.0156 907.938 40.8213 907.934C41.1673 907.934 41.5086 908.019 41.8119 908.194L44.3714 909.654C44.8501 909.924 45.1961 910.394 45.3193 910.934C45.4425 911.474 45.3335 912.043 45.0207 912.498L43.6178 914.531C43.2528 915.062 42.6461 915.384 42.0015 915.384L42.0062 915.389Z" fill="#110A1D"/>
<path d="M61.8211 915.256C61.1765 915.256 60.5651 914.948 60.1954 914.422L58.8066 912.465C58.4843 912.014 58.3706 911.446 58.4844 910.905C58.5981 910.365 58.9394 909.891 59.4181 909.611L62.0581 908.062C62.3567 907.886 62.698 907.791 63.044 907.787C63.8497 907.782 64.5749 908.261 64.8877 909.005L65.8831 911.389C66.2812 912.346 65.8689 913.46 64.9446 913.925L62.698 915.048C62.4278 915.181 62.1244 915.256 61.8258 915.256H61.8211Z" fill="#110A1D"/>
<path d="M39.8437 930.348C38.635 930.357 37.5497 929.599 37.1373 928.461L32.5445 915.821C32.2507 915.963 31.9378 916.072 31.6203 916.152C31.2458 916.247 30.8666 916.295 30.4827 916.295C30.26 916.295 30.0419 916.285 29.8286 916.257C27.4351 915.953 25.6198 913.901 25.6056 911.484C25.5866 908.811 27.7479 906.621 30.4211 906.602C33.0943 906.583 35.2841 908.744 35.2983 911.417C35.2983 912.034 35.194 912.626 34.976 913.181C34.8575 913.484 34.7106 913.773 34.54 914.048L43.2752 918.276L49.9583 908.592C49.6786 908.474 49.4084 908.327 49.1525 908.152C48.669 907.825 48.2472 907.417 47.9059 906.938C47.3277 906.123 47.0149 905.161 47.0101 904.166C46.9912 901.492 49.1525 899.303 51.8257 899.284C51.9442 899.284 52.0674 899.284 52.1859 899.293C54.5795 899.454 56.5133 901.374 56.6886 903.767C56.7692 904.9 56.4706 905.986 55.826 906.91C55.4848 907.393 55.0676 907.806 54.5889 908.133C54.3377 908.308 54.0676 908.455 53.7879 908.574L60.5894 918.157L69.1825 913.858C69.0214 913.55 68.8934 913.228 68.7987 912.891C68.6849 912.484 68.6233 912.057 68.6233 911.626C68.6233 911.432 68.6327 911.237 68.6517 911.048C68.9266 908.611 70.9836 906.763 73.4341 906.749C76.1073 906.73 78.297 908.891 78.3112 911.564C78.3302 914.114 76.349 916.257 73.8038 916.432L73.5004 916.441C73.0075 916.441 72.5241 916.375 72.0548 916.233C71.7515 916.138 71.4576 916.02 71.1827 915.868L66.8696 928.262C66.4762 929.405 65.3955 930.172 64.1869 930.182L39.8437 930.343V930.348Z" fill="#110A1D"/>
<path d="M51.5528 840.627C38.8542 840.627 26.1661 835.798 16.4965 826.128C-2.83233 806.799 -2.83233 775.355 16.4965 756.026C25.8643 746.658 38.313 741.506 51.5528 741.506C64.7926 741.506 77.2413 746.658 86.6091 756.026C105.938 775.355 105.938 806.799 86.6091 826.128C76.9498 835.787 64.2513 840.627 51.5528 840.627ZM19.0987 823.526C36.9911 841.418 66.104 841.418 83.9965 823.526C101.889 805.633 101.889 776.521 83.9965 758.628C75.3261 749.958 63.8037 745.19 51.5424 745.19C39.281 745.19 27.7586 749.968 19.0882 758.628C1.1958 776.521 1.1958 805.633 19.0882 823.526H19.0987Z" fill="#7DDACF"/>
<path d="M53.3872 780.643L44.2068 793.508H49.7129V802.688L58.8934 789.833H53.3872V780.643Z" fill="#7DDACF"/>
<path d="M51.543 773.492C41.4883 773.492 33.3279 781.652 33.3279 791.707C33.3279 801.762 41.4883 809.901 51.543 809.901C61.5977 809.901 69.7581 801.741 69.7581 791.707C69.7581 781.673 61.5977 773.492 51.543 773.492ZM51.543 807.653C42.7165 807.653 35.5553 800.492 35.5553 791.665C35.5553 782.839 42.7165 775.678 51.543 775.678C60.3695 775.678 67.5307 782.839 67.5307 791.665C67.5307 800.492 60.3695 807.653 51.543 807.653Z" fill="#7DDACF"/>
<path d="M79.7 762.927C72.1849 755.402 62.1822 751.269 51.5446 751.269C40.9069 751.269 30.9147 755.412 23.3892 762.927C7.86994 778.446 7.86994 803.708 23.3892 819.238C31.1541 827.003 41.3441 830.885 51.5446 830.885C61.745 830.885 71.9351 827.003 79.7 819.238C95.2192 803.718 95.2192 778.457 79.7 762.927ZM51.5446 816.417C37.9301 816.417 26.8449 805.332 26.8449 791.717C26.8449 785.701 28.9995 780.184 32.5801 775.875L29.5615 772.857C28.6976 771.993 28.6976 770.588 29.5615 769.713C30.4254 768.839 31.8306 768.85 32.705 769.713L35.7235 772.732C39.4706 769.599 44.1856 767.538 49.3275 767.101V765.061H47.2875C45.4868 765.061 43.9983 763.572 43.9983 761.772V760.054C43.9983 758.233 45.4868 756.765 47.2875 756.765H55.8226C57.6232 756.765 59.1117 758.233 59.1117 760.054V761.772C59.1117 763.572 57.6232 765.061 55.8226 765.061H53.7824V767.101C58.9347 767.548 63.6394 769.609 67.3865 772.732L70.405 769.713C71.2689 768.85 72.6741 768.85 73.5484 769.713C74.4123 770.577 74.4123 771.982 73.5484 772.857L70.5299 775.875C74.1105 780.184 76.2651 785.691 76.2651 791.717C76.2651 805.332 65.1799 816.417 51.5654 816.417H51.5446Z" fill="#7DDACF"/>
<path d="M50.545 722.344C23.2224 722.344 0.999878 700.111 0.999878 672.799C0.999878 645.486 23.2328 623.253 50.545 623.253C77.8573 623.253 100.09 645.486 100.09 672.799C100.09 700.111 77.8573 722.344 50.545 722.344ZM50.545 626.553C25.0439 626.553 4.29946 647.297 4.29946 672.799C4.29946 698.3 25.0439 719.044 50.545 719.044C76.0462 719.044 96.7906 698.3 96.7906 672.799C96.7906 647.297 76.0462 626.553 50.545 626.553Z" fill="white"/>
<path d="M82.8732 637.444L67.5349 652.783L70.5525 655.8L85.8908 640.462L82.8732 637.444Z" fill="white"/>
<path d="M30.0763 690.243L14.738 705.582L17.7556 708.599L33.0939 693.261L30.0763 690.243Z" fill="white"/>
<path d="M71.0173 690.24L67.9998 693.258L83.338 708.596L86.3556 705.579L71.0173 690.24Z" fill="white"/>
<path d="M17.7673 636.979L14.7498 639.997L30.0807 655.328L33.0983 652.31L17.7673 636.979Z" fill="white"/>
<path d="M62.641 674.131C63.6402 673.132 63.6402 671.518 62.641 670.529L60.5176 668.417C59.5183 667.417 57.905 667.417 56.9162 668.417L55.7712 669.562L54.4494 668.24C53.4501 667.24 51.8368 667.24 50.848 668.24L49.703 669.395L48.3811 668.063C47.3819 667.063 45.7685 667.063 44.7797 668.063L37.7539 675.088C37.7018 675.141 37.7018 675.224 37.7539 675.286C38.6907 676.223 40.2208 676.223 41.1679 675.286L45.6957 670.758C46.1849 670.269 46.9759 670.269 47.4652 670.758L47.7982 671.092C47.8607 671.154 47.8607 671.248 47.7982 671.31L44.0199 675.088C43.9679 675.141 43.9679 675.224 44.0199 675.286C44.9567 676.223 46.4867 676.223 47.4339 675.286L51.7743 670.946C52.2635 670.457 53.0546 670.457 53.5438 670.946L53.8768 671.279C53.9289 671.331 53.9289 671.414 53.8768 671.477L50.2338 675.12C50.1818 675.172 50.1818 675.255 50.2338 675.317C51.1706 676.254 52.7007 676.254 53.6479 675.317L57.8425 671.123C58.3317 670.634 59.1228 670.634 59.612 671.123L60.3302 671.841C60.6112 672.122 60.6112 672.59 60.3302 672.871L60.2157 672.986C59.9347 673.267 59.4663 673.267 59.1853 672.986L58.2589 672.06C58.2069 672.008 58.1236 672.008 58.0611 672.06L56.4582 673.663C56.4062 673.715 56.4062 673.798 56.4582 673.86L57.905 675.307C58.9043 676.306 60.5176 676.306 61.5064 675.307L62.6514 674.162L62.641 674.131Z" fill="white"/>
<path d="M50.5462 634.797C29.5624 634.797 12.5547 651.804 12.5547 672.788C12.5547 693.772 29.5624 710.78 50.5462 710.78C71.53 710.78 88.5377 693.772 88.5377 672.788C88.5377 651.804 71.53 634.797 50.5462 634.797ZM52.0971 646.527C58.1965 646.881 63.7339 649.317 68.0223 653.126L62.5369 658.612C59.6745 656.186 56.0628 654.615 52.0971 654.282V646.527ZM49.0057 646.527V654.282C45.04 654.604 41.4282 656.186 38.5659 658.612L33.0805 653.126C37.3688 649.317 42.9062 646.881 49.0057 646.527ZM30.8947 655.312L36.38 660.797C33.9548 663.66 32.3831 667.272 32.05 671.237H24.2956C24.6495 665.138 27.0851 659.6 30.8947 655.312ZM24.2956 674.329H32.05C32.3727 678.294 33.9548 681.906 36.38 684.768L30.8947 690.254C27.0851 685.965 24.6495 680.428 24.2956 674.329ZM49.0057 699.039C42.9062 698.685 37.3688 696.249 33.0805 692.44L38.5659 686.954C41.4282 689.379 45.04 690.951 49.0057 691.284V699.039ZM34.5793 672.778C34.5793 663.962 41.7301 656.811 50.5462 656.811C59.3623 656.811 66.513 663.962 66.513 672.778C66.513 681.594 59.3623 688.745 50.5462 688.745C41.7301 688.745 34.5793 681.594 34.5793 672.778ZM52.0971 699.039V691.284C56.0628 690.962 59.6745 689.379 62.5369 686.954L68.0223 692.44C63.7339 696.249 58.1965 698.685 52.0971 699.039ZM70.2081 690.254L64.7228 684.768C67.148 681.906 68.7196 678.294 69.0527 674.329H76.8072C76.4533 680.428 74.0176 685.965 70.2081 690.254ZM69.0527 671.237C68.7301 667.272 67.148 663.66 64.7228 660.797L70.2081 655.312C74.0176 659.6 76.4533 665.138 76.8072 671.237H69.0527Z" fill="white"/>
<path d="M1.54675 417.461C1.54675 390.139 23.7796 367.906 51.1023 367.906C78.425 367.906 100.658 390.139 100.658 417.461C100.658 444.784 78.425 467.017 51.1023 467.017C23.7796 467.017 1.54675 444.784 1.54675 417.461ZM97.0877 417.461C97.0877 392.106 76.4577 371.476 51.1023 371.476C25.7469 371.476 5.11697 392.106 5.11697 417.461C5.11697 442.817 25.7469 463.447 51.1023 463.447C76.4577 463.447 97.0877 442.817 97.0877 417.461Z" fill="#478BF9"/>
<path d="M1.54409 538.607C1.54409 537.618 2.34558 536.827 3.32399 536.827C4.3024 536.827 5.10389 537.629 5.10389 538.607C5.10389 563.963 25.7338 584.593 51.0892 584.593C76.4447 584.593 97.0746 563.963 97.0746 538.607C97.0746 537.618 97.8761 536.827 98.8545 536.827C99.8329 536.827 100.634 537.629 100.634 538.607C100.634 565.93 78.4015 588.163 51.0788 588.163C23.7561 588.163 1.52332 565.93 1.52332 538.607H1.54409Z" fill="#478BF9"/>
<path d="M99.1434 416.264H77.4414V420.542H99.1434V416.264Z" fill="#478BF9"/>
<path d="M24.4207 416.264H2.71863V420.542H24.4207V416.264Z" fill="#478BF9"/>
<path d="M53.4107 445.242H49.1328V466.944H53.4107V445.242Z" fill="#478BF9"/>
<path d="M53.4107 369.863H49.1328V391.565H53.4107V369.863Z" fill="#478BF9"/>
<path d="M76.7859 391.252C61.9432 376.409 37.868 376.409 23.0148 391.252C8.17213 406.095 8.17213 430.17 23.0148 445.023C37.8576 459.866 61.9328 459.866 76.7859 445.023C91.6286 430.18 91.6286 406.105 76.7859 391.252ZM57.2489 394.468C61.5789 395.811 65.4613 398.32 68.4798 401.734L69.0626 402.389L68.2092 402.587C65.9505 403.118 63.5357 403.555 61.0376 403.878L60.5901 403.94L60.4652 403.503C60.0488 402.077 59.5596 400.703 58.9975 399.433C58.3001 397.841 57.5195 396.446 56.666 395.27L55.7292 393.99L57.2489 394.458V394.468ZM39.8768 416.951L39.8977 416.41C40.0018 413.121 40.3661 409.977 40.9906 407.084L41.0843 406.626L41.5526 406.667C47.0276 407.146 52.8773 407.125 58.321 406.615L58.7893 406.574L58.8934 407.032C59.5284 409.957 59.8927 413.11 59.9863 416.41V416.951H39.8873H39.8768ZM59.9863 419.366V419.907C59.8718 423.207 59.5075 426.36 58.8726 429.285L58.7685 429.743L58.3001 429.702C52.8564 429.192 47.0068 429.181 41.5319 429.65L41.0634 429.691L40.9697 429.233C40.3452 426.34 39.9809 423.207 39.8768 419.907L39.856 419.366H59.9655H59.9863ZM49.9316 393.563C52.9605 393.563 56.0415 397.404 57.9671 403.597L58.1648 404.221L57.5091 404.273C54.9486 404.492 52.3048 404.606 49.6506 404.606C47.1837 404.606 44.7273 404.513 42.3333 404.315L41.6775 404.263L41.8753 403.628C43.8009 397.414 46.8923 393.552 49.9316 393.552V393.563ZM31.2793 401.848C34.3186 398.382 38.2323 395.832 42.6143 394.479L44.1444 394.01L43.1972 395.301C42.3437 396.467 41.5527 397.872 40.8657 399.454C40.314 400.703 39.8144 402.098 39.3773 403.597L39.2524 404.024L38.8048 403.972C36.2859 403.659 33.8503 403.243 31.5604 402.712L30.6964 402.514L31.2793 401.848ZM25.2007 416.389C25.4921 412.33 26.7932 408.374 28.9686 404.929L29.1768 404.606L29.5515 404.7C32.2161 405.377 35.0889 405.918 38.1074 406.303L38.6695 406.376L38.5549 406.938C37.9304 409.956 37.5766 413.152 37.4829 416.441V416.951H25.1694L25.2111 416.389H25.2007ZM29.1768 431.711L28.9686 431.388C26.7932 427.953 25.4921 423.987 25.2007 419.928L25.159 419.366H37.462V419.876C37.5661 423.165 37.9305 426.371 38.5446 429.379L38.6591 429.941L38.0969 430.014C35.0889 430.399 32.2057 430.94 29.5411 431.617L29.1664 431.711H29.1768ZM42.6143 441.849C38.2323 440.495 34.3186 437.945 31.2793 434.479L30.6964 433.813L31.5604 433.615C33.8503 433.095 36.2859 432.668 38.8048 432.356L39.2524 432.304L39.3773 432.731C39.8144 434.229 40.314 435.624 40.8657 436.873C41.5631 438.466 42.3437 439.86 43.1972 441.037L44.1444 442.327L42.6143 441.859V441.849ZM49.9316 442.754C46.8923 442.754 43.8009 438.892 41.8753 432.679L41.6775 432.044L42.3333 431.992C47.2982 431.596 52.5858 431.606 57.5091 432.033L58.1648 432.085L57.9671 432.71C56.0311 438.892 52.9501 442.744 49.9316 442.744V442.754ZM68.4798 434.583C65.4613 437.997 61.5684 440.506 57.2489 441.849L55.7292 442.317L56.666 441.037C57.5195 439.871 58.3001 438.466 58.9975 436.873C59.5492 435.593 60.0488 434.229 60.4652 432.803L60.5901 432.366L61.0376 432.429C63.5357 432.751 65.9505 433.189 68.2092 433.719L69.0626 433.928L68.4798 434.583ZM74.6521 419.928C74.3607 424.029 73.0388 428.036 70.8113 431.513L70.6032 431.835L70.2285 431.742C67.5951 431.044 64.7327 430.493 61.735 430.087L61.1729 430.014L61.2874 429.462C61.9119 426.444 62.2762 423.227 62.3699 419.886V419.376H74.6833L74.6417 419.938L74.6521 419.928ZM62.3907 416.951V416.441C62.2866 413.1 61.9224 409.873 61.2978 406.865L61.1834 406.313L61.7454 406.241C64.7431 405.835 67.595 405.283 70.2388 404.586L70.6136 404.492L70.8217 404.815C73.0491 408.291 74.3815 412.288 74.6625 416.399L74.7042 416.961H62.4012L62.3907 416.951Z" fill="#478BF9"/>
<path d="M1.48438 539.357V419.762C1.48438 418.773 2.28586 417.982 3.26427 417.982C4.24269 417.982 5.04417 418.783 5.04417 419.762V539.357C5.04417 540.346 4.24269 541.137 3.26427 541.137C2.28586 541.137 1.48438 540.335 1.48438 539.357Z" fill="#478BF9"/>
<path d="M97.0352 539.628V420.032C97.0352 419.044 97.8366 418.252 98.815 418.252C99.7934 418.252 100.595 419.054 100.595 420.032V539.628C100.595 540.616 99.7934 541.407 98.815 541.407C97.8366 541.407 97.0352 540.606 97.0352 539.628Z" fill="#478BF9"/>
<path d="M14.8281 330.452C-4.66161 310.962 -4.66161 279.253 14.8281 259.764C34.3178 240.274 66.0265 240.274 85.5162 259.764C105.006 279.253 105.006 310.962 85.5162 330.452C66.0265 349.941 34.3178 349.941 14.8281 330.452ZM83.1606 262.119C64.9696 243.928 35.3748 243.928 17.1885 262.119C-1.00256 280.31 -1.00256 309.905 17.1885 328.091C35.3795 346.282 64.9743 346.282 83.1606 328.091C101.352 309.9 101.352 280.305 83.1606 262.119Z" fill="white"/>
<path d="M83.7002 284.505C83.5248 284.33 83.3827 284.107 83.3021 283.86C81.5721 278.741 78.7472 274.205 74.908 270.366C71.0736 266.532 66.5329 263.707 61.414 261.972C60.7363 261.74 60.2812 261.11 60.2812 260.394V248.246C60.2812 247.734 60.5182 247.251 60.9211 246.933C61.3287 246.616 61.8548 246.507 62.3478 246.63C71.0973 248.82 79.1074 253.36 85.506 259.764C91.9046 266.167 96.4453 274.172 98.6351 282.922C98.7583 283.42 98.6445 283.946 98.3317 284.353C98.0142 284.761 97.5307 284.993 97.0188 284.993H84.8709C84.4159 284.993 83.9988 284.808 83.6907 284.5L83.7002 284.505ZM77.2636 268.011C81.1787 271.926 84.1315 276.514 86.0558 281.661H94.8433C92.6346 274.305 88.62 267.584 83.1551 262.119C77.6902 256.654 70.9693 252.64 63.618 250.436V259.223C68.7654 261.143 73.3534 264.096 77.2684 268.015L77.2636 268.011Z" fill="white"/>
<path d="M14.8269 330.452C8.42831 324.053 3.88291 316.043 1.69316 307.293C1.56992 306.796 1.68368 306.27 1.99651 305.867C2.31407 305.459 2.7975 305.227 3.30939 305.227H15.4573C16.173 305.227 16.8081 305.682 17.0356 306.36C18.7656 311.479 21.5905 316.014 25.4296 319.854C29.2641 323.688 33.8048 326.513 38.9237 328.248C39.6015 328.475 40.0564 329.11 40.0564 329.826V341.974C40.0564 342.486 39.8194 342.969 39.4166 343.287C39.0089 343.604 38.4828 343.713 37.9852 343.59C29.2356 341.4 21.2303 336.86 14.8269 330.461V330.452ZM5.49442 308.554C7.70313 315.91 11.7177 322.631 17.1826 328.096C22.6475 333.561 29.3684 337.575 36.7244 339.784V330.997C31.5771 329.077 26.989 326.124 23.074 322.209C19.159 318.294 16.2062 313.706 14.2818 308.559H5.49442V308.554Z" fill="white"/>
<path d="M60.7773 343.145C60.4644 342.832 60.2891 342.41 60.2891 341.965V329.817C60.2891 329.101 60.7441 328.466 61.4219 328.238C66.5408 326.508 71.0767 323.683 74.9158 319.844C78.755 316.005 81.5751 311.469 83.3098 306.35C83.5374 305.673 84.1725 305.218 84.8882 305.218H97.0361C97.548 305.218 98.0315 305.455 98.349 305.857C98.6666 306.26 98.7756 306.791 98.6524 307.284C96.4579 316.034 91.9172 324.039 85.5186 330.442C79.12 336.846 71.1098 341.386 62.3603 343.576C61.8626 343.699 61.3365 343.586 60.9337 343.273C60.8815 343.225 60.8294 343.183 60.782 343.135L60.7773 343.145ZM63.6211 330.992V339.78C70.9771 337.571 77.6981 333.556 83.1629 328.091C88.6278 322.627 92.6377 315.906 94.8511 308.55H86.0637C84.1441 313.697 81.1912 318.28 77.2715 322.2C73.3564 326.115 68.7684 329.073 63.6211 330.992Z" fill="white"/>
<path d="M2.12995 284.505C2.08255 284.458 2.03517 284.405 1.99725 284.353C1.67969 283.95 1.57067 283.42 1.6939 282.922C3.88365 274.172 8.42431 266.162 14.8277 259.764C21.231 253.365 29.2364 248.82 37.9859 246.63C38.4836 246.507 39.0097 246.62 39.4126 246.933C39.8154 247.251 40.0525 247.734 40.0525 248.246V260.394C40.0525 261.11 39.5975 261.745 38.9197 261.972C33.8008 263.702 29.2648 266.527 25.4256 270.366C21.5912 274.201 18.7664 278.741 17.0316 283.86C16.8041 284.538 16.169 284.993 15.4533 284.993H3.30542C2.85988 284.993 2.43328 284.818 2.1252 284.51L2.12995 284.505ZM36.7204 250.436C29.3644 252.645 22.6434 256.659 17.1786 262.124C11.7137 267.589 7.70387 274.31 5.49042 281.666H14.2778C16.1974 276.518 19.1503 271.935 23.07 268.015C26.985 264.1 31.5731 261.148 36.7204 259.223V250.436Z" fill="white"/>
<path d="M77.2676 268.011C62.328 253.071 38.0133 253.066 23.0737 268.011C8.12933 282.955 8.13407 307.265 23.0737 322.205C38.0133 337.144 62.3232 337.149 77.2676 322.205C92.2119 307.26 92.2072 282.95 77.2676 268.011Z" fill="white"/>
<path d="M63.9943 308.785L36.4666 308.968C35.307 308.975 34.3732 309.922 34.3809 311.081L34.3874 312.062C34.3951 313.222 35.3414 314.156 36.501 314.148L64.0286 313.966C65.1882 313.958 66.1221 313.012 66.1144 311.852L66.1079 310.871C66.1002 309.711 65.1539 308.777 63.9943 308.785Z" fill="#110A1D"/>
<path d="M40.2172 292.169C39.9186 292.169 39.6152 292.103 39.3403 291.97L37.1932 290.932C36.2595 290.477 35.8329 289.373 36.2216 288.41L37.2075 285.955C37.5108 285.206 38.2265 284.718 39.0323 284.713C39.3783 284.713 39.7195 284.799 40.0228 284.974L42.5823 286.434C43.061 286.704 43.407 287.173 43.5302 287.714C43.6535 288.254 43.5445 288.823 43.2316 289.278L41.8287 291.311C41.4637 291.842 40.857 292.164 40.2124 292.164L40.2172 292.169Z" fill="#110A1D"/>
<path d="M60.032 292.036C59.3874 292.036 58.776 291.728 58.4063 291.202L57.0176 289.245C56.6953 288.795 56.5816 288.226 56.6953 287.685C56.8091 287.145 57.1503 286.671 57.629 286.391L60.269 284.842C60.5676 284.666 60.9089 284.571 61.2549 284.567C62.0607 284.562 62.7859 285.041 63.0987 285.785L64.094 288.169C64.4921 289.126 64.0798 290.24 63.1555 290.705L60.9089 291.828C60.6388 291.961 60.3354 292.036 60.0368 292.036H60.032Z" fill="#110A1D"/>
<path d="M38.0546 307.128C36.846 307.137 35.7606 306.379 35.3482 305.241L30.7555 292.6C30.4616 292.743 30.1488 292.852 29.8312 292.932C29.4568 293.027 29.0776 293.074 28.6937 293.074C28.4709 293.074 28.2529 293.065 28.0396 293.036C25.646 292.733 23.8307 290.681 23.8165 288.264C23.7976 285.59 25.9588 283.401 28.632 283.382C31.3052 283.363 33.495 285.524 33.5092 288.197C33.5092 288.813 33.4049 289.406 33.1869 289.96C33.0684 290.264 32.9215 290.553 32.7509 290.828L41.4862 295.056L48.1692 285.372C47.8896 285.254 47.6194 285.107 47.3634 284.931C46.88 284.604 46.4581 284.197 46.1169 283.718C45.5386 282.903 45.2258 281.941 45.2211 280.945C45.2021 278.272 47.3634 276.082 50.0366 276.063C50.1551 276.063 50.2784 276.063 50.3969 276.073C52.7904 276.234 54.7242 278.154 54.8996 280.547C54.9802 281.68 54.6816 282.765 54.037 283.69C53.6957 284.173 53.2786 284.585 52.7999 284.913C52.5487 285.088 52.2785 285.235 51.9989 285.353L58.8004 294.937L67.3935 290.638C67.2323 290.33 67.1044 290.008 67.0096 289.671C66.8958 289.264 66.8342 288.837 66.8342 288.406C66.8342 288.211 66.8437 288.017 66.8626 287.827C67.1375 285.391 69.1946 283.543 71.645 283.529C74.3182 283.51 76.508 285.671 76.5222 288.344C76.5411 290.894 74.5599 293.036 72.0147 293.212L71.7114 293.221C71.2184 293.221 70.735 293.155 70.2658 293.013C69.9624 292.918 69.6685 292.799 69.3936 292.648L65.0805 305.042C64.6871 306.184 63.6064 306.952 62.3978 306.962L38.0546 307.123V307.128Z" fill="#110A1D"/>
<path d="M50.6153 217.407C37.9167 217.407 25.2286 212.577 15.559 202.908C-3.76983 183.579 -3.76983 152.135 15.559 132.806C24.9268 123.438 37.3755 118.286 50.6153 118.286C63.8551 118.286 76.3038 123.438 85.6716 132.806C105 152.135 105 183.579 85.6716 202.908C76.0123 212.567 63.3138 217.407 50.6153 217.407ZM18.1612 200.306C36.0536 218.198 65.1665 218.198 83.059 200.306C100.951 182.413 100.951 153.3 83.059 135.408C74.3886 126.737 62.8662 121.97 50.6049 121.97C38.3435 121.97 26.8211 126.748 18.1507 135.408C0.2583 153.3 0.2583 182.413 18.1507 200.306H18.1612Z" fill="#7DDACF"/>
<path d="M52.4497 157.422L43.2693 170.287H48.7754V179.468L57.9559 166.613H52.4497V157.422Z" fill="#7DDACF"/>
<path d="M50.6055 150.271C40.5508 150.271 32.3904 158.432 32.3904 168.487C32.3904 178.541 40.5508 186.681 50.6055 186.681C60.6602 186.681 68.8206 178.521 68.8206 168.487C68.8206 158.453 60.6602 150.271 50.6055 150.271ZM50.6055 184.433C41.779 184.433 34.6178 177.272 34.6178 168.445C34.6178 159.618 41.779 152.457 50.6055 152.457C59.432 152.457 66.5932 159.618 66.5932 168.445C66.5932 177.272 59.432 184.433 50.6055 184.433Z" fill="#7DDACF"/>
<path d="M78.7625 139.707C71.2474 132.181 61.2447 128.049 50.6071 128.049C39.9694 128.049 29.9772 132.192 22.4517 139.707C6.93244 155.226 6.93244 180.488 22.4517 196.017C30.2166 203.782 40.4066 207.665 50.6071 207.665C60.8075 207.665 70.9976 203.782 78.7625 196.017C94.2817 180.498 94.2817 155.236 78.7625 139.707ZM50.6071 193.197C36.9926 193.197 25.9074 182.112 25.9074 168.497C25.9074 162.481 28.062 156.964 31.6426 152.655L28.624 149.637C27.7601 148.773 27.7601 147.368 28.624 146.493C29.4879 145.619 30.8931 145.629 31.7675 146.493L34.786 149.512C38.5331 146.379 43.2481 144.318 48.39 143.881V141.841H46.35C44.5493 141.841 43.0608 140.352 43.0608 138.551V136.834C43.0608 135.012 44.5493 133.545 46.35 133.545H54.8851C56.6857 133.545 58.1742 135.012 58.1742 136.834V138.551C58.1742 140.352 56.6857 141.841 54.8851 141.841H52.8449V143.881C57.9972 144.328 62.7019 146.389 66.449 149.512L69.4675 146.493C70.3314 145.629 71.7366 145.629 72.6109 146.493C73.4748 147.357 73.4748 148.762 72.6109 149.637L69.5924 152.655C73.173 156.964 75.3276 162.47 75.3276 168.497C75.3276 182.112 64.2424 193.197 50.6279 193.197H50.6071Z" fill="#7DDACF"/>
<path d="M51.545 99.1234C24.2224 99.1234 1.99988 76.8906 1.99988 49.5783C1.99988 22.2661 24.2328 0.0332031 51.545 0.0332031C78.8573 0.0332031 101.09 22.2661 101.09 49.5783C101.09 76.8906 78.8573 99.1234 51.545 99.1234ZM51.545 3.33272C26.0439 3.33272 5.29946 24.0772 5.29946 49.5783C5.29946 75.0795 26.0439 95.8239 51.545 95.8239C77.0462 95.8239 97.7906 75.0795 97.7906 49.5783C97.7906 24.0772 77.0462 3.33272 51.545 3.33272Z" fill="white"/>
<path d="M83.8732 14.2242L68.5349 29.5625L71.5525 32.5801L86.8908 17.2418L83.8732 14.2242Z" fill="white"/>
<path d="M31.0763 67.0231L15.738 82.3613L18.7556 85.3789L34.0939 70.0407L31.0763 67.0231Z" fill="white"/>
<path d="M72.0173 67.0203L68.9998 70.0378L84.338 85.3761L87.3556 82.3585L72.0173 67.0203Z" fill="white"/>
<path d="M18.7673 13.7593L15.7498 16.7769L31.0807 32.1078L34.0983 29.0902L18.7673 13.7593Z" fill="white"/>
<path d="M63.641 50.9107C64.6402 49.9115 64.6402 48.2981 63.641 47.3093L61.5176 45.1963C60.5183 44.1971 58.905 44.1971 57.9162 45.1963L56.7712 46.3413L55.4494 45.0194C54.4501 44.0202 52.8368 44.0202 51.848 45.0194L50.703 46.1747L49.3811 44.8424C48.3819 43.8432 46.7685 43.8432 45.7797 44.8424L38.7539 51.8683C38.7018 51.9203 38.7018 52.0036 38.7539 52.066C39.6907 53.0028 41.2208 53.0028 42.1679 52.066L46.6957 47.5383C47.1849 47.0491 47.9759 47.0491 48.4652 47.5383L48.7982 47.8714C48.8607 47.9338 48.8607 48.0275 48.7982 48.0899L45.0199 51.8683C44.9679 51.9203 44.9679 52.0036 45.0199 52.066C45.9567 53.0028 47.4867 53.0028 48.4339 52.066L52.7743 47.7257C53.2635 47.2364 54.0546 47.2364 54.5438 47.7257L54.8768 48.0587C54.9289 48.1107 54.9289 48.194 54.8768 48.2565L51.2338 51.8995C51.1818 51.9515 51.1818 52.0348 51.2338 52.0973C52.1706 53.034 53.7007 53.034 54.6479 52.0973L58.8425 47.9026C59.3317 47.4134 60.1228 47.4134 60.612 47.9026L61.3302 48.6208C61.6112 48.9018 61.6112 49.3702 61.3302 49.6512L61.2157 49.7657C60.9347 50.0468 60.4663 50.0468 60.1853 49.7657L59.2589 48.8394C59.2069 48.7873 59.1236 48.7873 59.0611 48.8394L57.4582 50.4423C57.4062 50.4943 57.4062 50.5776 57.4582 50.6401L58.905 52.0868C59.9043 53.0861 61.5176 53.0861 62.5064 52.0868L63.6514 50.9419L63.641 50.9107Z" fill="white"/>
<path d="M51.5462 11.5764C30.5624 11.5764 13.5547 28.5841 13.5547 49.5679C13.5547 70.5517 30.5624 87.5594 51.5462 87.5594C72.53 87.5594 89.5377 70.5517 89.5377 49.5679C89.5377 28.5841 72.53 11.5764 51.5462 11.5764ZM53.0971 23.3069C59.1965 23.6608 64.7339 26.0964 69.0223 29.906L63.5369 35.3914C60.6745 32.9662 57.0628 31.3945 53.0971 31.0614V23.3069ZM50.0057 23.3069V31.0614C46.04 31.384 42.4282 32.9662 39.5659 35.3914L34.0805 29.906C38.3688 26.0964 43.9062 23.6608 50.0057 23.3069ZM31.8947 32.0918L37.38 37.5772C34.9548 40.4396 33.3831 44.0514 33.05 48.0171H25.2956C25.6495 41.9176 28.0851 36.3802 31.8947 32.0918ZM25.2956 51.1084H33.05C33.3727 55.0741 34.9548 58.6859 37.38 61.5483L31.8947 67.0336C28.0851 62.7453 25.6495 57.2079 25.2956 51.1084ZM50.0057 75.8185C43.9062 75.4646 38.3688 73.029 34.0805 69.2194L39.5659 63.7341C42.4282 66.1593 46.04 67.731 50.0057 68.0641V75.8185ZM35.5793 49.5575C35.5793 40.7414 42.7301 33.5907 51.5462 33.5907C60.3623 33.5907 67.513 40.7414 67.513 49.5575C67.513 58.3736 60.3623 65.5244 51.5462 65.5244C42.7301 65.5244 35.5793 58.3736 35.5793 49.5575ZM53.0971 75.8185V68.0641C57.0628 67.7414 60.6745 66.1593 63.5369 63.7341L69.0223 69.2194C64.7339 73.029 59.1965 75.4646 53.0971 75.8185ZM71.2081 67.0336L65.7228 61.5483C68.148 58.6859 69.7196 55.0741 70.0527 51.1084H77.8072C77.4533 57.2079 75.0176 62.7453 71.2081 67.0336ZM70.0527 48.0171C69.7301 44.0514 68.148 40.4396 65.7228 37.5772L71.2081 32.0918C75.0176 36.3802 77.4533 41.9176 77.8072 48.0171H70.0527Z" fill="white"/>
</g>
</svg>
