<svg width="100" height="1048" viewBox="0 0 100 1048" fill="none" xmlns="http://www.w3.org/2000/svg">
<g opacity="0.2">
<path d="M49.8769 1045.15C22.5542 1045.15 0.331787 1022.92 0.331787 995.608C0.331787 968.295 22.5646 946.062 49.8769 946.062C77.1891 946.062 99.422 968.295 99.422 995.608C99.422 1022.92 77.1891 1045.15 49.8769 1045.15ZM49.8769 949.362C24.3757 949.362 3.63131 970.106 3.63131 995.608C3.63131 1021.11 24.3757 1041.85 49.8769 1041.85C75.378 1041.85 96.1224 1021.11 96.1224 995.608C96.1224 970.106 75.378 949.362 49.8769 949.362Z" fill="#9DADF2"/>
<path d="M65.9512 964.673C65.7014 964.673 65.4516 964.621 65.2226 964.507C60.4242 962.133 55.2615 960.926 49.8803 960.926C44.499 960.926 39.3363 962.133 34.538 964.507C33.903 964.819 33.1432 964.694 32.6436 964.194L24.1293 955.68C23.765 955.316 23.5985 954.816 23.6609 954.306C23.7234 953.796 24.0148 953.349 24.452 953.088C32.1232 948.488 40.9185 946.062 49.8907 946.062C58.8629 946.062 67.6582 948.498 75.3294 953.088C75.7666 953.349 76.058 953.796 76.1205 954.306C76.1829 954.816 76.006 955.316 75.6521 955.68L67.1378 964.194C66.8151 964.507 66.3988 964.673 65.9616 964.673H65.9512ZM49.8803 957.626C55.3656 957.626 60.6532 958.771 65.6077 961.03L71.7697 954.868C65.0665 951.256 57.541 949.362 49.8803 949.362C42.2195 949.362 34.6941 951.256 27.991 954.868L34.1528 961.03C39.1074 958.771 44.3949 957.626 49.8803 957.626Z" fill="#9DADF2"/>
<path d="M49.8785 1045.15C40.9062 1045.15 32.1109 1042.72 24.4398 1038.13C24.0026 1037.87 23.7112 1037.42 23.6487 1036.91C23.5863 1036.4 23.7632 1035.9 24.1171 1035.54L32.6314 1027.02C33.131 1026.52 33.9012 1026.4 34.5258 1026.71C39.3241 1029.08 44.4868 1030.29 49.8681 1030.29C55.2493 1030.29 60.4121 1029.08 65.2105 1026.71C65.8454 1026.4 66.6052 1026.52 67.1048 1027.02L75.6191 1035.54C75.9834 1035.9 76.1499 1036.4 76.0874 1036.91C76.025 1037.42 75.7335 1037.87 75.2964 1038.13C67.6252 1042.73 58.83 1045.15 49.8577 1045.15H49.8785ZM27.9892 1036.35C34.6923 1039.96 42.2177 1041.85 49.8785 1041.85C57.5392 1041.85 65.0647 1039.96 71.7679 1036.35L65.6059 1030.19C60.6514 1032.44 55.3638 1033.59 49.8785 1033.59C44.3931 1033.59 39.1056 1032.44 34.1511 1030.19L27.9892 1036.35Z" fill="#9DADF2"/>
<path d="M90.9825 1021.85C90.5453 1021.85 90.129 1021.68 89.8167 1021.37L81.3024 1012.85C80.8028 1012.36 80.6779 1011.58 80.9902 1010.96C83.3634 1006.16 84.5708 1001 84.5708 995.618C84.5708 990.237 83.3634 985.074 80.9902 980.276C80.6779 979.641 80.8028 978.87 81.3024 978.381L89.8167 969.867C90.181 969.503 90.6806 969.336 91.1906 969.399C91.7007 969.461 92.1482 969.752 92.4084 970.19C97.0091 977.861 99.4343 986.656 99.4343 995.628C99.4343 1004.6 97.0091 1013.4 92.4084 1021.07C92.1482 1021.5 91.7007 1021.8 91.1906 1021.86C91.1178 1021.86 91.0553 1021.86 90.9825 1021.86V1021.85ZM84.4563 1011.33L90.6182 1017.5C94.23 1010.79 96.1243 1003.27 96.1243 995.608C96.1243 987.947 94.23 980.421 90.6182 973.718L84.4563 979.88C86.715 984.835 87.8599 990.122 87.8599 995.608C87.8599 1001.09 86.715 1006.38 84.4563 1011.33Z" fill="#9DADF2"/>
<path d="M8.77293 1021.85C8.70007 1021.85 8.63762 1021.85 8.57516 1021.84C8.06514 1021.77 7.61759 1021.48 7.35737 1021.05C2.75675 1013.38 0.331543 1004.58 0.331543 995.608C0.331543 986.635 2.75675 977.84 7.35737 970.169C7.61759 969.732 8.06514 969.44 8.57516 969.378C9.08519 969.315 9.58481 969.492 9.94911 969.846L18.4634 978.36C18.963 978.86 19.0879 979.63 18.7756 980.255C16.4024 985.053 15.195 990.216 15.195 995.597C15.195 1000.98 16.4024 1006.14 18.7756 1010.94C19.0879 1011.57 18.963 1012.34 18.4634 1012.83L9.94911 1021.35C9.63685 1021.66 9.22051 1021.84 8.78335 1021.84L8.77293 1021.85ZM9.13721 973.718C5.52541 980.421 3.63106 987.947 3.63106 995.608C3.63106 1003.27 5.52541 1010.79 9.13721 1017.5L15.2992 1011.34C13.0405 1006.38 11.8955 1001.09 11.8955 995.608C11.8955 990.122 13.0405 984.835 15.2992 979.88L9.13721 973.718Z" fill="#9DADF2"/>
<path d="M49.878 957.616C28.9358 957.616 11.8865 974.655 11.8865 995.608C11.8865 1016.56 28.9254 1033.6 49.878 1033.6C70.8306 1033.6 87.8695 1016.56 87.8695 995.608C87.8695 974.655 70.8306 957.616 49.878 957.616ZM71.2574 983.128C73.0581 986.209 74.151 989.571 74.5049 993.141C74.5153 993.287 74.4528 993.422 74.3279 993.495C71.6112 995.16 69.1756 997.2 67.0731 999.584C66.9794 999.698 66.8233 999.74 66.688 999.688L61.9937 998.158C61.8583 998.116 61.7647 998.002 61.7439 997.856C61.213 993.974 60.0056 990.258 58.1529 986.802C58.0904 986.677 58.1009 986.531 58.1841 986.417L61.0881 982.42C61.161 982.326 61.2754 982.264 61.3899 982.264C61.4212 982.264 61.442 982.264 61.4732 982.264C64.575 982.951 67.7601 983.18 70.9243 982.92C71.07 982.909 71.2053 982.982 71.2781 983.107L71.2574 983.128ZM59.1833 998.512C59.1937 998.616 59.1625 998.72 59.1 998.793C56.6332 1001.63 53.4898 1003.91 50.0237 1005.37C49.9301 1005.41 49.8364 1005.41 49.7427 1005.37C46.2766 1003.9 43.1332 1001.62 40.6664 998.793C40.6039 998.72 40.5727 998.616 40.5831 998.512C41.0619 994.744 42.2381 991.142 44.0596 987.812C44.1116 987.718 44.1949 987.656 44.299 987.635C46.1309 987.25 48.0044 987.052 49.8884 987.052C51.7724 987.052 53.6459 987.25 55.4778 987.635C55.5819 987.656 55.6652 987.718 55.7172 987.812C57.5387 991.142 58.7045 994.744 59.1937 998.512H59.1833ZM58.6213 972.678C58.6213 972.678 58.7462 972.573 58.8711 972.573C58.9127 972.573 58.9648 972.573 59.0168 972.605C62.8472 974.124 66.2716 976.622 68.9362 979.818C69.0715 979.974 69.0195 980.141 68.9882 980.203C68.9674 980.255 68.8738 980.422 68.6552 980.422C66.2925 980.453 63.9401 980.182 61.6606 979.641C61.5669 979.62 61.4837 979.558 61.4316 979.474C60.2138 977.465 59.2354 975.3 58.5276 973.052C58.4651 972.854 58.5796 972.719 58.6317 972.678H58.6213ZM44.6216 971.428C48.0669 970.689 51.6995 970.689 55.1448 971.428C55.2801 971.46 55.3946 971.564 55.4258 971.699C56.1648 974.79 57.3618 977.747 58.9751 980.484C59.048 980.609 59.0376 980.765 58.9544 980.89L56.0711 984.866C55.9879 984.981 55.8422 985.043 55.7069 985.012C51.8973 984.242 47.8692 984.242 44.0596 985.012C43.9243 985.043 43.7785 984.981 43.6953 984.866L40.8121 980.89C40.7288 980.775 40.7184 980.609 40.7913 980.484C42.4046 977.747 43.6016 974.79 44.3406 971.699C44.3718 971.564 44.4863 971.46 44.6216 971.428ZM30.8302 979.818C33.4948 976.612 36.9193 974.114 40.7497 972.605C40.8017 972.584 40.8537 972.573 40.8953 972.573C41.0306 972.573 41.1139 972.646 41.1451 972.678C41.1972 972.73 41.3117 972.854 41.2493 973.052C40.5415 975.311 39.563 977.465 38.3452 979.474C38.2932 979.558 38.2099 979.62 38.1162 979.641C35.8368 980.182 33.4844 980.453 31.1217 980.422C30.9031 980.422 30.8094 980.255 30.7886 980.203C30.7574 980.141 30.7053 979.974 30.8406 979.818H30.8302ZM28.5091 983.128C28.5715 983.013 28.6965 982.94 28.8318 982.94C28.8318 982.94 28.8525 982.94 28.863 982.94C32.0376 983.19 35.2226 982.972 38.314 982.285C38.4597 982.253 38.6054 982.306 38.6887 982.43L41.5928 986.427C41.676 986.542 41.6864 986.698 41.624 986.812C39.7712 990.268 38.5638 993.984 38.033 997.866C38.0121 998.002 37.9185 998.116 37.7832 998.168L33.0889 999.698C32.9535 999.74 32.7974 999.698 32.7037 999.594C30.6012 997.211 28.1656 995.171 25.449 993.505C25.3345 993.432 25.2616 993.297 25.272 993.151C25.6259 989.581 26.7188 986.209 28.5195 983.138L28.5091 983.128ZM29.6436 1008.77C29.5812 1008.97 29.4042 1009.01 29.3314 1009.02C29.2585 1009.02 29.0919 1009.02 28.9774 1008.86C26.7604 1005.37 25.449 1001.33 25.1887 997.19C25.1783 996.982 25.3136 996.878 25.3761 996.846C25.4385 996.815 25.6051 996.742 25.7716 996.867C27.6972 998.231 29.4459 999.834 30.9759 1001.61C31.0384 1001.69 31.0696 1001.78 31.0592 1001.88C30.8718 1004.23 30.393 1006.55 29.6332 1008.79L29.6436 1008.77ZM39.9273 1018.28C36.6798 1016.85 33.8175 1014.76 31.4235 1012.07C31.3298 1011.97 31.2986 1011.81 31.3506 1011.69C32.5684 1008.75 33.3387 1005.66 33.6405 1002.5C33.651 1002.35 33.755 1002.23 33.8903 1002.19L38.5326 1000.68C38.5326 1000.68 38.6055 1000.66 38.6471 1000.66C38.7512 1000.66 38.8449 1000.7 38.9177 1000.78C41.5199 1003.7 44.7778 1006.07 48.348 1007.64C48.4833 1007.7 48.5665 1007.83 48.5665 1007.97V1012.85C48.5665 1013 48.4833 1013.14 48.348 1013.19C45.4335 1014.45 42.7272 1016.14 40.302 1018.22C40.1979 1018.31 40.0418 1018.33 39.9169 1018.27L39.9273 1018.28ZM56.3001 1019.31C56.2897 1019.38 56.2377 1019.55 56.0295 1019.6C52.0118 1020.62 47.765 1020.62 43.7473 1019.6C43.5495 1019.55 43.4871 1019.38 43.4767 1019.31C43.4663 1019.24 43.4454 1019.07 43.6224 1018.93C45.5168 1017.53 47.5777 1016.35 49.7531 1015.45C49.8468 1015.4 49.9405 1015.4 50.0341 1015.45C52.1991 1016.35 54.2601 1017.53 56.1648 1018.93C56.3314 1019.06 56.3209 1019.24 56.3105 1019.31H56.3001ZM68.3637 1012.08C65.9698 1014.77 63.1074 1016.85 59.8599 1018.28C59.7246 1018.34 59.5789 1018.31 59.4748 1018.23C57.0496 1016.15 54.3537 1014.46 51.4289 1013.2C51.2936 1013.14 51.2103 1013.01 51.2103 1012.87V1007.98C51.2103 1007.84 51.2936 1007.7 51.4289 1007.65C54.999 1006.08 58.2673 1003.71 60.8591 1000.79C60.932 1000.71 61.0256 1000.67 61.1297 1000.67C61.1714 1000.67 61.2026 1000.67 61.2442 1000.69L65.8865 1002.2C66.0218 1002.24 66.1259 1002.36 66.1363 1002.51C66.4381 1005.67 67.2084 1008.75 68.4262 1011.7C68.4782 1011.82 68.4574 1011.98 68.3533 1012.08H68.3637ZM70.7994 1008.87C70.6849 1009.05 70.5079 1009.05 70.4455 1009.03C70.3726 1009.03 70.2061 1008.98 70.1332 1008.79C69.3838 1006.55 68.905 1004.23 68.7072 1001.88C68.7072 1001.79 68.728 1001.69 68.7905 1001.61C70.3205 999.834 72.0692 998.241 73.9948 996.867C74.0676 996.815 74.1405 996.794 74.203 996.794C74.2862 996.794 74.3487 996.826 74.3903 996.846C74.4528 996.878 74.5985 996.982 74.5777 997.19C74.3175 1001.33 73.006 1005.37 70.789 1008.86L70.7994 1008.87Z" fill="#9DADF2"/>
<path d="M99.1109 873.285C99.1109 900.608 76.878 922.841 49.5554 922.841C22.2327 922.841 -0.00012207 900.608 -0.00012207 873.285C-0.00012207 845.963 22.2327 823.73 49.5554 823.73C76.878 823.73 99.1109 845.963 99.1109 873.285ZM3.57003 873.285C3.57003 898.641 24.1999 919.271 49.5554 919.271C74.9108 919.271 95.5407 898.641 95.5407 873.285C95.5407 847.93 74.9108 827.3 49.5554 827.3C24.1999 827.3 3.57003 847.93 3.57003 873.285Z" fill="#478BF9"/>
<path d="M99.1135 752.149C99.1135 753.138 98.312 753.929 97.3336 753.929C96.3552 753.929 95.5537 753.128 95.5537 752.149C95.5537 726.794 74.9238 706.164 49.5684 706.164C24.213 706.164 3.58305 726.794 3.58305 752.149C3.58305 753.138 2.78156 753.929 1.80315 753.929C0.82474 753.929 0.0233154 753.128 0.0233154 752.149C0.0233154 724.827 22.2561 702.594 49.5788 702.594C76.9015 702.594 99.1343 724.827 99.1343 752.149H99.1135Z" fill="#478BF9"/>
<path d="M40.0118 864.532C40.0118 866.353 41.2505 867.935 43.02 868.372L46.3819 869.215V860.566H43.9879C41.8021 860.566 40.0223 862.346 40.0223 864.532H40.0118Z" fill="#478BF9"/>
<path d="M52.7292 886.005H55.1233C57.3091 886.005 59.089 884.225 59.089 882.039C59.089 880.217 57.8503 878.635 56.0808 878.198L52.7189 877.355V886.005H52.7292Z" fill="#478BF9"/>
<path d="M49.5562 832.962C27.3234 832.962 9.22278 851.052 9.22278 873.296C9.22278 895.539 27.313 913.629 49.5562 913.629C71.7995 913.629 89.8897 895.539 89.8897 873.296C89.8897 851.052 71.7995 832.962 49.5562 832.962ZM65.4607 866.926H59.1009V863.74C59.1009 861.992 57.675 860.555 55.9159 860.555H52.7309V870.798L57.6334 872.026C62.234 873.181 65.4502 877.293 65.4502 882.039C65.4502 887.732 60.8184 892.364 55.1249 892.364H52.7309V900.421H46.3712V892.364H43.1862C37.9194 892.364 33.6415 888.086 33.6415 882.82V879.635H40.0011V882.82C40.0011 884.568 41.4271 886.005 43.1862 886.005H46.3712V875.762L41.4687 874.534C36.8681 873.379 33.6519 869.267 33.6519 864.521C33.6519 858.828 38.2837 854.196 43.9772 854.196H46.3712V846.14H52.7309V854.196H55.9159C61.1827 854.196 65.4607 858.474 65.4607 863.74V866.926Z" fill="#478BF9"/>
<path d="M99.1729 751.39V870.985C99.1729 871.974 98.3715 872.765 97.3931 872.765C96.4146 872.765 95.6132 871.963 95.6132 870.985V751.39C95.6132 750.401 96.4146 749.61 97.3931 749.61C98.3715 749.61 99.1729 750.411 99.1729 751.39Z" fill="#478BF9"/>
<path d="M3.63774 751.129V870.725C3.63774 871.714 2.83625 872.505 1.85784 872.505C0.879427 872.505 0.0780029 871.703 0.0780029 870.725V751.129C0.0780029 750.141 0.879427 749.35 1.85784 749.35C2.83625 749.35 3.63774 750.151 3.63774 751.129Z" fill="#478BF9"/>
<path d="M49.7325 672C37.0339 672 24.3458 667.171 14.6762 657.501C-4.65264 638.172 -4.65264 606.728 14.6762 587.399C24.044 578.031 36.4927 572.879 49.7325 572.879C62.9722 572.879 75.421 578.031 84.7888 587.399C104.118 606.728 104.118 638.172 84.7888 657.501C75.1296 667.16 62.431 672 49.7325 672ZM17.2784 654.899C35.1708 672.791 64.2838 672.791 82.1762 654.899C100.069 637.006 100.069 607.893 82.1762 590.001C73.5058 581.33 61.9835 576.563 49.7221 576.563C37.4607 576.563 25.9383 581.341 17.2679 590.001C-0.624513 607.893 -0.624513 637.006 17.2679 654.899H17.2784Z" fill="#9DADF2"/>
<path d="M49.0769 640.993C49.2538 641.42 49.6701 641.669 50.1073 641.669C50.253 641.669 50.3987 641.638 50.5445 641.586C54.0418 640.118 57.2268 637.849 59.7457 635.018C60.1517 634.56 60.11 633.853 59.652 633.447C59.194 633.041 58.4862 633.082 58.0803 633.54C55.78 636.132 52.876 638.203 49.6805 639.536C49.1185 639.775 48.8478 640.431 49.0872 640.993H49.0769Z" fill="#9DADF2"/>
<path d="M68.6225 605.312L50.1368 597.922C49.8661 597.818 49.5747 597.818 49.3041 597.922L30.8183 605.312C30.3916 605.479 30.121 605.884 30.121 606.342V619.582C30.1418 631.802 37.865 642.846 49.3353 647.051C49.4602 647.092 49.5851 647.113 49.7204 647.113C49.8558 647.113 49.9807 647.092 50.1056 647.051C61.5759 642.835 69.299 631.802 69.3199 619.582V606.342C69.3199 605.884 69.0493 605.479 68.6225 605.312ZM67.0925 619.582C67.0716 630.699 60.0978 640.826 49.7308 644.813C39.3638 640.826 32.3796 630.699 32.3588 619.582V607.102L49.7308 600.16L67.0925 607.102V619.582Z" fill="#9DADF2"/>
<path d="M42.0083 607.05C41.7376 606.936 41.4358 606.936 41.1548 607.05L36.7519 608.809C36.3252 608.976 36.0546 609.382 36.0546 609.84V614.534C36.0546 615.148 36.5542 615.648 37.1683 615.648C37.7824 615.648 38.282 615.148 38.282 614.534V610.6L41.9771 609.122C42.2581 609.007 42.4663 608.799 42.5912 608.518C42.7056 608.247 42.7056 607.945 42.5912 607.664C42.4767 607.383 42.2685 607.175 41.9979 607.05H42.0083Z" fill="#9DADF2"/>
<path d="M77.8876 594.3C70.3726 586.774 60.3698 582.642 49.7322 582.642C39.0946 582.642 29.1023 586.785 21.5768 594.3C6.05756 609.819 6.05756 635.081 21.5768 650.611C29.3417 658.375 39.5317 662.247 49.7322 662.247C59.9326 662.247 70.1227 658.365 77.8876 650.611C93.4069 635.091 93.4069 609.829 77.8876 594.3ZM72.3814 619.582C72.4126 633.707 63.3883 646.062 49.9299 650.34C49.805 650.382 49.6697 650.382 49.5344 650.34C36.076 646.062 27.0518 633.707 27.083 619.582V603.959C27.083 603.699 27.2391 603.459 27.4889 603.355L49.4928 594.56C49.5657 594.529 49.6489 594.518 49.7322 594.518C49.8154 594.518 49.8988 594.529 49.9716 594.56L71.9755 603.366C72.2253 603.459 72.3814 603.699 72.3814 603.969V619.593V619.582Z" fill="#9DADF2"/>
<path d="M49.7325 545.39C22.4098 545.39 0.187378 523.157 0.187378 495.844C0.187378 468.532 22.4202 446.299 49.7325 446.299C77.0447 446.299 99.2776 468.532 99.2776 495.844C99.2776 523.157 77.0447 545.39 49.7325 545.39ZM49.7325 449.599C24.2313 449.599 3.4869 470.343 3.4869 495.844C3.4869 521.346 24.2313 542.09 49.7325 542.09C75.2336 542.09 95.9781 521.346 95.9781 495.844C95.9781 470.343 75.2336 449.599 49.7325 449.599Z" fill="#7DDACF"/>
<path d="M82.0647 460.491L66.7264 475.829L69.7441 478.847L85.0823 463.509L82.0647 460.491Z" fill="#7DDACF"/>
<path d="M29.2638 513.29L13.9255 528.628L16.9431 531.646L32.2814 516.308L29.2638 513.29Z" fill="#7DDACF"/>
<path d="M70.1932 513.298L67.1757 516.315L82.5139 531.653L85.5315 528.636L70.1932 513.298Z" fill="#7DDACF"/>
<path d="M16.9393 460.037L13.9218 463.054L29.2527 478.385L32.2703 475.368L16.9393 460.037Z" fill="#7DDACF"/>
<path d="M61.8166 497.177C62.8158 496.178 62.8158 494.564 61.8166 493.575L59.6932 491.462C58.694 490.463 57.0807 490.463 56.0919 491.462L54.9469 492.607L53.625 491.285C52.6258 490.286 51.0124 490.286 50.0236 491.285L48.8787 492.441L47.5568 491.109C46.5575 490.109 44.9442 490.109 43.9554 491.109L36.9295 498.134C36.8775 498.186 36.8775 498.27 36.9295 498.332C37.8663 499.269 39.3964 499.269 40.3436 498.332L44.8713 493.804C45.3605 493.315 46.1516 493.315 46.6408 493.804L46.9739 494.138C47.0363 494.2 47.0363 494.294 46.9739 494.356L43.1956 498.134C43.1435 498.186 43.1435 498.27 43.1956 498.332C44.1323 499.269 45.6624 499.269 46.6096 498.332L50.95 493.992C51.4392 493.503 52.2303 493.503 52.7195 493.992L53.0525 494.325C53.1045 494.377 53.1045 494.46 53.0525 494.523L49.4095 498.166C49.3574 498.218 49.3574 498.301 49.4095 498.363C50.3463 499.3 51.8764 499.3 52.8235 498.363L57.0182 494.169C57.5074 493.679 58.2985 493.679 58.7877 494.169L59.5059 494.887C59.7869 495.168 59.7869 495.636 59.5059 495.917L59.3914 496.032C59.1104 496.313 58.642 496.313 58.3609 496.032L57.4346 495.105C57.3825 495.053 57.2992 495.053 57.2368 495.105L55.6339 496.708C55.5818 496.76 55.5818 496.844 55.6339 496.906L57.0806 498.353C58.0799 499.352 59.6932 499.352 60.682 498.353L61.827 497.208L61.8166 497.177Z" fill="#7DDACF"/>
<path d="M49.7336 457.853C28.7498 457.853 11.7421 474.861 11.7421 495.845C11.7421 516.828 28.7498 533.836 49.7336 533.836C70.7174 533.836 87.7251 516.828 87.7251 495.845C87.7251 474.861 70.7174 457.853 49.7336 457.853ZM51.2845 469.584C57.384 469.937 62.9214 472.373 67.2097 476.183L61.7244 481.668C58.862 479.243 55.2502 477.671 51.2845 477.338V469.584ZM48.1931 469.584V477.338C44.2274 477.661 40.6157 479.243 37.7533 481.668L32.2679 476.183C36.5563 472.373 42.0937 469.937 48.1931 469.584ZM30.0821 478.368L35.5674 483.854C33.1422 486.716 31.5706 490.328 31.2375 494.294H23.483C23.8369 488.194 26.2726 482.657 30.0821 478.368ZM23.483 497.385H31.2375C31.5601 501.351 33.1422 504.963 35.5674 507.825L30.0821 513.31C26.2726 509.022 23.8369 503.485 23.483 497.385ZM48.1931 522.095C42.0937 521.741 36.5563 519.306 32.2679 515.496L37.7533 510.011C40.6157 512.436 44.2274 514.008 48.1931 514.341V522.095ZM33.7668 495.834C33.7668 487.018 40.9175 479.867 49.7336 479.867C58.5497 479.867 65.7005 487.018 65.7005 495.834C65.7005 504.65 58.5497 511.801 49.7336 511.801C40.9175 511.801 33.7668 504.65 33.7668 495.834ZM51.2845 522.095V514.341C55.2502 514.018 58.862 512.436 61.7244 510.011L67.2097 515.496C62.9214 519.306 57.384 521.741 51.2845 522.095ZM69.3955 513.31L63.9102 507.825C66.3354 504.963 67.9071 501.351 68.2402 497.385H75.9946C75.6407 503.485 73.2051 509.022 69.3955 513.31ZM68.2402 494.294C67.9175 490.328 66.3354 486.716 63.9102 483.854L69.3955 478.368C73.2051 482.657 75.6407 488.194 75.9946 494.294H68.2402Z" fill="#7DDACF"/>
<path d="M49.8769 421.932C22.5542 421.932 0.331787 399.7 0.331787 372.387C0.331787 345.075 22.5646 322.842 49.8769 322.842C77.1891 322.842 99.422 345.075 99.422 372.387C99.422 399.7 77.1891 421.932 49.8769 421.932ZM49.8769 326.142C24.3757 326.142 3.63131 346.886 3.63131 372.387C3.63131 397.889 24.3757 418.633 49.8769 418.633C75.378 418.633 96.1224 397.889 96.1224 372.387C96.1224 346.886 75.378 326.142 49.8769 326.142Z" fill="#9DADF2"/>
<path d="M65.9512 341.453C65.7014 341.453 65.4516 341.401 65.2226 341.286C60.4242 338.913 55.2615 337.706 49.8803 337.706C44.499 337.706 39.3363 338.913 34.538 341.286C33.903 341.599 33.1432 341.474 32.6436 340.974L24.1293 332.46C23.765 332.096 23.5985 331.596 23.6609 331.086C23.7234 330.576 24.0148 330.128 24.452 329.868C32.1232 325.267 40.9185 322.842 49.8907 322.842C58.8629 322.842 67.6582 325.278 75.3294 329.868C75.7666 330.128 76.058 330.576 76.1205 331.086C76.1829 331.596 76.006 332.096 75.6521 332.46L67.1378 340.974C66.8151 341.286 66.3988 341.453 65.9616 341.453H65.9512ZM49.8803 334.406C55.3656 334.406 60.6532 335.551 65.6077 337.81L71.7697 331.648C65.0665 328.036 57.541 326.142 49.8803 326.142C42.2195 326.142 34.6941 328.036 27.991 331.648L34.1528 337.81C39.1074 335.551 44.3949 334.406 49.8803 334.406Z" fill="#9DADF2"/>
<path d="M49.8785 421.932C40.9062 421.932 32.1109 419.497 24.4398 414.907C24.0026 414.646 23.7112 414.199 23.6487 413.689C23.5863 413.179 23.7632 412.679 24.1171 412.315L32.6314 403.801C33.131 403.301 33.9012 403.176 34.5258 403.488C39.3241 405.862 44.4868 407.069 49.8681 407.069C55.2493 407.069 60.4121 405.862 65.2105 403.488C65.8454 403.176 66.6052 403.301 67.1048 403.801L75.6191 412.315C75.9834 412.679 76.1499 413.179 76.0874 413.689C76.025 414.199 75.7335 414.646 75.2964 414.907C67.6252 419.507 58.83 421.932 49.8577 421.932H49.8785ZM27.9892 413.127C34.6923 416.739 42.2177 418.633 49.8785 418.633C57.5392 418.633 65.0647 416.739 71.7679 413.127L65.6059 406.965C60.6514 409.224 55.3638 410.368 49.8785 410.368C44.3931 410.368 39.1056 409.224 34.1511 406.965L27.9892 413.127Z" fill="#9DADF2"/>
<path d="M90.9825 398.628C90.5453 398.628 90.129 398.461 89.8167 398.149L81.3024 389.634C80.8028 389.135 80.6779 388.365 80.9902 387.74C83.3634 382.942 84.5708 377.779 84.5708 372.398C84.5708 367.016 83.3634 361.854 80.9902 357.055C80.6779 356.42 80.8028 355.65 81.3024 355.161L89.8167 346.647C90.181 346.282 90.6806 346.116 91.1906 346.178C91.7007 346.241 92.1482 346.532 92.4084 346.969C97.0091 354.641 99.4343 363.436 99.4343 372.408C99.4343 381.38 97.0091 390.176 92.4084 397.847C92.1482 398.284 91.7007 398.575 91.1906 398.638C91.1178 398.638 91.0553 398.638 90.9825 398.638V398.628ZM84.4563 388.115L90.6182 394.277C94.23 387.574 96.1243 380.048 96.1243 372.387C96.1243 364.727 94.23 357.201 90.6182 350.498L84.4563 356.66C86.715 361.614 87.8599 366.902 87.8599 372.387C87.8599 377.873 86.715 383.16 84.4563 388.115Z" fill="#9DADF2"/>
<path d="M8.77293 398.628C8.70007 398.628 8.63762 398.628 8.57516 398.617C8.06514 398.555 7.61759 398.263 7.35737 397.826C2.75675 390.155 0.331543 381.36 0.331543 372.387C0.331543 363.415 2.75675 354.62 7.35737 346.949C7.61759 346.512 8.06514 346.22 8.57516 346.158C9.08519 346.095 9.58481 346.272 9.94911 346.626L18.4634 355.14C18.963 355.64 19.0879 356.41 18.7756 357.035C16.4024 361.833 15.195 366.996 15.195 372.377C15.195 377.758 16.4024 382.921 18.7756 387.719C19.0879 388.354 18.963 389.124 18.4634 389.614L9.94911 398.128C9.63685 398.44 9.22051 398.617 8.78335 398.617L8.77293 398.628ZM9.13721 350.498C5.52541 357.201 3.63106 364.727 3.63106 372.387C3.63106 380.048 5.52541 387.574 9.13721 394.277L15.2992 388.115C13.0405 383.16 11.8955 377.873 11.8955 372.387C11.8955 366.902 13.0405 361.614 15.2992 356.66L9.13721 350.498Z" fill="#9DADF2"/>
<path d="M49.878 334.396C28.9358 334.396 11.8865 351.435 11.8865 372.387C11.8865 393.34 28.9254 410.379 49.878 410.379C70.8306 410.379 87.8695 393.34 87.8695 372.387C87.8695 351.435 70.8306 334.396 49.878 334.396ZM71.2574 359.907C73.0581 362.988 74.151 366.35 74.5049 369.92C74.5153 370.066 74.4528 370.201 74.3279 370.274C71.6112 371.94 69.1756 373.98 67.0731 376.363C66.9794 376.478 66.8233 376.519 66.688 376.467L61.9937 374.937C61.8583 374.896 61.7647 374.781 61.7439 374.636C61.213 370.753 60.0056 367.037 58.1529 363.582C58.0904 363.457 58.1009 363.311 58.1841 363.196L61.0881 359.2C61.161 359.106 61.2754 359.043 61.3899 359.043C61.4212 359.043 61.442 359.043 61.4732 359.043C64.575 359.73 67.7601 359.959 70.9243 359.699C71.07 359.689 71.2053 359.762 71.2781 359.886L71.2574 359.907ZM59.1833 375.291C59.1937 375.395 59.1625 375.499 59.1 375.572C56.6332 378.414 53.4898 380.693 50.0237 382.151C49.9301 382.192 49.8364 382.192 49.7427 382.151C46.2766 380.683 43.1332 378.403 40.6664 375.572C40.6039 375.499 40.5727 375.395 40.5831 375.291C41.0619 371.523 42.2381 367.922 44.0596 364.591C44.1116 364.498 44.1949 364.435 44.299 364.414C46.1309 364.029 48.0044 363.831 49.8884 363.831C51.7724 363.831 53.6459 364.029 55.4778 364.414C55.5819 364.435 55.6652 364.498 55.7172 364.591C57.5387 367.922 58.7045 371.523 59.1937 375.291H59.1833ZM58.6213 349.457C58.6213 349.457 58.7462 349.353 58.8711 349.353C58.9127 349.353 58.9648 349.353 59.0168 349.384C62.8472 350.904 66.2716 353.402 68.9362 356.597C69.0715 356.754 69.0195 356.92 68.9882 356.983C68.9674 357.035 68.8738 357.201 68.6552 357.201C66.2925 357.232 63.9401 356.962 61.6606 356.42C61.5669 356.4 61.4837 356.337 61.4316 356.254C60.2138 354.245 59.2354 352.08 58.5276 349.832C58.4651 349.634 58.5796 349.499 58.6317 349.457H58.6213ZM44.6216 348.208C48.0669 347.469 51.6995 347.469 55.1448 348.208C55.2801 348.239 55.3946 348.343 55.4258 348.479C56.1648 351.57 57.3618 354.526 58.9751 357.264C59.048 357.388 59.0376 357.545 58.9544 357.669L56.0711 361.646C55.9879 361.76 55.8422 361.823 55.7069 361.791C51.8973 361.021 47.8692 361.021 44.0596 361.791C43.9243 361.823 43.7785 361.76 43.6953 361.646L40.8121 357.669C40.7288 357.555 40.7184 357.388 40.7913 357.264C42.4046 354.526 43.6016 351.57 44.3406 348.479C44.3718 348.343 44.4863 348.239 44.6216 348.208ZM30.8302 356.597C33.4948 353.392 36.9193 350.893 40.7497 349.384C40.8017 349.363 40.8537 349.353 40.8953 349.353C41.0306 349.353 41.1139 349.426 41.1451 349.457C41.1972 349.509 41.3117 349.634 41.2493 349.832C40.5415 352.09 39.563 354.245 38.3452 356.254C38.2932 356.337 38.2099 356.4 38.1162 356.42C35.8368 356.962 33.4844 357.232 31.1217 357.201C30.9031 357.201 30.8094 357.035 30.7886 356.983C30.7574 356.92 30.7053 356.754 30.8406 356.597H30.8302ZM28.5091 359.907C28.5715 359.793 28.6965 359.72 28.8318 359.72C28.8318 359.72 28.8525 359.72 28.863 359.72C32.0376 359.97 35.2226 359.751 38.314 359.064C38.4597 359.033 38.6054 359.085 38.6887 359.21L41.5928 363.207C41.676 363.321 41.6864 363.477 41.624 363.592C39.7712 367.048 38.5638 370.764 38.033 374.646C38.0121 374.781 37.9185 374.896 37.7832 374.948L33.0889 376.478C32.9535 376.519 32.7974 376.478 32.7037 376.374C30.6012 373.99 28.1656 371.95 25.449 370.285C25.3345 370.212 25.2616 370.077 25.272 369.931C25.6259 366.361 26.7188 362.988 28.5195 359.918L28.5091 359.907ZM29.6436 385.554C29.5812 385.752 29.4042 385.794 29.3314 385.804C29.2585 385.804 29.0919 385.804 28.9774 385.637C26.7604 382.151 25.449 378.112 25.1887 373.969C25.1783 373.761 25.3136 373.657 25.3761 373.626C25.4385 373.595 25.6051 373.522 25.7716 373.647C27.6972 375.01 29.4459 376.613 30.9759 378.393C31.0384 378.466 31.0696 378.56 31.0592 378.664C30.8718 381.006 30.393 383.327 29.6332 385.565L29.6436 385.554ZM39.9273 395.057C36.6798 393.631 33.8175 391.539 31.4235 388.854C31.3298 388.75 31.2986 388.594 31.3506 388.469C32.5684 385.533 33.3387 382.442 33.6405 379.278C33.651 379.132 33.755 379.007 33.8903 378.966L38.5326 377.456C38.5326 377.456 38.6055 377.435 38.6471 377.435C38.7512 377.435 38.8449 377.477 38.9177 377.56C41.5199 380.475 44.7778 382.848 48.348 384.42C48.4833 384.482 48.5665 384.607 48.5665 384.753V389.634C48.5665 389.78 48.4833 389.915 48.348 389.967C45.4335 391.227 42.7272 392.924 40.302 394.995C40.1979 395.089 40.0418 395.109 39.9169 395.047L39.9273 395.057ZM56.3001 396.088C56.2897 396.161 56.2377 396.327 56.0295 396.379C52.0118 397.399 47.765 397.399 43.7473 396.379C43.5495 396.327 43.4871 396.161 43.4767 396.088C43.4663 396.015 43.4454 395.848 43.6224 395.713C45.5168 394.308 47.5777 393.132 49.7531 392.226C49.8468 392.184 49.9405 392.184 50.0341 392.226C52.1991 393.132 54.2601 394.308 56.1648 395.713C56.3314 395.838 56.3209 396.015 56.3105 396.088H56.3001ZM68.3637 388.864C65.9698 391.55 63.1074 393.631 59.8599 395.057C59.7246 395.12 59.5789 395.088 59.4748 395.005C57.0496 392.934 54.3537 391.237 51.4289 389.978C51.2936 389.915 51.2103 389.791 51.2103 389.645V384.763C51.2103 384.617 51.2936 384.482 51.4289 384.43C54.999 382.858 58.2673 380.485 60.8591 377.571C60.932 377.487 61.0256 377.446 61.1297 377.446C61.1714 377.446 61.2026 377.446 61.2442 377.467L65.8865 378.976C66.0218 379.018 66.1259 379.142 66.1363 379.288C66.4381 382.452 67.2084 385.533 68.4262 388.479C68.4782 388.604 68.4574 388.76 68.3533 388.864H68.3637ZM70.7994 385.648C70.6849 385.825 70.5079 385.825 70.4455 385.814C70.3726 385.814 70.2061 385.762 70.1332 385.565C69.3838 383.327 68.905 381.006 68.7072 378.664C68.7072 378.57 68.728 378.466 68.7905 378.393C70.3205 376.613 72.0692 375.021 73.9948 373.647C74.0676 373.595 74.1405 373.574 74.203 373.574C74.2862 373.574 74.3487 373.605 74.3903 373.626C74.4528 373.657 74.5985 373.761 74.5777 373.969C74.3175 378.112 73.006 382.151 70.789 385.637L70.7994 385.648Z" fill="#9DADF2"/>
<path d="M99.1109 250.065C99.1109 277.388 76.878 299.621 49.5554 299.621C22.2327 299.621 -0.00012207 277.388 -0.00012207 250.065C-0.00012207 222.743 22.2327 200.51 49.5554 200.51C76.878 200.51 99.1109 222.743 99.1109 250.065ZM3.57003 250.065C3.57003 275.421 24.1999 296.051 49.5554 296.051C74.9108 296.051 95.5407 275.421 95.5407 250.065C95.5407 224.71 74.9108 204.08 49.5554 204.08C24.1999 204.08 3.57003 224.71 3.57003 250.065Z" fill="#478BF9"/>
<path d="M99.1135 128.93C99.1135 129.918 98.312 130.709 97.3336 130.709C96.3552 130.709 95.5537 129.908 95.5537 128.93C95.5537 103.574 74.9238 82.9442 49.5684 82.9442C24.213 82.9442 3.58305 103.574 3.58305 128.93C3.58305 129.918 2.78156 130.709 1.80315 130.709C0.82474 130.709 0.0233154 129.908 0.0233154 128.93C0.0233154 101.607 22.2561 79.374 49.5788 79.374C76.9015 79.374 99.1343 101.607 99.1343 128.93H99.1135Z" fill="#478BF9"/>
<path d="M40.0118 241.312C40.0118 243.133 41.2505 244.715 43.02 245.152L46.3819 245.996V237.346H43.9879C41.8021 237.346 40.0223 239.126 40.0223 241.312H40.0118Z" fill="#478BF9"/>
<path d="M52.7292 262.785H55.1233C57.3091 262.785 59.089 261.005 59.089 258.819C59.089 256.997 57.8503 255.415 56.0808 254.978L52.7189 254.135V262.785H52.7292Z" fill="#478BF9"/>
<path d="M49.5562 209.742C27.3234 209.742 9.22278 227.832 9.22278 250.076C9.22278 272.319 27.313 290.409 49.5562 290.409C71.7995 290.409 89.8897 272.319 89.8897 250.076C89.8897 227.832 71.7995 209.742 49.5562 209.742ZM65.4607 243.706H59.1009V240.521C59.1009 238.772 57.675 237.335 55.9159 237.335H52.7309V247.578L57.6334 248.806C62.234 249.961 65.4502 254.073 65.4502 258.819C65.4502 264.512 60.8184 269.144 55.1249 269.144H52.7309V277.201H46.3712V269.144H43.1862C37.9194 269.144 33.6415 264.866 33.6415 259.6V256.415H40.0011V259.6C40.0011 261.348 41.4271 262.785 43.1862 262.785H46.3712V252.542L41.4687 251.314C36.8681 250.159 33.6519 246.048 33.6519 241.301C33.6519 235.608 38.2837 230.976 43.9772 230.976H46.3712V222.92H52.7309V230.976H55.9159C61.1827 230.976 65.4607 235.254 65.4607 240.521V243.706Z" fill="#478BF9"/>
<path d="M99.1729 128.17V247.765C99.1729 248.754 98.3715 249.545 97.3931 249.545C96.4146 249.545 95.6132 248.743 95.6132 247.765V128.17C95.6132 127.181 96.4146 126.39 97.3931 126.39C98.3715 126.39 99.1729 127.191 99.1729 128.17Z" fill="#478BF9"/>
<path d="M3.63774 127.909V247.505C3.63774 248.494 2.83625 249.285 1.85784 249.285C0.879427 249.285 0.0780029 248.483 0.0780029 247.505V127.909C0.0780029 126.921 0.879427 126.13 1.85784 126.13C2.83625 126.13 3.63774 126.931 3.63774 127.909Z" fill="#478BF9"/>
<path d="M49.7325 60.1214C37.0339 60.1214 24.3458 55.2919 14.6762 45.6223C-4.65264 26.2934 -4.65264 -5.1511 14.6762 -24.4799C24.044 -33.8477 36.4927 -39 49.7325 -39C62.9722 -39 75.421 -33.8477 84.7888 -24.4799C104.118 -5.1511 104.118 26.2934 84.7888 45.6223C75.1296 55.2815 62.431 60.1214 49.7325 60.1214ZM17.2784 43.0201C35.1708 60.9126 64.2838 60.9126 82.1762 43.0201C100.069 25.1277 100.069 -3.98533 82.1762 -21.8778C73.5058 -30.5482 61.9835 -35.3153 49.7221 -35.3153C37.4607 -35.3153 25.9383 -30.5378 17.2679 -21.8778C-0.624513 -3.98533 -0.624513 25.1277 17.2679 43.0201H17.2784Z" fill="#9DADF2"/>
<path d="M49.0769 29.1142C49.2538 29.541 49.6701 29.7907 50.1073 29.7907C50.253 29.7907 50.3987 29.7595 50.5445 29.7074C54.0418 28.2398 57.2268 25.9707 59.7457 23.1395C60.1517 22.6816 60.11 21.9739 59.652 21.5679C59.194 21.162 58.4862 21.2036 58.0803 21.6616C55.78 24.2533 52.876 26.3247 49.6805 27.657C49.1185 27.8964 48.8478 28.5521 49.0872 29.1142H49.0769Z" fill="#9DADF2"/>
<path d="M68.6225 -6.56643L50.1368 -13.9566C49.8661 -14.0607 49.5747 -14.0607 49.3041 -13.9566L30.8183 -6.56643C30.3916 -6.3999 30.121 -5.99397 30.121 -5.53599V7.70377C30.1418 19.9235 37.865 30.9671 49.3353 35.1722C49.4602 35.2138 49.5851 35.2347 49.7204 35.2347C49.8558 35.2347 49.9807 35.2138 50.1056 35.1722C61.5759 30.9567 69.299 19.9235 69.3199 7.70377V-5.53599C69.3199 -5.99397 69.0493 -6.3999 68.6225 -6.56643ZM67.0925 7.70377C67.0716 18.8202 60.0978 28.9478 49.7308 32.9343C39.3638 28.9478 32.3796 18.8202 32.3588 7.70377V-4.77618L49.7308 -11.7187L67.0925 -4.77618V7.70377Z" fill="#9DADF2"/>
<path d="M42.0083 -4.82844C41.7376 -4.94293 41.4358 -4.94293 41.1548 -4.82844L36.7519 -3.06931C36.3252 -2.90277 36.0546 -2.49684 36.0546 -2.03886V2.65544C36.0546 3.26955 36.5542 3.76911 37.1683 3.76911C37.7824 3.76911 38.282 3.26955 38.282 2.65544V-1.27905L41.9771 -2.757C42.2581 -2.87149 42.4663 -3.07975 42.5912 -3.36078C42.7056 -3.63141 42.7056 -3.9332 42.5912 -4.21423C42.4767 -4.49527 42.2685 -4.70353 41.9979 -4.82844H42.0083Z" fill="#9DADF2"/>
<path d="M77.8876 -17.5789C70.3726 -25.1043 60.3698 -29.2366 49.7322 -29.2366C39.0946 -29.2366 29.1023 -25.0939 21.5768 -17.5789C6.05756 -2.05961 6.05756 23.2022 21.5768 38.7319C29.3417 46.4967 39.5317 50.3686 49.7322 50.3686C59.9326 50.3686 70.1227 46.4863 77.8876 38.7319C93.4069 23.2126 93.4069 -2.0492 77.8876 -17.5789ZM72.3814 7.70366C72.4126 21.8282 63.3883 34.1833 49.9299 38.4612C49.805 38.5029 49.6697 38.5029 49.5344 38.4612C36.076 34.1833 27.0518 21.8282 27.083 7.70366V-7.91971C27.083 -8.17992 27.2391 -8.41928 27.4889 -8.52336L49.4928 -17.3187C49.5657 -17.3499 49.6489 -17.3603 49.7322 -17.3603C49.8154 -17.3603 49.8988 -17.3499 49.9716 -17.3187L71.9755 -8.51294C72.2253 -8.41927 72.3814 -8.17991 72.3814 -7.90929V7.71408V7.70366Z" fill="#9DADF2"/>
</g>
</svg>
