<svg width="101" height="589" viewBox="0 0 101 589" fill="none" xmlns="http://www.w3.org/2000/svg">
<g opacity="0.6">
<path d="M1.33594 417.428C1.33594 390.105 23.5688 367.873 50.8915 367.873C78.2142 367.873 100.447 390.105 100.447 417.428C100.447 444.751 78.2142 466.984 50.8915 466.984C23.5688 466.984 1.33594 444.751 1.33594 417.428ZM96.8768 417.428C96.8768 392.073 76.2469 371.443 50.8915 371.443C25.5361 371.443 4.90616 392.073 4.90616 417.428C4.90616 442.783 25.5361 463.413 50.8915 463.413C76.2469 463.413 96.8768 442.783 96.8768 417.428Z" fill="#478BF9"/>
<path d="M1.33327 538.574C1.33327 537.585 2.13476 536.794 3.11317 536.794C4.09159 536.794 4.89307 537.596 4.89307 538.574C4.89307 563.93 25.523 584.559 50.8784 584.559C76.2339 584.559 96.8638 563.93 96.8638 538.574C96.8638 537.585 97.6652 536.794 98.6437 536.794C99.6221 536.794 100.423 537.596 100.423 538.574C100.423 565.897 78.1907 588.13 50.868 588.13C23.5453 588.13 1.3125 565.897 1.3125 538.574H1.33327Z" fill="#478BF9"/>
<path d="M98.9324 416.231H77.2305V420.509H98.9324V416.231Z" fill="#478BF9"/>
<path d="M24.2099 416.231H2.50781V420.509H24.2099V416.231Z" fill="#478BF9"/>
<path d="M53.1998 445.209H48.9219V466.911H53.1998V445.209Z" fill="#478BF9"/>
<path d="M53.1998 369.829H48.9219V391.531H53.1998V369.829Z" fill="#478BF9"/>
<path d="M76.575 391.219C61.7322 376.376 37.657 376.376 22.8039 391.219C7.9612 406.062 7.9612 430.137 22.8039 444.99C37.6466 459.833 61.7218 459.833 76.575 444.99C91.4177 430.147 91.4177 406.072 76.575 391.219ZM57.0379 394.435C61.3679 395.778 65.2503 398.286 68.2688 401.7L68.8517 402.356L67.9982 402.554C65.7396 403.085 63.3248 403.522 60.8267 403.845L60.3791 403.907L60.2542 403.47C59.8379 402.044 59.3486 400.67 58.7866 399.4C58.0892 397.808 57.3086 396.413 56.455 395.237L55.5182 393.956L57.0379 394.425V394.435ZM39.6659 416.918L39.6867 416.377C39.7908 413.087 40.1551 409.944 40.7796 407.051L40.8733 406.593L41.3417 406.634C46.8166 407.113 52.6663 407.092 58.11 406.582L58.5784 406.54L58.6825 406.998C59.3174 409.923 59.6817 413.077 59.7754 416.377V416.918H39.6763H39.6659ZM59.7754 419.333V419.874C59.6609 423.173 59.2966 426.327 58.6617 429.252L58.5576 429.71L58.0892 429.668C52.6455 429.158 46.7959 429.148 41.3209 429.616L40.8525 429.658L40.7588 429.2C40.1343 426.306 39.77 423.173 39.6659 419.874L39.6451 419.333H59.7546H59.7754ZM49.7207 393.53C52.7496 393.53 55.8305 397.37 57.7561 403.564L57.9539 404.188L57.2981 404.24C54.7376 404.459 52.0938 404.573 49.4396 404.573C46.9728 404.573 44.5163 404.48 42.1223 404.282L41.4666 404.23L41.6644 403.595C43.5899 397.381 46.6814 393.519 49.7207 393.519V393.53ZM31.0684 401.815C34.1077 398.349 38.0214 395.799 42.4034 394.446L43.9335 393.977L42.9863 395.268C42.1328 396.434 41.3417 397.839 40.6547 399.421C40.1031 400.67 39.6035 402.065 39.1663 403.564L39.0414 403.99L38.5939 403.938C36.075 403.626 33.6393 403.21 31.3494 402.679L30.4855 402.481L31.0684 401.815ZM24.9898 416.356C25.2812 412.296 26.5823 408.341 28.7577 404.896L28.9659 404.573L29.3406 404.667C32.0052 405.343 34.8779 405.885 37.8964 406.27L38.4585 406.343L38.344 406.905C37.7195 409.923 37.3656 413.119 37.2719 416.408V416.918H24.9585L25.0002 416.356H24.9898ZM28.9659 431.677L28.7577 431.355C26.5823 427.92 25.2812 423.954 24.9898 419.895L24.9481 419.333H37.2511V419.843C37.3552 423.132 37.7195 426.338 38.3336 429.346L38.4481 429.908L37.886 429.981C34.8779 430.366 31.9948 430.907 29.3301 431.584L28.9554 431.677H28.9659ZM42.4034 441.815C38.0214 440.462 34.1077 437.912 31.0684 434.446L30.4855 433.78L31.3494 433.582C33.6393 433.062 36.075 432.635 38.5939 432.323L39.0414 432.271L39.1663 432.697C39.6035 434.196 40.1031 435.591 40.6547 436.84C41.3521 438.433 42.1328 439.827 42.9863 441.003L43.9335 442.294L42.4034 441.826V441.815ZM49.7207 442.721C46.6814 442.721 43.5899 438.859 41.6644 432.645L41.4666 432.01L42.1223 431.958C47.0873 431.563 52.3749 431.573 57.2981 432L57.9539 432.052L57.7561 432.677C55.8201 438.859 52.7392 442.711 49.7207 442.711V442.721ZM68.2688 434.55C65.2503 437.964 61.3575 440.473 57.0379 441.815L55.5182 442.284L56.455 441.003C57.3086 439.838 58.0892 438.433 58.7866 436.84C59.3382 435.56 59.8379 434.196 60.2542 432.77L60.3791 432.333L60.8267 432.396C63.3248 432.718 65.7396 433.155 67.9982 433.686L68.8517 433.894L68.2688 434.55ZM74.4412 419.895C74.1498 423.996 72.8279 428.003 70.6004 431.48L70.3922 431.802L70.0175 431.709C67.3841 431.011 64.5217 430.46 61.524 430.054L60.962 429.981L61.0765 429.429C61.701 426.411 62.0653 423.194 62.159 419.853V419.343H74.4724L74.4308 419.905L74.4412 419.895ZM62.1798 416.918V416.408C62.0757 413.067 61.7114 409.84 61.0869 406.832L60.9724 406.28L61.5345 406.207C64.5322 405.801 67.3841 405.25 70.0279 404.552L70.4026 404.459L70.6108 404.781C72.8382 408.258 74.1705 412.255 74.4516 416.366L74.4932 416.928H62.1902L62.1798 416.918Z" fill="#478BF9"/>
<path d="M1.27368 539.324V419.728C1.27368 418.74 2.07517 417.948 3.05358 417.948C4.03199 417.948 4.83348 418.75 4.83348 419.728V539.324C4.83348 540.312 4.03199 541.103 3.05358 541.103C2.07517 541.103 1.27368 540.302 1.27368 539.324Z" fill="#478BF9"/>
<path d="M96.8242 539.594V419.999C96.8242 419.01 97.6256 418.219 98.6041 418.219C99.5825 418.219 100.384 419.021 100.384 419.999V539.594C100.384 540.583 99.5825 541.374 98.6041 541.374C97.6256 541.374 96.8242 540.573 96.8242 539.594Z" fill="#478BF9"/>
<path d="M14.6173 330.419C-4.87243 310.929 -4.87243 279.22 14.6173 259.73C34.107 240.241 65.8157 240.241 85.3054 259.73C104.795 279.22 104.795 310.929 85.3054 330.419C65.8157 349.908 34.107 349.908 14.6173 330.419ZM82.9498 262.086C64.7588 243.895 35.164 243.895 16.9777 262.086C-1.21338 280.277 -1.21338 309.872 16.9777 328.058C35.1687 346.249 64.7635 346.249 82.9498 328.058C101.141 309.867 101.141 280.272 82.9498 262.086Z" fill="white"/>
<path d="M83.4893 284.472C83.3139 284.296 83.1717 284.074 83.0912 283.827C81.3612 278.708 78.5363 274.172 74.6971 270.333C70.8626 266.499 66.322 263.674 61.2031 261.939C60.5253 261.707 60.0703 261.076 60.0703 260.361V248.213C60.0703 247.701 60.3073 247.218 60.7102 246.9C61.1178 246.582 61.6439 246.473 62.1368 246.597C70.8863 248.786 78.8965 253.327 85.2951 259.73C91.6937 266.134 96.2344 274.139 98.4241 282.889C98.5474 283.386 98.4336 283.912 98.1208 284.32C97.8032 284.728 97.3198 284.96 96.8079 284.96H84.66C84.205 284.96 83.7879 284.775 83.4798 284.467L83.4893 284.472ZM77.0527 267.977C80.9677 271.892 83.9206 276.481 85.8449 281.628H94.6324C92.4237 274.272 88.4091 267.551 82.9442 262.086C77.4793 256.621 70.7584 252.607 63.4071 250.403V259.19C68.5544 261.11 73.1424 264.062 77.0574 267.982L77.0527 267.977Z" fill="white"/>
<path d="M14.6161 330.418C8.21749 324.02 3.67209 316.01 1.48234 307.26C1.35911 306.762 1.47287 306.236 1.78569 305.833C2.10325 305.426 2.58668 305.194 3.09857 305.194H15.2465C15.9622 305.194 16.5973 305.649 16.8248 306.326C18.5548 311.445 21.3797 315.981 25.2188 319.82C29.0533 323.655 33.594 326.48 38.7129 328.214C39.3906 328.442 39.8456 329.077 39.8456 329.793V341.941C39.8456 342.453 39.6086 342.936 39.2058 343.254C38.7981 343.571 38.272 343.68 37.7743 343.557C29.0248 341.367 21.0195 336.827 14.6161 330.428V330.418ZM5.28361 308.521C7.49231 315.877 11.5068 322.598 16.9717 328.063C22.4366 333.528 29.1576 337.542 36.5136 339.751V330.963C31.3663 329.044 26.7782 326.091 22.8632 322.176C18.9482 318.261 15.9954 313.673 14.071 308.526H5.28361V308.521Z" fill="white"/>
<path d="M60.5663 343.112C60.2535 342.799 60.0781 342.377 60.0781 341.931V329.783C60.0781 329.068 60.5331 328.433 61.2109 328.205C66.3298 326.475 70.8657 323.65 74.7049 319.811C78.5441 315.972 81.3642 311.436 83.0989 306.317C83.3264 305.639 83.9616 305.184 84.6773 305.184H96.8252C97.3371 305.184 97.8205 305.421 98.1381 305.824C98.4556 306.227 98.5647 306.758 98.4414 307.251C96.2469 316 91.7063 324.006 85.3076 330.409C78.909 336.812 70.8989 341.353 62.1494 343.543C61.6517 343.666 61.1256 343.552 60.7227 343.24C60.6706 343.192 60.6185 343.149 60.5711 343.102L60.5663 343.112ZM63.4102 330.959V339.746C70.7662 337.538 77.4871 333.523 82.952 328.058C88.4169 322.593 92.4267 315.872 94.6402 308.516H85.8527C83.9331 313.664 80.9803 318.247 77.0605 322.167C73.1455 326.082 68.5575 329.039 63.4102 330.959Z" fill="white"/>
<path d="M1.91913 284.472C1.87173 284.424 1.82435 284.372 1.78643 284.32C1.46887 283.917 1.35985 283.386 1.48309 282.889C3.67284 274.139 8.2135 266.129 14.6169 259.73C21.0202 253.332 29.0256 248.786 37.7751 246.597C38.2728 246.473 38.7989 246.587 39.2017 246.9C39.6046 247.217 39.8417 247.701 39.8417 248.213V260.361C39.8417 261.076 39.3866 261.712 38.7089 261.939C33.59 263.669 29.054 266.494 25.2148 270.333C21.3804 274.168 18.5555 278.708 16.8208 283.827C16.5933 284.505 15.9582 284.96 15.2425 284.96H3.0946C2.64907 284.96 2.22247 284.785 1.91439 284.476L1.91913 284.472ZM36.5096 250.403C29.1536 252.611 22.4326 256.626 16.9677 262.091C11.5028 267.556 7.49305 274.277 5.27961 281.633H14.067C15.9866 276.485 18.9395 271.902 22.8592 267.982C26.7742 264.067 31.3623 261.114 36.5096 259.19V250.403Z" fill="white"/>
<path d="M77.0566 267.977C62.1171 253.038 37.8023 253.033 22.8627 267.977C7.91839 282.922 7.92313 307.232 22.8627 322.171C37.8023 337.111 62.1123 337.116 77.0566 322.171C92.001 307.227 91.9962 282.917 77.0566 267.977Z" fill="white"/>
<path d="M63.7833 308.752L36.2557 308.935C35.0961 308.942 34.1622 309.889 34.1699 311.048L34.1764 312.029C34.1841 313.189 35.1304 314.123 36.29 314.115L63.8177 313.932C64.9773 313.925 65.9111 312.978 65.9034 311.819L65.8969 310.838C65.8892 309.678 64.9429 308.744 63.7833 308.752Z" fill="#110A1D"/>
<path d="M40.0062 292.136C39.7076 292.136 39.4043 292.069 39.1294 291.937L36.9823 290.899C36.0486 290.444 35.622 289.339 36.0106 288.377L36.9965 285.922C37.2999 285.173 38.0156 284.685 38.8213 284.68C39.1673 284.68 39.5086 284.765 39.8119 284.941L42.3714 286.401C42.8501 286.671 43.1961 287.14 43.3193 287.68C43.4425 288.221 43.3335 288.79 43.0207 289.245L41.6178 291.278C41.2528 291.809 40.6461 292.131 40.0015 292.131L40.0062 292.136Z" fill="#110A1D"/>
<path d="M59.8211 292.003C59.1765 292.003 58.5651 291.695 58.1954 291.169L56.8066 289.212C56.4843 288.761 56.3706 288.193 56.4844 287.652C56.5981 287.112 56.9394 286.638 57.4181 286.358L60.0581 284.808C60.3567 284.633 60.698 284.538 61.044 284.533C61.8497 284.529 62.5749 285.007 62.8877 285.752L63.8831 288.136C64.2812 289.093 63.8689 290.207 62.9446 290.671L60.698 291.795C60.4278 291.927 60.1244 292.003 59.8258 292.003H59.8211Z" fill="#110A1D"/>
<path d="M37.8437 307.094C36.635 307.104 35.5497 306.346 35.1373 305.208L30.5445 292.567C30.2507 292.709 29.9378 292.818 29.6203 292.899C29.2458 292.994 28.8666 293.041 28.4827 293.041C28.26 293.041 28.0419 293.032 27.8286 293.003C25.4351 292.7 23.6198 290.648 23.6056 288.23C23.5866 285.557 25.7479 283.367 28.4211 283.348C31.0943 283.329 33.2841 285.491 33.2983 288.164C33.2983 288.78 33.194 289.373 32.976 289.927C32.8575 290.23 32.7106 290.52 32.54 290.794L41.2752 295.022L47.9583 285.339C47.6786 285.221 47.4084 285.074 47.1525 284.898C46.669 284.571 46.2472 284.164 45.9059 283.685C45.3277 282.87 45.0149 281.908 45.0101 280.912C44.9912 278.239 47.1525 276.049 49.8257 276.03C49.9442 276.03 50.0674 276.03 50.1859 276.04C52.5795 276.201 54.5133 278.12 54.6886 280.514C54.7692 281.647 54.4706 282.732 53.826 283.656C53.4848 284.14 53.0676 284.552 52.5889 284.879C52.3377 285.055 52.0676 285.202 51.7879 285.32L58.5894 294.904L67.1825 290.605C67.0214 290.297 66.8934 289.975 66.7987 289.638C66.6849 289.23 66.6233 288.804 66.6233 288.372C66.6233 288.178 66.6327 287.984 66.6517 287.794C66.9266 285.358 68.9836 283.51 71.4341 283.495C74.1073 283.476 76.297 285.638 76.3112 288.311C76.3302 290.861 74.349 293.003 71.8038 293.179L71.5004 293.188C71.0075 293.188 70.5241 293.122 70.0548 292.979C69.7515 292.885 69.4576 292.766 69.1827 292.615L64.8696 305.009C64.4762 306.151 63.3955 306.919 62.1869 306.928L37.8437 307.09V307.094Z" fill="#110A1D"/>
<path d="M50.4045 217.374C37.7059 217.374 25.0178 212.544 15.3482 202.875C-3.98065 183.546 -3.98065 152.101 15.3482 132.773C24.716 123.405 37.1647 118.252 50.4045 118.252C63.6443 118.252 76.093 123.405 85.4607 132.773C104.79 152.101 104.79 183.546 85.4607 202.875C75.8015 212.534 63.103 217.374 50.4045 217.374ZM17.9503 200.272C35.8428 218.165 64.9557 218.165 82.8482 200.272C100.741 182.38 100.741 153.267 82.8482 135.375C74.1778 126.704 62.6554 121.937 50.394 121.937C38.1327 121.937 26.6103 126.715 17.9399 135.375C0.0474844 153.267 0.0474844 182.38 17.9399 200.272H17.9503Z" fill="#7DDACF"/>
<path d="M52.239 157.389L43.0586 170.254H48.5647V179.435L57.7452 166.58H52.239V157.389Z" fill="#7DDACF"/>
<path d="M50.3948 150.238C40.3401 150.238 32.1797 158.399 32.1797 168.453C32.1797 178.508 40.3401 186.648 50.3948 186.648C60.4495 186.648 68.6099 178.487 68.6099 168.453C68.6099 158.419 60.4495 150.238 50.3948 150.238ZM50.3948 184.399C41.5683 184.399 34.4072 177.238 34.4072 168.412C34.4072 159.585 41.5683 152.424 50.3948 152.424C59.2213 152.424 66.3825 159.585 66.3825 168.412C66.3825 177.238 59.2213 184.399 50.3948 184.399Z" fill="#7DDACF"/>
<path d="M78.5518 139.674C71.0367 132.148 61.034 128.016 50.3964 128.016C39.7587 128.016 29.7665 132.159 22.241 139.674C6.72174 155.193 6.72174 180.455 22.241 195.984C30.0059 203.749 40.1959 207.632 50.3964 207.632C60.5968 207.632 70.7869 203.749 78.5518 195.984C94.0711 180.465 94.0711 155.203 78.5518 139.674ZM50.3964 193.164C36.7819 193.164 25.6967 182.078 25.6967 168.464C25.6967 162.448 27.8513 156.931 31.4319 152.622L28.4133 149.603C27.5494 148.739 27.5494 147.334 28.4133 146.46C29.2772 145.586 30.6824 145.596 31.5568 146.46L34.5753 149.478C38.3224 146.345 43.0375 144.285 48.1793 143.847V141.807H46.1393C44.3386 141.807 42.8501 140.319 42.8501 138.518V136.801C42.8501 134.979 44.3386 133.512 46.1393 133.512H54.6744C56.4751 133.512 57.9635 134.979 57.9635 136.801V138.518C57.9635 140.319 56.4751 141.807 54.6744 141.807H52.6342V143.847C57.7865 144.295 62.4912 146.356 66.2383 149.478L69.2568 146.46C70.1207 145.596 71.5259 145.596 72.4002 146.46C73.2641 147.324 73.2641 148.729 72.4002 149.603L69.3817 152.622C72.9623 156.931 75.1169 162.437 75.1169 168.464C75.1169 182.078 64.0317 193.164 50.4172 193.164H50.3964Z" fill="#7DDACF"/>
<path d="M51.3342 99.0902C24.0115 99.0902 1.78906 76.8574 1.78906 49.5451C1.78906 22.2329 24.0219 0 51.3342 0C78.6465 0 100.879 22.2329 100.879 49.5451C100.879 76.8574 78.6465 99.0902 51.3342 99.0902ZM51.3342 3.29952C25.8331 3.29952 5.08865 24.044 5.08865 49.5451C5.08865 75.0463 25.8331 95.7906 51.3342 95.7906C76.8354 95.7906 97.5798 75.0463 97.5798 49.5451C97.5798 24.044 76.8354 3.29952 51.3342 3.29952Z" fill="white"/>
<path d="M83.6623 14.191L68.324 29.5293L71.3416 32.5469L86.6799 17.2086L83.6623 14.191Z" fill="white"/>
<path d="M30.8654 66.9899L15.5271 82.3281L18.5447 85.3457L33.8829 70.0075L30.8654 66.9899Z" fill="white"/>
<path d="M71.8064 66.987L68.7888 70.0046L84.1271 85.3429L87.1447 82.3253L71.8064 66.987Z" fill="white"/>
<path d="M18.5564 13.7261L15.5388 16.7437L30.8697 32.0746L33.8873 29.057L18.5564 13.7261Z" fill="white"/>
<path d="M63.43 50.8775C64.4293 49.8783 64.4293 48.2649 63.43 47.2761L61.3066 45.1631C60.3074 44.1639 58.6941 44.1639 57.7053 45.1631L56.5603 46.3081L55.2384 44.9862C54.2392 43.987 52.6258 43.987 51.637 44.9862L50.4921 46.1415L49.1702 44.8092C48.1709 43.81 46.5576 43.81 45.5688 44.8092L38.5429 51.8351C38.4909 51.8871 38.4909 51.9704 38.5429 52.0328C39.4797 52.9696 41.0098 52.9696 41.957 52.0328L46.4847 47.5051C46.9739 47.0159 47.765 47.0159 48.2542 47.5051L48.5873 47.8382C48.6497 47.9006 48.6497 47.9943 48.5873 48.0567L44.809 51.8351C44.7569 51.8871 44.7569 51.9704 44.809 52.0328C45.7457 52.9696 47.2758 52.9696 48.223 52.0328L52.5634 47.6924C53.0526 47.2032 53.8437 47.2032 54.3329 47.6924L54.6659 48.0255C54.7179 48.0775 54.7179 48.1608 54.6659 48.2233L51.0229 51.8663C50.9708 51.9183 50.9708 52.0016 51.0229 52.0641C51.9597 53.0008 53.4898 53.0008 54.4369 52.0641L58.6316 47.8694C59.1208 47.3802 59.9119 47.3802 60.4011 47.8694L61.1193 48.5876C61.4003 48.8686 61.4003 49.337 61.1193 49.618L61.0048 49.7325C60.7238 50.0136 60.2554 50.0136 59.9743 49.7325L59.048 48.8061C58.9959 48.7541 58.9126 48.7541 58.8502 48.8061L57.2473 50.4091C57.1952 50.4611 57.1952 50.5444 57.2473 50.6069L58.6941 52.0536C59.6933 53.0529 61.3066 53.0529 62.2955 52.0536L63.4404 50.9087L63.43 50.8775Z" fill="white"/>
<path d="M51.3353 11.5432C30.3515 11.5432 13.3438 28.5509 13.3438 49.5347C13.3438 70.5185 30.3515 87.5262 51.3353 87.5262C72.3191 87.5262 89.3268 70.5185 89.3268 49.5347C89.3268 28.5509 72.3191 11.5432 51.3353 11.5432ZM52.8861 23.2737C58.9856 23.6276 64.523 26.0632 68.8113 29.8728L63.326 35.3582C60.4636 32.933 56.8518 31.3613 52.8861 31.0282V23.2737ZM49.7947 23.2737V31.0282C45.8291 31.3508 42.2173 32.933 39.3549 35.3582L33.8695 29.8728C38.1579 26.0632 43.6953 23.6276 49.7947 23.2737ZM31.6838 32.0586L37.1691 37.544C34.7439 40.4064 33.1722 44.0182 32.8391 47.9839H25.0847C25.4386 41.8844 27.8742 36.347 31.6838 32.0586ZM25.0847 51.0752H32.8391C33.1618 55.0409 34.7439 58.6527 37.1691 61.5151L31.6838 67.0004C27.8742 62.7121 25.4386 57.1747 25.0847 51.0752ZM49.7947 75.7853C43.6953 75.4314 38.1579 72.9958 33.8695 69.1862L39.3549 63.7009C42.2173 66.1261 45.8291 67.6978 49.7947 68.0309V75.7853ZM35.3684 49.5243C35.3684 40.7082 42.5192 33.5575 51.3353 33.5575C60.1514 33.5575 67.3021 40.7082 67.3021 49.5243C67.3021 58.3404 60.1514 65.4912 51.3353 65.4912C42.5192 65.4912 35.3684 58.3404 35.3684 49.5243ZM52.8861 75.7853V68.0309C56.8518 67.7082 60.4636 66.1261 63.326 63.7009L68.8113 69.1862C64.523 72.9958 58.9856 75.4314 52.8861 75.7853ZM70.9971 67.0004L65.5118 61.5151C67.937 58.6527 69.5087 55.0409 69.8418 51.0752H77.5962C77.2423 57.1747 74.8067 62.7121 70.9971 67.0004ZM69.8418 47.9839C69.5191 44.0182 67.937 40.4064 65.5118 37.544L70.9971 32.0586C74.8067 36.347 77.2423 41.8844 77.5962 47.9839H69.8418Z" fill="white"/>
</g>
</svg>
