<svg width="101" height="847" viewBox="0 0 101 847" fill="none" xmlns="http://www.w3.org/2000/svg">
<g opacity="0.4">
<path d="M15.0626 831.48C-4.42712 811.99 -4.42712 780.282 15.0626 760.792C34.5523 741.302 66.261 741.302 85.7507 760.792C105.24 780.282 105.24 811.99 85.7507 831.48C66.261 850.97 34.5523 850.97 15.0626 831.48ZM83.3951 763.147C65.2041 744.956 35.6093 744.956 17.423 763.147C-0.768065 781.339 -0.768065 810.933 17.423 829.12C35.614 847.311 65.2088 847.311 83.3951 829.12C101.586 810.929 101.586 781.334 83.3951 763.147Z" fill="white"/>
<path d="M83.9343 785.533C83.759 785.358 83.6168 785.135 83.5362 784.889C81.8062 779.77 78.9813 775.234 75.1421 771.395C71.3077 767.56 66.7671 764.735 61.6482 763.001C60.9704 762.768 60.5154 762.138 60.5154 761.422V749.274C60.5154 748.762 60.7524 748.279 61.1552 747.961C61.5628 747.644 62.089 747.535 62.5819 747.658C71.3314 749.848 79.3415 754.389 85.7402 760.792C92.1388 767.195 96.6795 775.201 98.8692 783.95C98.9924 784.448 98.8787 784.974 98.5659 785.382C98.2483 785.789 97.7648 786.021 97.2529 786.021H85.105C84.65 786.021 84.2329 785.837 83.9249 785.528L83.9343 785.533ZM77.4978 769.039C81.4128 772.954 84.3656 777.542 86.29 782.689H95.0774C92.8687 775.333 88.8542 768.612 83.3893 763.148C77.9244 757.683 71.2035 753.668 63.8522 751.464V760.252C68.9995 762.171 73.5875 765.124 77.5025 769.044L77.4978 769.039Z" fill="white"/>
<path d="M15.0612 831.48C8.66256 825.081 4.11716 817.071 1.92741 808.322C1.80418 807.824 1.91794 807.298 2.23076 806.895C2.54832 806.487 3.03175 806.255 3.54364 806.255H15.6915C16.4072 806.255 17.0424 806.71 17.2699 807.388C18.9999 812.507 21.8247 817.043 25.6639 820.882C29.4983 824.716 34.039 827.541 39.1579 829.276C39.8357 829.503 40.2907 830.139 40.2907 830.854V843.002C40.2907 843.514 40.0537 843.998 39.6508 844.315C39.2432 844.633 38.7171 844.742 38.2194 844.618C29.4699 842.429 21.4645 837.888 15.0612 831.489V831.48ZM5.72867 809.582C7.93738 816.938 11.9519 823.659 17.4168 829.124C22.8817 834.589 29.6026 838.604 36.9587 840.812V832.025C31.8114 830.105 27.2233 827.153 23.3083 823.238C19.3933 819.323 16.4404 814.734 14.5161 809.587H5.72867V809.582Z" fill="white"/>
<path d="M61.0114 844.173C60.6986 843.86 60.5232 843.438 60.5232 842.993V830.845C60.5232 830.129 60.9782 829.494 61.656 829.267C66.7749 827.537 71.3108 824.712 75.15 820.873C78.9891 817.033 81.8092 812.498 83.544 807.379C83.7715 806.701 84.4066 806.246 85.1223 806.246H97.2702C97.7821 806.246 98.2656 806.483 98.5832 806.886C98.9007 807.289 99.0097 807.819 98.8865 808.312C96.692 817.062 92.1513 825.067 85.7527 831.471C79.3541 837.874 71.344 842.415 62.5944 844.604C62.0968 844.728 61.5707 844.614 61.1678 844.301C61.1157 844.254 61.0635 844.211 61.0161 844.164L61.0114 844.173ZM63.8552 832.02V840.808C71.2113 838.599 77.9322 834.585 83.3971 829.12C88.862 823.655 92.8718 816.934 95.0852 809.578H86.2978C84.3782 814.725 81.4253 819.308 77.5056 823.228C73.5906 827.143 69.0026 830.101 63.8552 832.02Z" fill="white"/>
<path d="M2.3642 785.533C2.3168 785.486 2.26942 785.434 2.2315 785.382C1.91394 784.979 1.80492 784.448 1.92815 783.95C4.1179 775.201 8.65857 767.191 15.0619 760.792C21.4653 754.393 29.4706 749.848 38.2202 747.658C38.7178 747.535 39.2439 747.649 39.6468 747.961C40.0497 748.279 40.2867 748.762 40.2867 749.274V761.422C40.2867 762.138 39.8317 762.773 39.1539 763.001C34.035 764.731 29.4991 767.555 25.6599 771.395C21.8255 775.229 19.0006 779.77 17.2659 784.889C17.0384 785.566 16.4033 786.021 15.6876 786.021H3.53967C3.09414 786.021 2.66754 785.846 2.35946 785.538L2.3642 785.533ZM36.9547 751.464C29.5986 753.673 22.8777 757.687 17.4128 763.152C11.9479 768.617 7.93812 775.338 5.72467 782.694H14.5121C16.4317 777.547 19.3845 772.963 23.3043 769.044C27.2193 765.129 31.8074 762.176 36.9547 760.252V751.464Z" fill="white"/>
<path d="M77.502 769.039C62.5624 754.099 38.2476 754.095 23.308 769.039C8.3637 783.983 8.36844 808.293 23.308 823.233C38.2476 838.173 62.5576 838.177 77.502 823.233C92.4463 808.289 92.4415 783.979 77.502 769.039Z" fill="white"/>
<path d="M64.2247 809.814L36.6971 809.996C35.5375 810.004 34.6036 810.95 34.6113 812.11L34.6178 813.091C34.6255 814.25 35.5718 815.184 36.7314 815.176L64.2591 814.994C65.4187 814.986 66.3525 814.04 66.3449 812.88L66.3383 811.899C66.3307 810.74 65.3844 809.806 64.2247 809.814Z" fill="#110A1D"/>
<path d="M40.4476 793.197C40.149 793.197 39.8457 793.131 39.5708 792.998L37.4237 791.96C36.49 791.505 36.0634 790.401 36.452 789.439L37.4379 786.984C37.7413 786.235 38.457 785.746 39.2627 785.742C39.6087 785.742 39.95 785.827 40.2533 786.002L42.8128 787.462C43.2915 787.732 43.6375 788.202 43.7607 788.742C43.8839 789.282 43.7749 789.851 43.4621 790.306L42.0592 792.339C41.6942 792.87 41.0875 793.193 40.4429 793.193L40.4476 793.197Z" fill="#110A1D"/>
<path d="M60.2625 793.065C59.6179 793.065 59.0065 792.757 58.6368 792.231L57.248 790.273C56.9257 789.823 56.812 789.254 56.9258 788.714C57.0395 788.173 57.3808 787.699 57.8595 787.42L60.4995 785.87C60.7981 785.695 61.1394 785.6 61.4854 785.595C62.2911 785.59 63.0163 786.069 63.3291 786.813L64.3245 789.197C64.7226 790.155 64.3103 791.268 63.386 791.733L61.1394 792.856C60.8692 792.989 60.5658 793.065 60.2672 793.065H60.2625Z" fill="#110A1D"/>
<path d="M38.2851 808.156C37.0764 808.165 35.9911 807.407 35.5787 806.27L30.986 793.629C30.6921 793.771 30.3792 793.88 30.0617 793.96C29.6872 794.055 29.308 794.103 28.9241 794.103C28.7014 794.103 28.4833 794.093 28.27 794.065C25.8765 793.761 24.0612 791.709 24.047 789.292C24.028 786.619 26.1893 784.429 28.8625 784.41C31.5357 784.391 33.7255 786.552 33.7397 789.225C33.7397 789.842 33.6354 790.434 33.4174 790.989C33.2989 791.292 33.152 791.581 32.9814 791.856L41.7166 796.084L48.3997 786.401C48.12 786.282 47.8498 786.135 47.5939 785.96C47.1104 785.633 46.6886 785.225 46.3473 784.746C45.7691 783.931 45.4563 782.969 45.4515 781.974C45.4326 779.3 47.5939 777.111 50.2671 777.092C50.3856 777.092 50.5088 777.092 50.6273 777.101C53.0209 777.262 54.9547 779.182 55.1301 781.576C55.2106 782.708 54.9121 783.794 54.2674 784.718C53.9262 785.201 53.509 785.614 53.0303 785.941C52.7791 786.116 52.509 786.263 52.2293 786.382L59.0308 795.965L67.6239 791.666C67.4628 791.358 67.3349 791.036 67.2401 790.7C67.1263 790.292 67.0647 789.865 67.0647 789.434C67.0647 789.24 67.0741 789.045 67.0931 788.856C67.368 786.42 69.425 784.571 71.8755 784.557C74.5487 784.538 76.7384 786.699 76.7526 789.372C76.7716 791.922 74.7904 794.065 72.2452 794.24L71.9418 794.25C71.4489 794.25 70.9655 794.183 70.4962 794.041C70.1929 793.946 69.899 793.828 69.6241 793.676L65.311 806.07C64.9176 807.213 63.8369 807.981 62.6283 807.99L38.2851 808.151V808.156Z" fill="#110A1D"/>
<path d="M49.5529 725C36.8544 725 24.1663 720.171 14.4966 710.501C-4.83221 691.172 -4.83221 659.728 14.4966 640.399C23.8644 631.031 36.3131 625.879 49.5529 625.879C62.7927 625.879 75.2414 631.031 84.6092 640.399C103.938 659.728 103.938 691.172 84.6092 710.501C74.95 720.16 62.2514 725 49.5529 725ZM17.0988 707.899C34.9912 725.791 64.1042 725.791 81.9966 707.899C99.8891 690.006 99.8891 660.893 81.9966 643.001C73.3262 634.33 61.8039 629.563 49.5425 629.563C37.2811 629.563 25.7588 634.341 17.0884 643.001C-0.804078 660.893 -0.804078 690.006 17.0884 707.899H17.0988Z" fill="#9DADF2"/>
<path d="M48.8972 693.993C49.0742 694.42 49.4905 694.669 49.9277 694.669C50.0734 694.669 50.2192 694.638 50.3649 694.586C53.8622 693.118 57.0472 690.849 59.5661 688.018C59.972 687.56 59.9304 686.853 59.4724 686.447C59.0145 686.041 58.3067 686.082 57.9007 686.54C55.6004 689.132 52.6964 691.203 49.501 692.536C48.9389 692.775 48.6683 693.431 48.9077 693.993H48.8972Z" fill="#9DADF2"/>
<path d="M68.4432 658.312L49.9575 650.922C49.6869 650.818 49.3954 650.818 49.1248 650.922L30.6391 658.312C30.2123 658.479 29.9417 658.885 29.9417 659.343V672.582C29.9625 684.802 37.6857 695.846 49.156 700.051C49.2809 700.092 49.4058 700.113 49.5411 700.113C49.6764 700.113 49.8013 700.092 49.9262 700.051C61.3966 695.835 69.1198 684.802 69.1406 672.582V659.343C69.1406 658.885 68.87 658.479 68.4432 658.312ZM66.9131 672.582C66.8923 683.699 59.9186 693.826 49.5515 697.813C39.1845 693.826 32.2003 683.699 32.1795 672.582V660.102L49.5515 653.16L66.9131 660.102V672.582Z" fill="#9DADF2"/>
<path d="M41.8288 660.05C41.5581 659.936 41.2563 659.936 40.9753 660.05L36.5724 661.809C36.1457 661.976 35.875 662.382 35.875 662.84V667.534C35.875 668.148 36.3746 668.648 36.9887 668.648C37.6028 668.648 38.1025 668.148 38.1025 667.534V663.6L41.7975 662.122C42.0785 662.007 42.2867 661.799 42.4117 661.518C42.5261 661.247 42.5261 660.945 42.4117 660.664C42.2972 660.383 42.089 660.175 41.8184 660.05H41.8288Z" fill="#9DADF2"/>
<path d="M77.6962 647.3C70.1812 639.774 60.1785 635.642 49.5409 635.642C38.9033 635.642 28.911 639.785 21.3855 647.3C5.86628 662.819 5.86628 688.081 21.3855 703.611C29.1504 711.375 39.3404 715.247 49.5409 715.247C59.7414 715.247 69.9314 711.365 77.6962 703.611C93.2155 688.091 93.2155 662.829 77.6962 647.3ZM72.1901 672.582C72.2213 686.707 63.197 699.062 49.7387 703.34C49.6138 703.382 49.4784 703.382 49.3431 703.34C35.8848 699.062 26.8605 686.707 26.8917 672.582V656.959C26.8917 656.699 27.0478 656.459 27.2976 656.355L49.3015 647.56C49.3744 647.529 49.4576 647.518 49.5409 647.518C49.6242 647.518 49.7074 647.529 49.7803 647.56L71.7841 656.366C72.0339 656.459 72.1901 656.699 72.1901 656.969V672.593V672.582Z" fill="#9DADF2"/>
<path d="M49.6975 598.39C22.3748 598.39 0.152344 576.157 0.152344 548.844C0.152344 521.532 22.3852 499.299 49.6975 499.299C77.0098 499.299 99.2426 521.532 99.2426 548.844C99.2426 576.157 77.0098 598.39 49.6975 598.39ZM49.6975 502.599C24.1963 502.599 3.45193 523.343 3.45193 548.844C3.45193 574.346 24.1963 595.09 49.6975 595.09C75.1986 595.09 95.9431 574.346 95.9431 548.844C95.9431 523.343 75.1986 502.599 49.6975 502.599Z" fill="white"/>
<path d="M65.768 517.9C65.5182 517.9 65.2684 517.848 65.0394 517.733C60.241 515.36 55.0783 514.153 49.6971 514.153C44.3158 514.153 39.1531 515.36 34.3547 517.733C33.7198 518.045 32.96 517.921 32.4604 517.421L23.9461 508.907C23.5818 508.542 23.4152 508.043 23.4777 507.533C23.5401 507.023 23.8316 506.575 24.2688 506.315C31.9399 501.714 40.7352 499.289 49.7075 499.289C58.6797 499.289 67.475 501.725 75.1462 506.315C75.5833 506.575 75.8747 507.023 75.9372 507.533C75.9996 508.043 75.8227 508.542 75.4688 508.907L66.9545 517.421C66.6319 517.733 66.2156 517.9 65.7784 517.9H65.768ZM49.6971 510.853C55.1824 510.853 60.47 511.998 65.4245 514.257L71.5864 508.095C64.8832 504.483 57.3578 502.589 49.6971 502.589C42.0363 502.589 34.5108 504.483 27.8077 508.095L33.9696 514.257C38.9241 511.998 44.2117 510.853 49.6971 510.853Z" fill="white"/>
<path d="M49.6953 598.39C40.723 598.39 31.9277 595.954 24.2566 591.364C23.8194 591.104 23.5279 590.656 23.4655 590.146C23.403 589.636 23.58 589.137 23.9339 588.772L32.4481 580.258C32.9478 579.758 33.718 579.633 34.3425 579.946C39.1409 582.319 44.3036 583.526 49.6848 583.526C55.0661 583.526 60.2288 582.319 65.0272 579.946C65.6621 579.633 66.4219 579.758 66.9215 580.258L75.4358 588.772C75.8001 589.137 75.9667 589.636 75.9042 590.146C75.8417 590.656 75.5503 591.104 75.1131 591.364C67.442 595.965 58.6467 598.39 49.6744 598.39H49.6953ZM27.8059 589.584C34.509 593.196 42.0345 595.09 49.6953 595.09C57.356 595.09 64.8814 593.196 71.5846 589.584L65.4227 583.422C60.4682 585.681 55.1806 586.826 49.6953 586.826C44.2099 586.826 38.9223 585.681 33.9678 583.422L27.8059 589.584Z" fill="white"/>
<path d="M90.8031 575.074C90.366 575.074 89.9496 574.908 89.6374 574.595L81.1231 566.081C80.6235 565.582 80.4986 564.811 80.8109 564.187C83.184 559.388 84.3914 554.226 84.3914 548.845C84.3914 543.463 83.184 538.301 80.8109 533.502C80.4986 532.867 80.6235 532.097 81.1231 531.608L89.6374 523.094C90.0017 522.729 90.5013 522.563 91.0113 522.625C91.5213 522.688 91.9689 522.979 92.2291 523.416C96.8297 531.087 99.2549 539.883 99.2549 548.855C99.2549 557.827 96.8297 566.622 92.2291 574.294C91.9689 574.731 91.5213 575.022 91.0113 575.085C90.9385 575.085 90.876 575.085 90.8031 575.085V575.074ZM84.2769 564.562L90.4389 570.723C94.0507 564.02 95.945 556.495 95.945 548.834C95.945 541.173 94.0507 533.648 90.4389 526.945L84.2769 533.107C86.5356 538.061 87.6805 543.349 87.6805 548.834C87.6805 554.319 86.5356 559.607 84.2769 564.562Z" fill="white"/>
<path d="M8.5938 575.074C8.52094 575.074 8.45848 575.074 8.39603 575.064C7.88601 575.001 7.43839 574.71 7.17817 574.273C2.57756 566.602 0.152344 557.806 0.152344 548.834C0.152344 539.862 2.57756 531.067 7.17817 523.395C7.43839 522.958 7.88601 522.667 8.39603 522.604C8.90605 522.542 9.40567 522.719 9.76998 523.073L18.2842 531.587C18.7838 532.087 18.9087 532.857 18.5965 533.481C16.2233 538.28 15.0159 543.442 15.0159 548.824C15.0159 554.205 16.2233 559.368 18.5965 564.166C18.9087 564.801 18.7838 565.571 18.2842 566.06L9.76998 574.575C9.45772 574.887 9.04131 575.064 8.60415 575.064L8.5938 575.074ZM8.95807 526.945C5.34628 533.648 3.45193 541.173 3.45193 548.834C3.45193 556.495 5.34628 564.02 8.95807 570.724L15.12 564.562C12.8613 559.607 11.7164 554.319 11.7164 548.834C11.7164 543.349 12.8613 538.061 15.12 533.107L8.95807 526.945Z" fill="white"/>
<path d="M49.6985 510.853C28.7564 510.853 11.707 527.892 11.707 548.845C11.707 569.797 28.746 586.836 49.6985 586.836C70.6511 586.836 87.6901 569.797 87.6901 548.845C87.6901 527.892 70.6511 510.853 49.6985 510.853ZM71.0779 536.365C72.8786 539.446 73.9715 542.808 74.3254 546.378C74.3358 546.523 74.2733 546.659 74.1484 546.732C71.4318 548.397 68.9961 550.437 66.8936 552.821C66.7999 552.935 66.6438 552.977 66.5085 552.925L61.8142 551.395C61.6789 551.353 61.5852 551.239 61.5644 551.093C61.0335 547.21 59.8262 543.495 57.9734 540.039C57.911 539.914 57.9214 539.768 58.0046 539.654L60.9086 535.657C60.9815 535.563 61.096 535.501 61.2105 535.501C61.2417 535.501 61.2626 535.501 61.2938 535.501C64.3956 536.188 67.5806 536.417 70.7448 536.156C70.8905 536.146 71.0258 536.219 71.0987 536.344L71.0779 536.365ZM59.0039 551.749C59.0143 551.853 58.983 551.957 58.9206 552.03C56.4537 554.871 53.3104 557.151 49.8443 558.608C49.7506 558.649 49.6569 558.649 49.5632 558.608C46.0972 557.14 42.9537 554.861 40.4869 552.03C40.4244 551.957 40.3932 551.853 40.4036 551.749C40.8824 547.981 42.0586 544.379 43.8801 541.048C43.9321 540.955 44.0154 540.892 44.1195 540.872C45.9515 540.486 47.825 540.289 49.709 540.289C51.5929 540.289 53.4665 540.486 55.2984 540.872C55.4025 540.892 55.4857 540.955 55.5378 541.048C57.3593 544.379 58.5251 547.981 59.0143 551.749H59.0039ZM58.4418 525.914C58.4418 525.914 58.5667 525.81 58.6916 525.81C58.7333 525.81 58.7853 525.81 58.8373 525.841C62.6677 527.361 66.0921 529.859 68.7568 533.055C68.8921 533.211 68.84 533.377 68.8088 533.44C68.788 533.492 68.6943 533.658 68.4757 533.658C66.1129 533.69 63.7606 533.419 61.4811 532.878C61.3875 532.857 61.3042 532.794 61.2521 532.711C60.0343 530.702 59.0559 528.537 58.3481 526.289C58.2857 526.091 58.4001 525.956 58.4522 525.914H58.4418ZM44.4422 524.665C47.8875 523.926 51.5201 523.926 54.9653 524.665C55.1006 524.697 55.2151 524.801 55.2463 524.936C55.9853 528.027 57.1823 530.983 58.7957 533.721C58.8685 533.846 58.8581 534.002 58.7748 534.127L55.8917 538.103C55.8084 538.217 55.6627 538.28 55.5274 538.249C51.7178 537.478 47.6897 537.478 43.8801 538.249C43.7448 538.28 43.5991 538.217 43.5158 538.103L40.6326 534.127C40.5493 534.012 40.5389 533.846 40.6118 533.721C42.2251 530.983 43.4221 528.027 44.1611 524.936C44.1924 524.801 44.3069 524.697 44.4422 524.665ZM30.6508 533.055C33.3154 529.849 36.7398 527.351 40.5702 525.841C40.6222 525.821 40.6743 525.81 40.7159 525.81C40.8512 525.81 40.9345 525.883 40.9657 525.914C41.0177 525.966 41.1322 526.091 41.0698 526.289C40.362 528.548 39.3836 530.702 38.1658 532.711C38.1137 532.794 38.0305 532.857 37.9368 532.878C35.6573 533.419 33.3049 533.69 30.9422 533.658C30.7236 533.658 30.6299 533.492 30.6091 533.44C30.5779 533.377 30.5258 533.211 30.6611 533.055H30.6508ZM28.3296 536.365C28.392 536.25 28.5169 536.177 28.6523 536.177C28.6523 536.177 28.6731 536.177 28.6835 536.177C31.8581 536.427 35.0432 536.208 38.1346 535.522C38.2803 535.49 38.426 535.542 38.5093 535.667L41.4133 539.664C41.4965 539.779 41.507 539.935 41.4445 540.049C39.5918 543.505 38.3844 547.221 37.8535 551.103C37.8327 551.239 37.739 551.353 37.6037 551.405L32.9094 552.935C32.7741 552.977 32.618 552.935 32.5243 552.831C30.4218 550.447 27.9861 548.407 25.2694 546.742C25.155 546.669 25.0821 546.534 25.0925 546.388C25.4464 542.818 26.5393 539.446 28.34 536.375L28.3296 536.365ZM29.4642 562.011C29.4017 562.209 29.2248 562.251 29.1519 562.261C29.0791 562.261 28.9125 562.261 28.798 562.095C26.581 558.608 25.2694 554.569 25.0092 550.427C24.9988 550.219 25.1341 550.114 25.1966 550.083C25.259 550.052 25.4256 549.979 25.5921 550.104C27.5177 551.468 29.2664 553.07 30.7964 554.85C30.8589 554.923 30.8901 555.017 30.8797 555.121C30.6924 557.463 30.2136 559.784 29.4537 562.022L29.4642 562.011ZM39.7479 571.515C36.5004 570.089 33.638 567.996 31.244 565.311C31.1503 565.207 31.1191 565.051 31.1712 564.926C32.389 561.991 33.1592 558.899 33.461 555.735C33.4714 555.589 33.5756 555.464 33.7109 555.423L38.3531 553.914C38.3531 553.914 38.426 553.893 38.4676 553.893C38.5717 553.893 38.6654 553.934 38.7382 554.018C41.3404 556.932 44.5983 559.305 48.1684 560.877C48.3038 560.939 48.3871 561.064 48.3871 561.21V566.092C48.3871 566.237 48.3038 566.373 48.1684 566.425C45.254 567.684 42.5478 569.381 40.1226 571.452C40.0185 571.546 39.8624 571.567 39.7375 571.504L39.7479 571.515ZM56.1207 572.545C56.1103 572.618 56.0582 572.784 55.85 572.837C51.8323 573.857 47.5856 573.857 43.5678 572.837C43.3701 572.784 43.3076 572.618 43.2972 572.545C43.2868 572.472 43.266 572.306 43.4429 572.17C45.3373 570.765 47.3982 569.589 49.5737 568.683C49.6673 568.642 49.761 568.642 49.8546 568.683C52.0196 569.589 54.0806 570.765 55.9853 572.17C56.1519 572.295 56.1415 572.472 56.1311 572.545H56.1207ZM68.1843 565.321C65.7903 568.007 62.9279 570.089 59.6804 571.515C59.5451 571.577 59.3994 571.546 59.2953 571.463C56.8701 569.391 54.1743 567.695 51.2494 566.435C51.1141 566.373 51.0308 566.248 51.0308 566.102V561.22C51.0308 561.075 51.1141 560.939 51.2494 560.887C54.8196 559.316 58.0879 556.943 60.6796 554.028C60.7525 553.945 60.8462 553.903 60.9503 553.903C60.9919 553.903 61.0231 553.903 61.0648 553.924L65.707 555.433C65.8423 555.475 65.9464 555.6 65.9568 555.745C66.2587 558.91 67.0289 561.991 68.2467 564.936C68.2988 565.061 68.278 565.217 68.1739 565.321H68.1843ZM70.6199 562.105C70.5054 562.282 70.3285 562.282 70.266 562.272C70.1932 562.272 70.0266 562.22 69.9537 562.022C69.2043 559.784 68.7255 557.463 68.5277 555.121C68.5277 555.027 68.5486 554.923 68.611 554.85C70.1411 553.07 71.8897 551.478 73.8153 550.104C73.8882 550.052 73.9611 550.031 74.0235 550.031C74.1068 550.031 74.1692 550.062 74.2109 550.083C74.2733 550.114 74.419 550.219 74.3982 550.427C74.138 554.569 72.8265 558.608 70.6095 562.095L70.6199 562.105Z" fill="white"/>
<path d="M49.5529 474.933C36.8544 474.933 24.1663 470.103 14.4966 460.433C-4.83221 441.105 -4.83221 409.66 14.4966 390.331C23.8644 380.964 36.3131 375.811 49.5529 375.811C62.7927 375.811 75.2414 380.964 84.6092 390.331C103.938 409.66 103.938 441.105 84.6092 460.433C74.95 470.093 62.2514 474.933 49.5529 474.933ZM17.0988 457.831C34.9912 475.724 64.1042 475.724 81.9966 457.831C99.8891 439.939 99.8891 410.826 81.9966 392.933C73.3262 384.263 61.8039 379.496 49.5425 379.496C37.2811 379.496 25.7588 384.274 17.0884 392.933C-0.804078 410.826 -0.804078 439.939 17.0884 457.831H17.0988Z" fill="#9DADF2"/>
<path d="M48.8972 443.936C49.0742 444.362 49.4905 444.612 49.9277 444.612C50.0734 444.612 50.2192 444.581 50.3649 444.529C53.8622 443.061 57.0472 440.792 59.5661 437.961C59.972 437.503 59.9304 436.795 59.4724 436.389C59.0145 435.984 58.3067 436.025 57.9007 436.483C55.6004 439.075 52.6964 441.146 49.501 442.478C48.9389 442.718 48.6683 443.374 48.9077 443.936H48.8972Z" fill="#9DADF2"/>
<path d="M68.4432 408.244L49.9575 400.854C49.6869 400.75 49.3954 400.75 49.1248 400.854L30.6391 408.244C30.2123 408.411 29.9417 408.817 29.9417 409.275V422.515C29.9625 434.734 37.6857 445.778 49.156 449.983C49.2809 450.025 49.4058 450.045 49.5411 450.045C49.6764 450.045 49.8013 450.025 49.9262 449.983C61.3966 445.767 69.1198 434.734 69.1406 422.515V409.275C69.1406 408.817 68.87 408.411 68.4432 408.244ZM66.9131 422.515C66.8923 433.631 59.9186 443.759 49.5515 447.745C39.1845 443.759 32.2003 433.631 32.1795 422.515V410.035L49.5515 403.092L66.9131 410.035V422.515Z" fill="#9DADF2"/>
<path d="M41.8288 409.983C41.5581 409.868 41.2563 409.868 40.9753 409.983L36.5724 411.742C36.1457 411.908 35.875 412.314 35.875 412.772V417.466C35.875 418.081 36.3746 418.58 36.9887 418.58C37.6028 418.58 38.1025 418.081 38.1025 417.466V413.532L41.7975 412.054C42.0785 411.939 42.2867 411.731 42.4117 411.45C42.5261 411.18 42.5261 410.878 42.4117 410.597C42.2972 410.316 42.089 410.108 41.8184 409.983H41.8288Z" fill="#9DADF2"/>
<path d="M77.6962 397.232C70.1812 389.707 60.1785 385.574 49.5409 385.574C38.9033 385.574 28.911 389.717 21.3855 397.232C5.86628 412.751 5.86628 438.013 21.3855 453.543C29.1504 461.308 39.3404 465.18 49.5409 465.18C59.7414 465.18 69.9314 461.297 77.6962 453.543C93.2155 438.024 93.2155 412.762 77.6962 397.232ZM72.1901 422.515C72.2213 436.639 63.197 448.994 49.7387 453.272C49.6138 453.314 49.4784 453.314 49.3431 453.272C35.8848 448.994 26.8605 436.639 26.8917 422.515V406.891C26.8917 406.631 27.0478 406.392 27.2976 406.288L49.3015 397.492C49.3744 397.461 49.4576 397.451 49.5409 397.451C49.6242 397.451 49.7074 397.461 49.7803 397.492L71.7841 406.298C72.0339 406.392 72.1901 406.631 72.1901 406.902V422.525V422.515Z" fill="#9DADF2"/>
<path d="M49.967 352.621C22.6444 352.621 0.421875 330.388 0.421875 303.076C0.421875 275.763 22.6548 253.531 49.967 253.531C77.2793 253.531 99.5121 275.763 99.5121 303.076C99.5121 330.388 77.2793 352.621 49.967 352.621ZM49.967 256.83C24.4659 256.83 3.72139 277.574 3.72139 303.076C3.72139 328.577 24.4659 349.321 49.967 349.321C75.4682 349.321 96.2126 328.577 96.2126 303.076C96.2126 277.574 75.4682 256.83 49.967 256.83Z" fill="#478BF9"/>
<path d="M82.2878 267.729L66.9495 283.067L69.9671 286.085L85.3054 270.746L82.2878 267.729Z" fill="#478BF9"/>
<path d="M29.4945 320.521L14.1562 335.859L17.1738 338.876L32.5121 323.538L29.4945 320.521Z" fill="#478BF9"/>
<path d="M70.4319 320.536L67.4143 323.553L82.7526 338.891L85.7702 335.874L70.4319 320.536Z" fill="#478BF9"/>
<path d="M17.1702 267.267L14.1526 270.285L29.4835 285.616L32.5011 282.598L17.1702 267.267Z" fill="#478BF9"/>
<path d="M62.0511 304.408C63.0503 303.409 63.0503 301.795 62.0511 300.806L59.9277 298.693C58.9285 297.694 57.3152 297.694 56.3264 298.693L55.1814 299.838L53.8595 298.516C52.8603 297.517 51.2469 297.517 50.2581 298.516L49.1132 299.672L47.7913 298.34C46.792 297.34 45.1787 297.34 44.1899 298.34L37.164 305.365C37.112 305.417 37.112 305.501 37.164 305.563C38.1008 306.5 39.6309 306.5 40.5781 305.563L45.1058 301.035C45.595 300.546 46.3861 300.546 46.8753 301.035L47.2084 301.368C47.2708 301.431 47.2708 301.525 47.2084 301.587L43.4301 305.365C43.378 305.417 43.378 305.501 43.4301 305.563C44.3668 306.5 45.8969 306.5 46.8441 305.563L51.1845 301.223C51.6737 300.734 52.4648 300.734 52.954 301.223L53.2871 301.556C53.3391 301.608 53.3391 301.691 53.2871 301.754L49.644 305.397C49.592 305.449 49.592 305.532 49.644 305.594C50.5808 306.531 52.1109 306.531 53.058 305.594L57.2527 301.4C57.742 300.91 58.533 300.91 59.0222 301.4L59.7404 302.118C60.0214 302.399 60.0214 302.867 59.7404 303.148L59.6259 303.263C59.3449 303.544 58.8765 303.544 58.5954 303.263L57.6691 302.336C57.617 302.284 57.5337 302.284 57.4713 302.336L55.8684 303.939C55.8163 303.991 55.8163 304.075 55.8684 304.137L57.3152 305.584C58.3144 306.583 59.9277 306.583 60.9165 305.584L62.0615 304.439L62.0511 304.408Z" fill="#478BF9"/>
<path d="M49.9681 265.084C28.9843 265.084 11.9766 282.092 11.9766 303.076C11.9766 324.059 28.9843 341.067 49.9681 341.067C70.9519 341.067 87.9596 324.059 87.9596 303.076C87.9596 282.092 70.9519 265.084 49.9681 265.084ZM51.519 276.815C57.6184 277.168 63.1558 279.604 67.4442 283.414L61.9588 288.899C59.0964 286.474 55.4846 284.902 51.519 284.569V276.815ZM48.4276 276.815V284.569C44.4619 284.892 40.8501 286.474 37.9877 288.899L32.5024 283.414C36.7907 279.604 42.3281 277.168 48.4276 276.815ZM30.3166 285.599L35.8019 291.085C33.3767 293.947 31.805 297.559 31.4719 301.525H23.7175C24.0714 295.425 26.507 289.888 30.3166 285.599ZM23.7175 304.616H31.4719C31.7946 308.582 33.3767 312.193 35.8019 315.056L30.3166 320.541C26.507 316.253 24.0714 310.715 23.7175 304.616ZM48.4276 329.326C42.3281 328.972 36.7907 326.537 32.5024 322.727L37.9877 317.242C40.8501 319.667 44.4619 321.239 48.4276 321.572V329.326ZM34.0012 303.065C34.0012 294.249 41.152 287.098 49.9681 287.098C58.7842 287.098 65.9349 294.249 65.9349 303.065C65.9349 311.881 58.7842 319.032 49.9681 319.032C41.152 319.032 34.0012 311.881 34.0012 303.065ZM51.519 329.326V321.572C55.4846 321.249 59.0964 319.667 61.9588 317.242L67.4442 322.727C63.1558 326.537 57.6184 328.972 51.519 329.326ZM69.6299 320.541L64.1446 315.056C66.5698 312.193 68.1415 308.582 68.4746 304.616H76.229C75.8752 310.715 73.4395 316.253 69.6299 320.541ZM68.4746 301.525C68.1519 297.559 66.5698 293.947 64.1446 291.085L69.6299 285.599C73.4395 289.888 75.8752 295.425 76.229 301.525H68.4746Z" fill="#478BF9"/>
<path d="M15.0585 208.26C-4.43127 188.77 -4.43127 157.061 15.0585 137.572C34.5482 118.082 66.2569 118.082 85.7466 137.572C105.236 157.061 105.236 188.77 85.7466 208.26C66.2569 227.75 34.5482 227.75 15.0585 208.26ZM83.391 139.927C65.1999 121.736 35.6051 121.736 17.4188 139.927C-0.772216 158.118 -0.772216 187.713 17.4188 205.899C35.6099 224.09 65.2047 224.09 83.391 205.899C101.582 187.708 101.582 158.114 83.391 139.927Z" fill="white"/>
<path d="M83.9341 162.313C83.7587 162.138 83.6166 161.915 83.536 161.668C81.806 156.55 78.9811 152.014 75.1419 148.174C71.3075 144.34 66.7668 141.515 61.6479 139.78C60.9702 139.548 60.5151 138.918 60.5151 138.202V126.054C60.5151 125.542 60.7521 125.059 61.155 124.741C61.5626 124.424 62.0887 124.315 62.5816 124.438C71.3312 126.628 79.3413 131.168 85.7399 137.572C92.1385 143.975 96.6792 151.98 98.869 160.73C98.9922 161.228 98.8784 161.754 98.5656 162.161C98.2481 162.569 97.7646 162.801 97.2527 162.801H85.1048C84.6498 162.801 84.2327 162.616 83.9246 162.308L83.9341 162.313ZM77.4975 145.819C81.4125 149.734 84.3654 154.322 86.2897 159.469H95.0772C92.8685 152.113 88.8539 145.392 83.389 139.927C77.9241 134.462 71.2032 130.448 63.8519 128.244V137.031C68.9993 138.951 73.5873 141.904 77.5023 145.824L77.4975 145.819Z" fill="white"/>
<path d="M15.057 208.26C8.65841 201.861 4.11301 193.851 1.92326 185.101C1.80003 184.604 1.91379 184.078 2.22661 183.675C2.54417 183.267 3.0276 183.035 3.53949 183.035H15.6874C16.4031 183.035 17.0382 183.49 17.2657 184.168C18.9957 189.287 21.8206 193.823 25.6598 197.662C29.4942 201.496 34.0349 204.321 39.1538 206.056C39.8316 206.283 40.2865 206.918 40.2865 207.634V219.782C40.2865 220.294 40.0495 220.777 39.6467 221.095C39.2391 221.412 38.7129 221.521 38.2153 221.398C29.4657 219.208 21.4604 214.668 15.057 208.269V208.26ZM5.72452 186.362C7.93323 193.718 11.9478 200.439 17.4127 205.904C22.8776 211.369 29.5985 215.384 36.9545 217.592V208.805C31.8072 206.885 27.2191 203.932 23.3041 200.017C19.3891 196.102 16.4363 191.514 14.512 186.367H5.72452V186.362Z" fill="white"/>
<path d="M61.0033 220.953C60.6905 220.64 60.5151 220.218 60.5151 219.773V207.625C60.5151 206.909 60.9702 206.274 61.6479 206.046C66.7668 204.316 71.3027 201.492 75.1419 197.652C78.9811 193.813 81.8012 189.277 83.5359 184.158C83.7634 183.481 84.3986 183.026 85.1143 183.026H97.2622C97.7741 183.026 98.2575 183.263 98.5751 183.665C98.8927 184.068 99.0017 184.599 98.8784 185.092C96.684 193.842 92.1433 201.847 85.7446 208.25C79.346 214.654 71.3359 219.194 62.5864 221.384C62.0887 221.507 61.5626 221.394 61.1597 221.081C61.1076 221.033 61.0555 220.991 61.0081 220.943L61.0033 220.953ZM63.8472 208.8V217.588C71.2032 215.379 77.9241 211.364 83.389 205.9C88.8539 200.435 92.8637 193.714 95.0772 186.358H86.2897C84.3701 191.505 81.4173 196.088 77.4975 200.008C73.5825 203.923 68.9945 206.881 63.8472 208.8Z" fill="white"/>
<path d="M2.36005 162.313C2.31265 162.266 2.26527 162.213 2.22735 162.161C1.90979 161.758 1.80077 161.228 1.924 160.73C4.11375 151.98 8.65441 143.97 15.0578 137.572C21.4611 131.173 29.4665 126.628 38.216 124.438C38.7137 124.315 39.2398 124.428 39.6427 124.741C40.0455 125.059 40.2826 125.542 40.2826 126.054V138.202C40.2826 138.918 39.8276 139.553 39.1498 139.78C34.0309 141.51 29.4949 144.335 25.6557 148.174C21.8213 152.009 18.9965 156.549 17.2617 161.668C17.0342 162.346 16.3991 162.801 15.6834 162.801H3.53552C3.08999 162.801 2.66339 162.626 2.35531 162.318L2.36005 162.313ZM36.9505 128.244C29.5945 130.453 22.8736 134.467 17.4087 139.932C11.9438 145.397 7.93397 152.118 5.72052 159.474H14.508C16.4275 154.327 19.3804 149.743 23.3001 145.824C27.2151 141.909 31.8032 138.956 36.9505 137.031V128.244Z" fill="white"/>
<path d="M77.5017 145.819C62.5621 130.879 38.2474 130.874 23.3078 145.819C8.36346 160.763 8.3682 185.073 23.3078 200.013C38.2474 214.952 62.5574 214.957 77.5017 200.013C92.446 185.068 92.4413 160.758 77.5017 145.819Z" fill="white"/>
<path d="M64.2206 186.593L36.6929 186.776C35.5333 186.784 34.5995 187.73 34.6072 188.889L34.6137 189.871C34.6214 191.03 35.5677 191.964 36.7273 191.956L64.255 191.774C65.4146 191.766 66.3484 190.82 66.3407 189.66L66.3342 188.679C66.3265 187.519 65.3802 186.586 64.2206 186.593Z" fill="#110A1D"/>
<path d="M40.4435 169.977C40.1449 169.977 39.8416 169.911 39.5667 169.778L37.4196 168.74C36.4858 168.285 36.0592 167.181 36.4479 166.219L37.4338 163.764C37.7371 163.015 38.4528 162.526 39.2586 162.522C39.6046 162.522 39.9458 162.607 40.2492 162.782L42.8086 164.242C43.2873 164.512 43.6333 164.982 43.7566 165.522C43.8798 166.062 43.7708 166.631 43.458 167.086L42.055 169.119C41.6901 169.65 41.0834 169.973 40.4388 169.973L40.4435 169.977Z" fill="#110A1D"/>
<path d="M60.2623 169.845C59.6177 169.845 59.0063 169.537 58.6366 169.01L57.2478 167.053C56.9255 166.603 56.8118 166.034 56.9255 165.494C57.0393 164.953 57.3805 164.479 57.8592 164.2L60.4992 162.65C60.7978 162.474 61.1391 162.38 61.4851 162.375C62.2909 162.37 63.0161 162.849 63.3289 163.593L64.3242 165.977C64.7224 166.934 64.31 168.048 63.3858 168.513L61.1391 169.636C60.869 169.769 60.5656 169.845 60.267 169.845H60.2623Z" fill="#110A1D"/>
<path d="M38.2809 184.936C37.0723 184.945 35.9869 184.187 35.5746 183.049L30.9818 170.408C30.6879 170.551 30.3751 170.66 30.0575 170.74C29.6831 170.835 29.3039 170.882 28.92 170.882C28.6972 170.882 28.4792 170.873 28.2659 170.845C25.8723 170.541 24.0571 168.489 24.0428 166.072C24.0239 163.398 26.1852 161.209 28.8584 161.19C31.5316 161.171 33.7213 163.332 33.7356 166.005C33.7356 166.621 33.6313 167.214 33.4132 167.768C33.2947 168.072 33.1478 168.361 32.9772 168.636L41.7125 172.864L48.3955 163.18C48.1159 163.062 47.8457 162.915 47.5897 162.74C47.1063 162.413 46.6844 162.005 46.3432 161.526C45.7649 160.711 45.4521 159.749 45.4474 158.753C45.4284 156.08 47.5897 153.891 50.2629 153.872C50.3814 153.872 50.5047 153.872 50.6232 153.881C53.0167 154.042 54.9505 155.962 55.1259 158.355C55.2065 159.488 54.9079 160.574 54.2633 161.498C53.922 161.981 53.5049 162.394 53.0262 162.721C52.775 162.896 52.5048 163.043 52.2252 163.161L59.0267 172.745L67.6198 168.446C67.4586 168.138 67.3307 167.816 67.2359 167.479C67.1222 167.072 67.0605 166.645 67.0605 166.214C67.0605 166.019 67.07 165.825 67.0889 165.636C67.3639 163.199 69.4209 161.351 71.8713 161.337C74.5445 161.318 76.7343 163.479 76.7485 166.152C76.7675 168.702 74.7862 170.845 72.241 171.02L71.9377 171.029C71.4447 171.029 70.9613 170.963 70.4921 170.821C70.1887 170.726 69.8948 170.608 69.6199 170.456L65.3068 182.85C64.9134 183.992 63.8327 184.76 62.6241 184.77L38.2809 184.931V184.936Z" fill="#110A1D"/>
<path fill-rule="evenodd" clip-rule="evenodd" d="M5 69.6111V57.8457C2.54725 43.4314 6.87314 28.0775 17.9777 16.9729C36.164 -1.21811 65.7588 -1.21811 83.9498 16.9729C96.1534 29.1733 100.17 46.5081 96 62.0898V71.6481C104.937 53.0463 101.705 30.0173 86.3054 14.6173C66.8157 -4.87243 35.107 -4.87243 15.6173 14.6173C0.774755 29.4598 -2.76434 51.389 5 69.6111Z" fill="white"/>
<path d="M99.9816 52.0401V171.635C99.9816 172.624 99.1801 173.415 98.2017 173.415C97.2233 173.415 96.4219 172.614 96.4219 171.635V52.0401C96.4219 51.0513 97.2233 50.2603 98.2017 50.2603C99.1801 50.2603 99.9816 51.0617 99.9816 52.0401Z" fill="white"/>
<path d="M4.43864 51.7799V171.375C4.43864 172.364 3.63722 173.155 2.65881 173.155C1.68039 173.155 0.878906 172.354 0.878906 171.375V51.7799C0.878906 50.791 1.68039 50 2.65881 50C3.63722 50 4.43864 50.8015 4.43864 51.7799Z" fill="white"/>
</g>
</svg>
