<svg width="101" height="1048" viewBox="0 0 101 1048" fill="none" xmlns="http://www.w3.org/2000/svg">
<g opacity="0.4">
<path d="M49.9826 1045.15C37.2841 1045.15 24.5959 1040.32 14.9263 1030.65C-4.40252 1011.32 -4.40252 979.88 14.9263 960.551C24.2941 951.184 36.7428 946.031 49.9826 946.031C63.2224 946.031 75.6711 951.184 85.0389 960.551C104.368 979.88 104.368 1011.32 85.0389 1030.65C75.3797 1040.31 62.6811 1045.15 49.9826 1045.15ZM17.5285 1028.05C35.4209 1045.94 64.5338 1045.94 82.4263 1028.05C100.319 1010.16 100.319 981.046 82.4263 963.153C73.7559 954.483 62.2335 949.716 49.9722 949.716C37.7108 949.716 26.1884 954.493 17.5181 963.153C-0.374391 981.046 -0.374391 1010.16 17.5181 1028.05H17.5285Z" fill="#9DADF2"/>
<path d="M49.3269 1014.16C49.5039 1014.58 49.9202 1014.83 50.3574 1014.83C50.5031 1014.83 50.6489 1014.8 50.7946 1014.75C54.2919 1013.28 57.4769 1011.01 59.9958 1008.18C60.4017 1007.72 60.3601 1007.02 59.9021 1006.61C59.4441 1006.2 58.7364 1006.25 58.3304 1006.7C56.0301 1009.29 53.1261 1011.37 49.9306 1012.7C49.3686 1012.94 49.0979 1013.59 49.3373 1014.16H49.3269Z" fill="#9DADF2"/>
<path d="M68.8729 978.464L50.3872 971.074C50.1166 970.97 49.8251 970.97 49.5545 971.074L31.0688 978.464C30.642 978.631 30.3713 979.037 30.3713 979.495V992.735C30.3922 1004.95 38.1154 1016 49.5857 1020.2C49.7106 1020.24 49.8355 1020.27 49.9708 1020.27C50.1061 1020.27 50.231 1020.24 50.3559 1020.2C61.8263 1015.99 69.5495 1004.95 69.5703 992.735V979.495C69.5703 979.037 69.2997 978.631 68.8729 978.464ZM67.3428 992.735C67.322 1003.85 60.3482 1013.98 49.9812 1017.97C39.6142 1013.98 32.63 1003.85 32.6092 992.735V980.255L49.9812 973.312L67.3428 980.255V992.735Z" fill="#9DADF2"/>
<path d="M42.2585 980.203C41.9878 980.088 41.686 980.088 41.4049 980.203L37.0021 981.962C36.5754 982.128 36.3047 982.534 36.3047 982.992V987.686C36.3047 988.3 36.8043 988.8 37.4184 988.8C38.0325 988.8 38.5322 988.3 38.5322 987.686V983.752L42.2272 982.274C42.5082 982.159 42.7164 981.951 42.8413 981.67C42.9558 981.4 42.9558 981.098 42.8413 980.817C42.7268 980.536 42.5187 980.327 42.248 980.203H42.2585Z" fill="#9DADF2"/>
<path d="M78.1259 967.452C70.6109 959.927 60.6082 955.794 49.9706 955.794C39.333 955.794 29.3407 959.937 21.8152 967.452C6.29596 982.971 6.29596 1008.23 21.8152 1023.76C29.5801 1031.53 39.7701 1035.4 49.9706 1035.4C60.171 1035.4 70.3611 1031.52 78.1259 1023.76C93.6452 1008.24 93.6452 982.982 78.1259 967.452ZM72.6198 992.735C72.651 1006.86 63.6267 1019.21 50.1683 1023.49C50.0434 1023.53 49.9081 1023.53 49.7728 1023.49C36.3144 1019.21 27.2902 1006.86 27.3214 992.735V977.111C27.3214 976.851 27.4775 976.612 27.7273 976.508L49.7312 967.712C49.8041 967.681 49.8873 967.671 49.9706 967.671C50.0539 967.671 50.1371 967.681 50.21 967.712L72.2138 976.518C72.4636 976.612 72.6198 976.851 72.6198 977.122V992.745V992.735Z" fill="#9DADF2"/>
<path d="M50.3967 922.841C23.074 922.841 0.851562 900.608 0.851562 873.296C0.851562 845.983 23.0844 823.75 50.3967 823.75C77.709 823.75 99.9418 845.983 99.9418 873.296C99.9418 900.608 77.709 922.841 50.3967 922.841ZM50.3967 827.05C24.8956 827.05 4.15108 847.794 4.15108 873.296C4.15108 898.797 24.8956 919.541 50.3967 919.541C75.8979 919.541 96.6423 898.797 96.6423 873.296C96.6423 847.794 75.8979 827.05 50.3967 827.05Z" fill="#478BF9"/>
<path d="M82.7174 837.949L67.3792 853.287L70.3968 856.305L85.7351 840.966L82.7174 837.949Z" fill="#478BF9"/>
<path d="M29.9242 890.741L14.5859 906.079L17.6035 909.096L32.9418 893.758L29.9242 890.741Z" fill="#478BF9"/>
<path d="M70.8616 890.756L67.844 893.773L83.1822 909.111L86.1999 906.094L70.8616 890.756Z" fill="#478BF9"/>
<path d="M17.5999 837.487L14.5823 840.505L29.9132 855.836L32.9308 852.818L17.5999 837.487Z" fill="#478BF9"/>
<path d="M62.4808 874.628C63.48 873.629 63.48 872.015 62.4808 871.026L60.3574 868.913C59.3582 867.914 57.7449 867.914 56.7561 868.913L55.6111 870.058L54.2892 868.736C53.29 867.737 51.6766 867.737 50.6878 868.736L49.5429 869.892L48.221 868.559C47.2217 867.56 45.6084 867.56 44.6195 868.559L37.5937 875.585C37.5417 875.637 37.5417 875.721 37.5937 875.783C38.5305 876.72 40.0606 876.72 41.0078 875.783L45.5355 871.255C46.0247 870.766 46.8158 870.766 47.305 871.255L47.6381 871.588C47.7005 871.651 47.7005 871.745 47.6381 871.807L43.8597 875.585C43.8077 875.637 43.8077 875.721 43.8597 875.783C44.7965 876.72 46.3266 876.72 47.2738 875.783L51.6142 871.443C52.1034 870.953 52.8945 870.953 53.3837 871.443L53.7167 871.776C53.7688 871.828 53.7688 871.911 53.7167 871.974L50.0737 875.617C50.0217 875.669 50.0217 875.752 50.0737 875.814C51.0105 876.751 52.5405 876.751 53.4877 875.814L57.6824 871.62C58.1716 871.13 58.9626 871.13 59.4519 871.62L60.1701 872.338C60.4511 872.619 60.4511 873.087 60.1701 873.368L60.0556 873.483C59.7745 873.764 59.3062 873.764 59.0251 873.483L58.0987 872.556C58.0467 872.504 57.9634 872.504 57.901 872.556L56.2981 874.159C56.246 874.211 56.246 874.295 56.2981 874.357L57.7449 875.804C58.7441 876.803 60.3574 876.803 61.3462 875.804L62.4912 874.659L62.4808 874.628Z" fill="#478BF9"/>
<path d="M50.3978 835.304C29.414 835.304 12.4062 852.312 12.4062 873.295C12.4062 894.279 29.414 911.287 50.3978 911.287C71.3816 911.287 88.3893 894.279 88.3893 873.295C88.3893 852.312 71.3816 835.304 50.3978 835.304ZM51.9486 847.035C58.0481 847.388 63.5855 849.824 67.8738 853.634L62.3885 859.119C59.5261 856.694 55.9143 855.122 51.9486 854.789V847.035ZM48.8572 847.035V854.789C44.8916 855.112 41.2798 856.694 38.4174 859.119L32.932 853.634C37.2204 849.824 42.7578 847.388 48.8572 847.035ZM30.7463 855.819L36.2316 861.305C33.8064 864.167 32.2347 867.779 31.9016 871.745H24.1472C24.5011 865.645 26.9367 860.108 30.7463 855.819ZM24.1472 874.836H31.9016C32.2243 878.802 33.8064 882.413 36.2316 885.276L30.7463 890.761C26.9367 886.473 24.5011 880.935 24.1472 874.836ZM48.8572 899.546C42.7578 899.192 37.2204 896.757 32.932 892.947L38.4174 887.462C41.2798 889.887 44.8916 891.459 48.8572 891.792V899.546ZM34.4309 873.285C34.4309 864.469 41.5817 857.318 50.3978 857.318C59.2139 857.318 66.3646 864.469 66.3646 873.285C66.3646 882.101 59.2139 889.252 50.3978 889.252C41.5817 889.252 34.4309 882.101 34.4309 873.285ZM51.9486 899.546V891.792C55.9143 891.469 59.5261 889.887 62.3885 887.462L67.8738 892.947C63.5855 896.757 58.0481 899.192 51.9486 899.546ZM70.0596 890.761L64.5743 885.276C66.9995 882.413 68.5712 878.802 68.9043 874.836H76.6587C76.3048 880.935 73.8692 886.473 70.0596 890.761ZM68.9043 871.745C68.5816 867.779 66.9995 864.167 64.5743 861.305L70.0596 855.819C73.8692 860.108 76.3048 865.645 76.6587 871.745H68.9043Z" fill="#478BF9"/>
<path d="M15.4923 778.48C-3.99743 758.99 -3.99743 727.281 15.4923 707.792C34.982 688.302 66.6907 688.302 86.1804 707.792C105.67 727.281 105.67 758.99 86.1804 778.48C66.6907 797.97 34.982 797.97 15.4923 778.48ZM83.8248 710.147C65.6338 691.956 36.039 691.956 17.8527 710.147C-0.338378 728.338 -0.338378 757.933 17.8527 776.119C36.0437 794.31 65.6385 794.31 83.8248 776.119C102.016 757.928 102.016 728.334 83.8248 710.147Z" fill="white"/>
<path d="M84.364 732.533C84.1887 732.358 84.0465 732.135 83.9659 731.888C82.2359 726.769 79.411 722.234 75.5718 718.394C71.7374 714.56 67.1968 711.735 62.0779 710C61.4001 709.768 60.9451 709.138 60.9451 708.422V696.274C60.9451 695.762 61.182 695.279 61.5849 694.961C61.9925 694.644 62.5186 694.535 63.0116 694.658C71.7611 696.848 79.7712 701.388 86.1698 707.792C92.5685 714.195 97.1091 722.2 99.2989 730.95C99.4221 731.448 99.3084 731.974 98.9955 732.381C98.678 732.789 98.1945 733.021 97.6826 733.021H85.5347C85.0797 733.021 84.6626 732.836 84.3545 732.528L84.364 732.533ZM77.9275 716.039C81.8425 719.954 84.7953 724.542 86.7197 729.689H95.5071C93.2984 722.333 89.2839 715.612 83.819 710.147C78.3541 704.682 71.6332 700.668 64.2818 698.464V707.251C69.4292 709.171 74.0172 712.124 77.9322 716.043L77.9275 716.039Z" fill="white"/>
<path d="M15.4909 778.48C9.09225 772.081 4.54685 764.071 2.3571 755.321C2.23386 754.824 2.34762 754.298 2.66045 753.895C2.97801 753.487 3.46144 753.255 3.97333 753.255H16.1212C16.8369 753.255 17.4721 753.71 17.6996 754.388C19.4296 759.507 22.2544 764.043 26.0936 767.882C29.928 771.716 34.4687 774.541 39.5876 776.276C40.2654 776.503 40.7204 777.138 40.7204 777.854V790.002C40.7204 790.514 40.4834 790.997 40.0805 791.315C39.6729 791.632 39.1468 791.741 38.6491 791.618C29.8996 789.428 21.8942 784.888 15.4909 778.489V778.48ZM6.15836 756.582C8.36707 763.938 12.3816 770.659 17.8465 776.124C23.3114 781.589 30.0323 785.603 37.3884 787.812V779.025C32.241 777.105 27.653 774.152 23.738 770.237C19.823 766.322 16.8701 761.734 14.9458 756.587H6.15836V756.582Z" fill="white"/>
<path d="M61.4411 791.173C61.1283 790.86 60.9529 790.438 60.9529 789.993V777.845C60.9529 777.129 61.4079 776.494 62.0857 776.266C67.2046 774.536 71.7405 771.712 75.5796 767.872C79.4188 764.033 82.2389 759.497 83.9737 754.378C84.2012 753.701 84.8363 753.246 85.552 753.246H97.6999C98.2118 753.246 98.6953 753.483 99.0128 753.885C99.3304 754.288 99.4394 754.819 99.3162 755.312C97.1217 764.062 92.581 772.067 86.1824 778.47C79.7838 784.874 71.7737 789.414 63.0241 791.604C62.5265 791.727 62.0004 791.614 61.5975 791.301C61.5453 791.253 61.4932 791.211 61.4458 791.163L61.4411 791.173ZM64.2849 779.02V787.808C71.641 785.599 78.3619 781.584 83.8268 776.119C89.2917 770.655 93.3015 763.934 95.5149 756.578H86.7275C84.8079 761.725 81.855 766.308 77.9353 770.228C74.0203 774.143 69.4323 777.101 64.2849 779.02Z" fill="white"/>
<path d="M2.79389 732.533C2.74649 732.486 2.69911 732.433 2.66119 732.381C2.34363 731.978 2.23461 731.448 2.35784 730.95C4.54759 722.2 9.08825 714.19 15.4916 707.792C21.895 701.393 29.9003 696.848 38.6498 694.658C39.1475 694.535 39.6736 694.648 40.0765 694.961C40.4794 695.279 40.7164 695.762 40.7164 696.274V708.422C40.7164 709.138 40.2614 709.773 39.5836 710C34.4647 711.73 29.9288 714.555 26.0896 718.394C22.2552 722.229 19.4303 726.769 17.6956 731.888C17.4681 732.566 16.833 733.021 16.1173 733.021H3.96936C3.52382 733.021 3.09723 732.846 2.78914 732.538L2.79389 732.533ZM37.3844 698.464C30.0283 700.673 23.3074 704.687 17.8425 710.152C12.3776 715.617 8.36781 722.338 6.15436 729.694H14.9418C16.8614 724.547 19.8142 719.963 23.734 716.043C27.649 712.128 32.237 709.176 37.3844 707.251V698.464Z" fill="white"/>
<path d="M77.9316 716.039C62.9921 701.099 38.6773 701.094 23.7377 716.039C8.79339 730.983 8.79813 755.293 23.7377 770.233C38.6773 785.172 62.9873 785.177 77.9316 770.233C92.876 755.288 92.8712 730.978 77.9316 716.039Z" fill="white"/>
<path d="M64.6544 756.813L37.1268 756.996C35.9672 757.004 35.0333 757.95 35.041 759.109L35.0475 760.091C35.0552 761.25 36.0015 762.184 37.1611 762.176L64.6888 761.994C65.8484 761.986 66.7822 761.04 66.7745 759.88L66.768 758.899C66.7603 757.739 65.814 756.806 64.6544 756.813Z" fill="#110A1D"/>
<path d="M40.8773 740.197C40.5787 740.197 40.2754 740.131 40.0005 739.998L37.8534 738.96C36.9197 738.505 36.4931 737.401 36.8817 736.439L37.8676 733.984C38.171 733.235 38.8867 732.746 39.6924 732.742C40.0384 732.742 40.3797 732.827 40.683 733.002L43.2425 734.462C43.7212 734.732 44.0672 735.202 44.1904 735.742C44.3136 736.282 44.2046 736.851 43.8918 737.306L42.4889 739.339C42.1239 739.87 41.5172 740.193 40.8726 740.193L40.8773 740.197Z" fill="#110A1D"/>
<path d="M60.6922 740.065C60.0476 740.065 59.4362 739.756 59.0665 739.23L57.6777 737.273C57.3554 736.823 57.2417 736.254 57.3555 735.713C57.4692 735.173 57.8105 734.699 58.2892 734.42L60.9292 732.87C61.2278 732.694 61.5691 732.6 61.9151 732.595C62.7208 732.59 63.446 733.069 63.7588 733.813L64.7542 736.197C65.1523 737.154 64.7399 738.268 63.8157 738.733L61.5691 739.856C61.2989 739.989 60.9955 740.065 60.6969 740.065H60.6922Z" fill="#110A1D"/>
<path d="M38.7148 755.156C37.5061 755.165 36.4208 754.407 36.0084 753.269L31.4156 740.628C31.1218 740.771 30.8089 740.88 30.4914 740.96C30.1169 741.055 29.7377 741.102 29.3538 741.102C29.1311 741.102 28.913 741.093 28.6997 741.064C26.3062 740.761 24.4909 738.709 24.4767 736.292C24.4577 733.618 26.619 731.429 29.2922 731.41C31.9654 731.391 34.1552 733.552 34.1694 736.225C34.1694 736.841 34.0651 737.434 33.8471 737.988C33.7286 738.292 33.5817 738.581 33.411 738.856L42.1463 743.084L48.8294 733.4C48.5497 733.282 48.2795 733.135 48.0236 732.96C47.5401 732.633 47.1183 732.225 46.777 731.746C46.1988 730.931 45.886 729.969 45.8812 728.973C45.8623 726.3 48.0236 724.111 50.6968 724.092C50.8153 724.092 50.9385 724.092 51.057 724.101C53.4506 724.262 55.3844 726.182 55.5597 728.575C55.6403 729.708 55.3417 730.794 54.6971 731.718C54.3559 732.201 53.9387 732.614 53.46 732.941C53.2088 733.116 52.9387 733.263 52.659 733.381L59.4605 742.965L68.0536 738.666C67.8925 738.358 67.7645 738.036 67.6697 737.699C67.556 737.292 67.4944 736.865 67.4944 736.434C67.4944 736.239 67.5038 736.045 67.5228 735.856C67.7977 733.419 69.8547 731.571 72.3051 731.557C74.9783 731.538 77.1681 733.699 77.1823 736.372C77.2013 738.922 75.2201 741.064 72.6749 741.24L72.3715 741.249C71.8786 741.249 71.3952 741.183 70.9259 741.041C70.6226 740.946 70.3287 740.827 70.0538 740.676L65.7406 753.07C65.3473 754.212 64.2666 754.98 63.0579 754.99L38.7148 755.151V755.156Z" fill="#110A1D"/>
<path d="M49.9826 672C37.2841 672 24.5959 667.171 14.9263 657.501C-4.40252 638.172 -4.40252 606.728 14.9263 587.399C24.2941 578.031 36.7428 572.879 49.9826 572.879C63.2224 572.879 75.6711 578.031 85.0389 587.399C104.368 606.728 104.368 638.172 85.0389 657.501C75.3797 667.16 62.6811 672 49.9826 672ZM17.5285 654.899C35.4209 672.791 64.5338 672.791 82.4263 654.899C100.319 637.006 100.319 607.893 82.4263 590.001C73.7559 581.33 62.2335 576.563 49.9722 576.563C37.7108 576.563 26.1884 581.341 17.5181 590.001C-0.374391 607.893 -0.374391 637.006 17.5181 654.899H17.5285Z" fill="#9DADF2"/>
<path d="M49.3269 640.993C49.5039 641.42 49.9202 641.669 50.3574 641.669C50.5031 641.669 50.6489 641.638 50.7946 641.586C54.2919 640.118 57.4769 637.849 59.9958 635.018C60.4017 634.56 60.3601 633.853 59.9021 633.447C59.4441 633.041 58.7364 633.082 58.3304 633.54C56.0301 636.132 53.1261 638.203 49.9306 639.536C49.3686 639.775 49.0979 640.431 49.3373 640.993H49.3269Z" fill="#9DADF2"/>
<path d="M68.8729 605.312L50.3872 597.922C50.1166 597.818 49.8251 597.818 49.5545 597.922L31.0688 605.312C30.642 605.479 30.3713 605.885 30.3713 606.343V619.582C30.3922 631.802 38.1154 642.846 49.5857 647.051C49.7106 647.092 49.8355 647.113 49.9708 647.113C50.1061 647.113 50.231 647.092 50.3559 647.051C61.8263 642.835 69.5495 631.802 69.5703 619.582V606.343C69.5703 605.885 69.2997 605.479 68.8729 605.312ZM67.3428 619.582C67.322 630.699 60.3482 640.826 49.9812 644.813C39.6142 640.826 32.63 630.699 32.6092 619.582V607.102L49.9812 600.16L67.3428 607.102V619.582Z" fill="#9DADF2"/>
<path d="M42.2585 607.05C41.9878 606.936 41.686 606.936 41.4049 607.05L37.0021 608.809C36.5754 608.976 36.3047 609.382 36.3047 609.84V614.534C36.3047 615.148 36.8043 615.648 37.4184 615.648C38.0325 615.648 38.5322 615.148 38.5322 614.534V610.6L42.2272 609.122C42.5082 609.007 42.7164 608.799 42.8413 608.518C42.9558 608.247 42.9558 607.945 42.8413 607.664C42.7268 607.383 42.5187 607.175 42.248 607.05H42.2585Z" fill="#9DADF2"/>
<path d="M78.1259 594.3C70.6109 586.774 60.6082 582.642 49.9706 582.642C39.333 582.642 29.3407 586.785 21.8152 594.3C6.29596 609.819 6.29596 635.081 21.8152 650.611C29.5801 658.375 39.7701 662.247 49.9706 662.247C60.171 662.247 70.3611 658.365 78.1259 650.611C93.6452 635.091 93.6452 609.829 78.1259 594.3ZM72.6198 619.582C72.651 633.707 63.6267 646.062 50.1683 650.34C50.0434 650.382 49.9081 650.382 49.7728 650.34C36.3144 646.062 27.2902 633.707 27.3214 619.582V603.959C27.3214 603.699 27.4775 603.459 27.7273 603.355L49.7312 594.56C49.8041 594.529 49.8873 594.518 49.9706 594.518C50.0539 594.518 50.1371 594.529 50.21 594.56L72.2138 603.366C72.4636 603.459 72.6198 603.699 72.6198 603.969V619.593V619.582Z" fill="#9DADF2"/>
<path d="M50.1272 545.389C22.8045 545.389 0.582031 523.156 0.582031 495.844C0.582031 468.532 22.8149 446.299 50.1272 446.299C77.4394 446.299 99.6723 468.532 99.6723 495.844C99.6723 523.156 77.4394 545.389 50.1272 545.389ZM50.1272 449.599C24.626 449.599 3.88161 470.343 3.88161 495.844C3.88161 521.345 24.626 542.09 50.1272 542.09C75.6283 542.09 96.3727 521.345 96.3727 495.844C96.3727 470.343 75.6283 449.599 50.1272 449.599Z" fill="white"/>
<path d="M66.1977 464.899C65.9479 464.899 65.698 464.847 65.4691 464.733C60.6707 462.36 55.508 461.152 50.1267 461.152C44.7455 461.152 39.5828 462.36 34.7844 464.733C34.1495 465.045 33.3897 464.92 32.89 464.421L24.3758 455.906C24.0115 455.542 23.8449 455.042 23.9074 454.532C23.9698 454.022 24.2613 453.575 24.6985 453.315C32.3696 448.714 41.1649 446.289 50.1372 446.289C59.1094 446.289 67.9047 448.724 75.5759 453.315C76.013 453.575 76.3044 454.022 76.3669 454.532C76.4293 455.042 76.2524 455.542 75.8985 455.906L67.3842 464.421C67.0615 464.733 66.6453 464.899 66.2081 464.899H66.1977ZM50.1267 457.853C55.6121 457.853 60.8997 458.998 65.8542 461.256L72.0161 455.095C65.3129 451.483 57.7875 449.588 50.1267 449.588C42.466 449.588 34.9405 451.483 28.2373 455.095L34.3993 461.256C39.3538 458.998 44.6414 457.853 50.1267 457.853Z" fill="white"/>
<path d="M50.1249 545.389C41.1527 545.389 32.3574 542.954 24.6862 538.363C24.2491 538.103 23.9576 537.656 23.8952 537.146C23.8327 536.636 24.0097 536.136 24.3636 535.772L32.8778 527.257C33.3774 526.758 34.1477 526.633 34.7722 526.945C39.5706 529.318 44.7333 530.526 50.1145 530.526C55.4958 530.526 60.6585 529.318 65.4569 526.945C66.0918 526.633 66.8516 526.758 67.3512 527.257L75.8655 535.772C76.2298 536.136 76.3963 536.636 76.3339 537.146C76.2714 537.656 75.98 538.103 75.5428 538.363C67.8717 542.964 59.0764 545.389 50.1041 545.389H50.1249ZM28.2356 536.584C34.9387 540.195 42.4642 542.09 50.1249 542.09C57.7857 542.09 65.3111 540.195 72.0143 536.584L65.8524 530.422C60.8979 532.68 55.6103 533.825 50.1249 533.825C44.6396 533.825 39.352 532.68 34.3975 530.422L28.2356 536.584Z" fill="white"/>
<path d="M91.2328 522.074C90.7957 522.074 90.3793 521.907 90.0671 521.595L81.5528 513.081C81.0532 512.581 80.9283 511.811 81.2406 511.187C83.6137 506.388 84.8211 501.226 84.8211 495.844C84.8211 490.463 83.6137 485.3 81.2406 480.502C80.9283 479.867 81.0532 479.097 81.5528 478.608L90.0671 470.093C90.4314 469.729 90.931 469.562 91.441 469.625C91.951 469.687 92.3986 469.979 92.6588 470.416C97.2594 478.087 99.6846 486.882 99.6846 495.855C99.6846 504.827 97.2594 513.622 92.6588 521.293C92.3986 521.731 91.951 522.022 91.441 522.084C91.3681 522.084 91.3057 522.084 91.2328 522.084V522.074ZM84.7066 511.561L90.8685 517.723C94.4803 511.02 96.3747 503.495 96.3747 495.834C96.3747 488.173 94.4803 480.648 90.8685 473.945L84.7066 480.106C86.9653 485.061 88.1102 490.349 88.1102 495.834C88.1102 501.319 86.9653 506.607 84.7066 511.561Z" fill="white"/>
<path d="M9.02348 522.074C8.95062 522.074 8.88817 522.074 8.82572 522.064C8.31569 522.001 7.86808 521.71 7.60786 521.273C3.00724 513.601 0.582031 504.806 0.582031 495.834C0.582031 486.862 3.00724 478.066 7.60786 470.395C7.86808 469.958 8.31569 469.667 8.82572 469.604C9.33574 469.542 9.83536 469.719 10.1997 470.072L18.7139 478.587C19.2135 479.086 19.3384 479.857 19.0262 480.481C16.653 485.28 15.4456 490.442 15.4456 495.824C15.4456 501.205 16.653 506.367 19.0262 511.166C19.3384 511.801 19.2135 512.571 18.7139 513.06L10.1997 521.574C9.88741 521.887 9.471 522.064 9.03384 522.064L9.02348 522.074ZM9.38776 473.945C5.77596 480.648 3.88161 488.173 3.88161 495.834C3.88161 503.495 5.77596 511.02 9.38776 517.723L15.5497 511.561C13.291 506.607 12.1461 501.319 12.1461 495.834C12.1461 490.349 13.291 485.061 15.5497 480.106L9.38776 473.945Z" fill="white"/>
<path d="M50.1282 457.853C29.1861 457.853 12.1367 474.892 12.1367 495.844C12.1367 516.797 29.1757 533.836 50.1282 533.836C71.0808 533.836 88.1198 516.797 88.1198 495.844C88.1198 474.892 71.0808 457.853 50.1282 457.853ZM71.5076 483.364C73.3082 486.445 74.4011 489.807 74.755 493.377C74.7654 493.523 74.703 493.659 74.5781 493.731C71.8615 495.397 69.4258 497.437 67.3233 499.82C67.2296 499.935 67.0735 499.977 66.9381 499.925L62.2439 498.394C62.1086 498.353 62.0149 498.238 61.994 498.093C61.4632 494.21 60.2559 490.494 58.4031 487.039C58.3407 486.914 58.351 486.768 58.4343 486.654L61.3383 482.657C61.4112 482.563 61.5257 482.5 61.6402 482.5C61.6714 482.5 61.6922 482.5 61.7235 482.5C64.8252 483.187 68.0102 483.416 71.1745 483.156C71.3202 483.146 71.4555 483.219 71.5284 483.344L71.5076 483.364ZM59.4336 498.748C59.444 498.852 59.4127 498.956 59.3503 499.029C56.8834 501.871 53.74 504.15 50.274 505.608C50.1803 505.649 50.0866 505.649 49.9929 505.608C46.5268 504.14 43.3834 501.86 40.9166 499.029C40.8541 498.956 40.8229 498.852 40.8333 498.748C41.3121 494.98 42.4883 491.379 44.3098 488.048C44.3618 487.955 44.4451 487.892 44.5492 487.871C46.3811 487.486 48.2547 487.288 50.1387 487.288C52.0226 487.288 53.8962 487.486 55.7281 487.871C55.8322 487.892 55.9154 487.955 55.9675 488.048C57.789 491.379 58.9548 494.98 59.444 498.748H59.4336ZM58.8715 472.914C58.8715 472.914 58.9964 472.81 59.1213 472.81C59.1629 472.81 59.2149 472.81 59.267 472.841C63.0974 474.361 66.5218 476.859 69.1864 480.054C69.3218 480.211 69.2697 480.377 69.2385 480.44C69.2177 480.492 69.124 480.658 68.9054 480.658C66.5426 480.689 64.1903 480.419 61.9108 479.877C61.8171 479.857 61.7338 479.794 61.6818 479.711C60.464 477.702 59.4856 475.537 58.7778 473.289C58.7154 473.091 58.8298 472.956 58.8819 472.914H58.8715ZM44.8719 471.665C48.3171 470.926 51.9497 470.926 55.395 471.665C55.5303 471.696 55.6448 471.8 55.676 471.936C56.415 475.027 57.612 477.983 59.2254 480.721C59.2982 480.845 59.2878 481.002 59.2045 481.127L56.3214 485.103C56.2381 485.217 56.0924 485.28 55.957 485.248C52.1475 484.478 48.1193 484.478 44.3098 485.248C44.1745 485.28 44.0288 485.217 43.9455 485.103L41.0623 481.127C40.979 481.012 40.9686 480.845 41.0415 480.721C42.6548 477.983 43.8518 475.027 44.5908 471.936C44.6221 471.8 44.7366 471.696 44.8719 471.665ZM31.0804 480.054C33.7451 476.849 37.1695 474.35 40.9998 472.841C41.0519 472.82 41.1039 472.81 41.1456 472.81C41.2809 472.81 41.3642 472.883 41.3954 472.914C41.4474 472.966 41.5619 473.091 41.4994 473.289C40.7917 475.547 39.8133 477.702 38.5955 479.711C38.5434 479.794 38.4602 479.857 38.3665 479.877C36.087 480.419 33.7346 480.689 31.3719 480.658C31.1533 480.658 31.0596 480.492 31.0388 480.44C31.0075 480.377 30.9555 480.211 31.0908 480.054H31.0804ZM28.7593 483.364C28.8217 483.25 28.9466 483.177 29.0819 483.177C29.0819 483.177 29.1028 483.177 29.1132 483.177C32.2878 483.427 35.4729 483.208 38.5643 482.521C38.71 482.49 38.8557 482.542 38.939 482.667L41.8429 486.664C41.9262 486.778 41.9366 486.935 41.8742 487.049C40.0215 490.505 38.814 494.221 38.2832 498.103C38.2624 498.238 38.1687 498.353 38.0334 498.405L33.3391 499.935C33.2038 499.977 33.0477 499.935 32.954 499.831C30.8514 497.447 28.4158 495.407 25.6991 493.742C25.5846 493.669 25.5118 493.534 25.5222 493.388C25.8761 489.818 26.969 486.445 28.7697 483.375L28.7593 483.364ZM29.8938 509.011C29.8314 509.209 29.6545 509.251 29.5816 509.261C29.5087 509.261 29.3422 509.261 29.2277 509.095C27.0106 505.608 25.6991 501.569 25.4389 497.426C25.4285 497.218 25.5638 497.114 25.6263 497.083C25.6887 497.052 25.8553 496.979 26.0218 497.104C27.9474 498.467 29.6961 500.07 31.2261 501.85C31.2886 501.923 31.3198 502.017 31.3094 502.121C31.1221 504.463 30.6433 506.784 29.8834 509.022L29.8938 509.011ZM40.1776 518.514C36.9301 517.088 34.0677 514.996 31.6737 512.311C31.58 512.207 31.5488 512.051 31.6009 511.926C32.8187 508.99 33.5889 505.899 33.8907 502.735C33.9011 502.589 34.0053 502.464 34.1406 502.423L38.7828 500.913C38.7828 500.913 38.8556 500.893 38.8973 500.893C39.0014 500.893 39.0951 500.934 39.1679 501.017C41.7701 503.932 45.028 506.305 48.5981 507.877C48.7334 507.939 48.8167 508.064 48.8167 508.21V513.091C48.8167 513.237 48.7334 513.372 48.5981 513.425C45.6837 514.684 42.9775 516.381 40.5523 518.452C40.4482 518.546 40.2921 518.566 40.1672 518.504L40.1776 518.514ZM56.5503 519.545C56.5399 519.618 56.4879 519.784 56.2797 519.836C52.262 520.856 48.0153 520.856 43.9975 519.836C43.7998 519.784 43.7373 519.618 43.7269 519.545C43.7165 519.472 43.6957 519.305 43.8726 519.17C45.767 517.765 47.8279 516.589 50.0033 515.683C50.097 515.642 50.1907 515.642 50.2843 515.683C52.4493 516.589 54.5102 517.765 56.415 519.17C56.5816 519.295 56.5712 519.472 56.5608 519.545H56.5503ZM68.614 512.321C66.22 515.007 63.3576 517.088 60.1101 518.514C59.9748 518.577 59.8291 518.546 59.725 518.462C57.2998 516.391 54.6039 514.694 51.6791 513.435C51.5438 513.372 51.4605 513.248 51.4605 513.102V508.22C51.4605 508.074 51.5438 507.939 51.6791 507.887C55.2493 506.315 58.5176 503.942 61.1093 501.028C61.1822 500.945 61.2759 500.903 61.38 500.903C61.4216 500.903 61.4528 500.903 61.4944 500.924L66.1367 502.433C66.272 502.475 66.3761 502.6 66.3865 502.745C66.6884 505.909 67.4586 508.99 68.6764 511.936C68.7285 512.061 68.7077 512.217 68.6036 512.321H68.614ZM71.0496 509.105C70.9351 509.282 70.7582 509.282 70.6957 509.271C70.6228 509.271 70.4563 509.219 70.3834 509.022C69.634 506.784 69.1552 504.463 68.9574 502.121C68.9574 502.027 68.9783 501.923 69.0407 501.85C70.5708 500.07 72.3194 498.478 74.245 497.104C74.3179 497.052 74.3908 497.031 74.4532 497.031C74.5365 497.031 74.5989 497.062 74.6406 497.083C74.703 497.114 74.8487 497.218 74.8279 497.426C74.5677 501.569 73.2562 505.608 71.0391 509.095L71.0496 509.105Z" fill="white"/>
<path d="M49.9826 421.932C37.2841 421.932 24.5959 417.103 14.9263 407.433C-4.40252 388.104 -4.40252 356.66 14.9263 337.331C24.2941 327.963 36.7428 322.811 49.9826 322.811C63.2224 322.811 75.6711 327.963 85.0389 337.331C104.368 356.66 104.368 388.104 85.0389 407.433C75.3797 417.092 62.6811 421.932 49.9826 421.932ZM17.5285 404.831C35.4209 422.724 64.5338 422.724 82.4263 404.831C100.319 386.939 100.319 357.826 82.4263 339.933C73.7559 331.263 62.2335 326.496 49.9722 326.496C37.7108 326.496 26.1884 331.273 17.5181 339.933C-0.374391 357.826 -0.374391 386.939 17.5181 404.831H17.5285Z" fill="#9DADF2"/>
<path d="M49.3269 390.935C49.5039 391.362 49.9202 391.612 50.3574 391.612C50.5031 391.612 50.6489 391.581 50.7946 391.529C54.2919 390.061 57.4769 387.792 59.9958 384.961C60.4017 384.503 60.3601 383.795 59.9021 383.389C59.4441 382.983 58.7364 383.025 58.3304 383.483C56.0301 386.075 53.1261 388.146 49.9306 389.478C49.3686 389.718 49.0979 390.373 49.3373 390.935H49.3269Z" fill="#9DADF2"/>
<path d="M68.8729 355.244L50.3872 347.854C50.1166 347.75 49.8251 347.75 49.5545 347.854L31.0688 355.244C30.642 355.411 30.3713 355.817 30.3713 356.275V369.514C30.3922 381.734 38.1154 392.778 49.5857 396.983C49.7106 397.024 49.8355 397.045 49.9708 397.045C50.1061 397.045 50.231 397.024 50.3559 396.983C61.8263 392.767 69.5495 381.734 69.5703 369.514V356.275C69.5703 355.817 69.2997 355.411 68.8729 355.244ZM67.3428 369.514C67.322 380.631 60.3482 390.758 49.9812 394.745C39.6142 390.758 32.63 380.631 32.6092 369.514V357.034L49.9812 350.092L67.3428 357.034V369.514Z" fill="#9DADF2"/>
<path d="M42.2585 356.982C41.9878 356.868 41.686 356.868 41.4049 356.982L37.0021 358.741C36.5754 358.908 36.3047 359.314 36.3047 359.772V364.466C36.3047 365.08 36.8043 365.58 37.4184 365.58C38.0325 365.58 38.5322 365.08 38.5322 364.466V360.532L42.2272 359.054C42.5082 358.939 42.7164 358.731 42.8413 358.45C42.9558 358.179 42.9558 357.877 42.8413 357.596C42.7268 357.315 42.5187 357.107 42.248 356.982H42.2585Z" fill="#9DADF2"/>
<path d="M78.1259 344.232C70.6109 336.706 60.6082 332.574 49.9706 332.574C39.333 332.574 29.3407 336.717 21.8152 344.232C6.29596 359.751 6.29596 385.013 21.8152 400.543C29.5801 408.307 39.7701 412.179 49.9706 412.179C60.171 412.179 70.3611 408.297 78.1259 400.543C93.6452 385.023 93.6452 359.762 78.1259 344.232ZM72.6198 369.514C72.651 383.639 63.6267 395.994 50.1683 400.272C50.0434 400.314 49.9081 400.314 49.7728 400.272C36.3144 395.994 27.2902 383.639 27.3214 369.514V353.891C27.3214 353.631 27.4775 353.392 27.7273 353.287L49.7312 344.492C49.8041 344.461 49.8873 344.451 49.9706 344.451C50.0539 344.451 50.1371 344.461 50.21 344.492L72.2138 353.298C72.4636 353.392 72.6198 353.631 72.6198 353.902V369.525V369.514Z" fill="#9DADF2"/>
<path d="M50.3967 299.621C23.074 299.621 0.851562 277.388 0.851562 250.076C0.851562 222.763 23.0844 200.531 50.3967 200.531C77.709 200.531 99.9418 222.763 99.9418 250.076C99.9418 277.388 77.709 299.621 50.3967 299.621ZM50.3967 203.83C24.8956 203.83 4.15108 224.574 4.15108 250.076C4.15108 275.577 24.8956 296.321 50.3967 296.321C75.8979 296.321 96.6423 275.577 96.6423 250.076C96.6423 224.574 75.8979 203.83 50.3967 203.83Z" fill="#478BF9"/>
<path d="M82.7174 214.729L67.3792 230.067L70.3968 233.085L85.7351 217.746L82.7174 214.729Z" fill="#478BF9"/>
<path d="M29.9242 267.521L14.5859 282.859L17.6035 285.876L32.9418 270.538L29.9242 267.521Z" fill="#478BF9"/>
<path d="M70.8616 267.536L67.844 270.553L83.1822 285.891L86.1999 282.874L70.8616 267.536Z" fill="#478BF9"/>
<path d="M17.5999 214.267L14.5823 217.285L29.9132 232.616L32.9308 229.598L17.5999 214.267Z" fill="#478BF9"/>
<path d="M62.4808 251.408C63.48 250.409 63.48 248.795 62.4808 247.806L60.3574 245.693C59.3582 244.694 57.7449 244.694 56.7561 245.693L55.6111 246.838L54.2892 245.516C53.29 244.517 51.6766 244.517 50.6878 245.516L49.5429 246.672L48.221 245.34C47.2217 244.34 45.6084 244.34 44.6195 245.34L37.5937 252.365C37.5417 252.417 37.5417 252.501 37.5937 252.563C38.5305 253.5 40.0606 253.5 41.0078 252.563L45.5355 248.035C46.0247 247.546 46.8158 247.546 47.305 248.035L47.6381 248.368C47.7005 248.431 47.7005 248.525 47.6381 248.587L43.8597 252.365C43.8077 252.417 43.8077 252.501 43.8597 252.563C44.7965 253.5 46.3266 253.5 47.2738 252.563L51.6142 248.223C52.1034 247.734 52.8945 247.734 53.3837 248.223L53.7167 248.556C53.7688 248.608 53.7688 248.691 53.7167 248.754L50.0737 252.397C50.0217 252.449 50.0217 252.532 50.0737 252.594C51.0105 253.531 52.5405 253.531 53.4877 252.594L57.6824 248.4C58.1716 247.91 58.9626 247.91 59.4519 248.4L60.1701 249.118C60.4511 249.399 60.4511 249.867 60.1701 250.148L60.0556 250.263C59.7745 250.544 59.3062 250.544 59.0251 250.263L58.0987 249.336C58.0467 249.284 57.9634 249.284 57.901 249.336L56.2981 250.939C56.246 250.991 56.246 251.075 56.2981 251.137L57.7449 252.584C58.7441 253.583 60.3574 253.583 61.3462 252.584L62.4912 251.439L62.4808 251.408Z" fill="#478BF9"/>
<path d="M50.3978 212.084C29.414 212.084 12.4062 229.092 12.4062 250.076C12.4062 271.059 29.414 288.067 50.3978 288.067C71.3816 288.067 88.3893 271.059 88.3893 250.076C88.3893 229.092 71.3816 212.084 50.3978 212.084ZM51.9486 223.815C58.0481 224.168 63.5855 226.604 67.8738 230.414L62.3885 235.899C59.5261 233.474 55.9143 231.902 51.9486 231.569V223.815ZM48.8572 223.815V231.569C44.8916 231.892 41.2798 233.474 38.4174 235.899L32.932 230.414C37.2204 226.604 42.7578 224.168 48.8572 223.815ZM30.7463 232.599L36.2316 238.085C33.8064 240.947 32.2347 244.559 31.9016 248.525H24.1472C24.5011 242.425 26.9367 236.888 30.7463 232.599ZM24.1472 251.616H31.9016C32.2243 255.582 33.8064 259.193 36.2316 262.056L30.7463 267.541C26.9367 263.253 24.5011 257.715 24.1472 251.616ZM48.8572 276.326C42.7578 275.972 37.2204 273.537 32.932 269.727L38.4174 264.242C41.2798 266.667 44.8916 268.239 48.8572 268.572V276.326ZM34.4309 250.065C34.4309 241.249 41.5817 234.098 50.3978 234.098C59.2139 234.098 66.3646 241.249 66.3646 250.065C66.3646 258.881 59.2139 266.032 50.3978 266.032C41.5817 266.032 34.4309 258.881 34.4309 250.065ZM51.9486 276.326V268.572C55.9143 268.249 59.5261 266.667 62.3885 264.242L67.8738 269.727C63.5855 273.537 58.0481 275.972 51.9486 276.326ZM70.0596 267.541L64.5743 262.056C66.9995 259.193 68.5712 255.582 68.9043 251.616H76.6587C76.3048 257.715 73.8692 263.253 70.0596 267.541ZM68.9043 248.525C68.5816 244.559 66.9995 240.947 64.5743 238.085L70.0596 232.599C73.8692 236.888 76.3048 242.425 76.6587 248.525H68.9043Z" fill="#478BF9"/>
<path d="M15.4881 155.26C-4.00158 135.77 -4.00158 104.061 15.4881 84.5716C34.9779 65.0819 66.6866 65.0819 86.1763 84.5716C105.666 104.061 105.666 135.77 86.1763 155.26C66.6866 174.75 34.9779 174.75 15.4881 155.26ZM83.8207 86.9273C65.6296 68.7362 36.0348 68.7362 17.8485 86.9273C-0.342528 105.118 -0.342528 134.713 17.8485 152.899C36.0396 171.09 65.6344 171.09 83.8207 152.899C102.012 134.708 102.012 105.114 83.8207 86.9273Z" fill="white"/>
<path d="M84.3638 109.313C84.1884 109.138 84.0462 108.915 83.9657 108.668C82.2357 103.55 79.4108 99.0136 75.5716 95.1744C71.7372 91.34 67.1965 88.5151 62.0776 86.7804C61.3998 86.5481 60.9448 85.9178 60.9448 85.2021V73.0542C60.9448 72.5423 61.1818 72.0588 61.5847 71.7413C61.9923 71.4237 62.5184 71.3147 63.0113 71.4379C71.7609 73.6277 79.771 78.1683 86.1696 84.5717C92.5682 90.975 97.1089 98.9804 99.2987 107.73C99.4219 108.228 99.3081 108.754 98.9953 109.161C98.6777 109.569 98.1943 109.801 97.6824 109.801H85.5345C85.0795 109.801 84.6624 109.616 84.3543 109.308L84.3638 109.313ZM77.9272 92.8188C81.8422 96.7338 84.7951 101.322 86.7194 106.469H95.5069C93.2982 99.1131 89.2836 92.3922 83.8187 86.9273C78.3538 81.4624 71.6329 77.4479 64.2816 75.2439V84.0314C69.4289 85.9509 74.017 88.9038 77.932 92.8235L77.9272 92.8188Z" fill="white"/>
<path d="M15.4867 155.26C9.0881 148.861 4.5427 140.851 2.35295 132.101C2.22971 131.604 2.34347 131.078 2.6563 130.675C2.97386 130.267 3.45729 130.035 3.96918 130.035H16.1171C16.8328 130.035 17.4679 130.49 17.6954 131.168C19.4254 136.287 22.2503 140.823 26.0894 144.662C29.9239 148.496 34.4646 151.321 39.5835 153.056C40.2612 153.283 40.7162 153.918 40.7162 154.634V166.782C40.7162 167.294 40.4792 167.777 40.0764 168.095C39.6687 168.412 39.1426 168.521 38.645 168.398C29.8954 166.208 21.8901 161.668 15.4867 155.269V155.26ZM6.15421 133.362C8.36292 140.718 12.3774 147.439 17.8423 152.904C23.3072 158.369 30.0282 162.384 37.3842 164.592V155.805C32.2369 153.885 27.6488 150.932 23.7338 147.017C19.8188 143.102 16.866 138.514 14.9416 133.367H6.15421V133.362Z" fill="white"/>
<path d="M61.433 167.953C61.1202 167.64 60.9448 167.218 60.9448 166.773V154.625C60.9448 153.909 61.3998 153.274 62.0776 153.046C67.1965 151.316 71.7324 148.492 75.5716 144.652C79.4108 140.813 82.2309 136.277 83.9656 131.158C84.1931 130.481 84.8283 130.026 85.544 130.026H97.6919C98.2038 130.026 98.6872 130.263 99.0048 130.665C99.3223 131.068 99.4314 131.599 99.3081 132.092C97.1136 140.842 92.573 148.847 86.1743 155.25C79.7757 161.654 71.7656 166.194 63.0161 168.384C62.5184 168.507 61.9923 168.394 61.5894 168.081C61.5373 168.033 61.4852 167.991 61.4378 167.943L61.433 167.953ZM64.2769 155.8V164.588C71.6329 162.379 78.3538 158.364 83.8187 152.9C89.2836 147.435 93.2934 140.714 95.5069 133.358H86.7194C84.7998 138.505 81.847 143.088 77.9272 147.008C74.0122 150.923 69.4242 153.881 64.2769 155.8Z" fill="white"/>
<path d="M2.78974 109.313C2.74234 109.266 2.69496 109.213 2.65704 109.161C2.33948 108.758 2.23046 108.228 2.35369 107.73C4.54344 98.9804 9.0841 90.9703 15.4875 84.5717C21.8908 78.173 29.8962 73.6277 38.6457 71.4379C39.1434 71.3147 39.6695 71.4284 40.0724 71.7412C40.4752 72.0588 40.7123 72.5423 40.7123 73.0542V85.2021C40.7123 85.9178 40.2572 86.5529 39.5795 86.7804C34.4606 88.5104 29.9246 91.3352 26.0854 95.1744C22.251 99.0088 19.4262 103.549 17.6914 108.668C17.4639 109.346 16.8288 109.801 16.1131 109.801H3.96521C3.51967 109.801 3.09307 109.626 2.78499 109.318L2.78974 109.313ZM37.3802 75.2439C30.0242 77.4526 23.3032 81.4672 17.8383 86.9321C12.3734 92.3969 8.36366 99.1179 6.15021 106.474H14.9376C16.8572 101.327 19.8101 96.7433 23.7298 92.8235C27.6448 88.9085 32.2329 85.9557 37.3802 84.0313V75.2439Z" fill="white"/>
<path d="M77.9314 92.8188C62.9918 77.8792 38.6771 77.8744 23.7375 92.8188C8.79315 107.763 8.79789 132.073 23.7375 147.013C38.6771 161.952 62.9871 161.957 77.9314 147.013C92.8757 132.068 92.871 107.758 77.9314 92.8188Z" fill="white"/>
<path d="M64.6503 133.593L37.1226 133.776C35.963 133.784 35.0292 134.73 35.0369 135.889L35.0434 136.871C35.0511 138.03 35.9974 138.964 37.157 138.956L64.6846 138.774C65.8442 138.766 66.7781 137.82 66.7704 136.66L66.7639 135.679C66.7562 134.519 65.8099 133.586 64.6503 133.593Z" fill="#110A1D"/>
<path d="M40.8732 116.977C40.5746 116.977 40.2713 116.911 39.9964 116.778L37.8492 115.74C36.9155 115.285 36.4889 114.181 36.8776 113.219L37.8635 110.764C38.1668 110.015 38.8825 109.526 39.6883 109.522C40.0343 109.522 40.3755 109.607 40.6788 109.782L43.2383 111.242C43.717 111.512 44.063 111.982 44.1862 112.522C44.3095 113.062 44.2005 113.631 43.8876 114.086L42.4847 116.119C42.1197 116.65 41.513 116.973 40.8684 116.973L40.8732 116.977Z" fill="#110A1D"/>
<path d="M60.6919 116.845C60.0473 116.845 59.4359 116.537 59.0663 116.01L57.6775 114.053C57.3552 113.603 57.2415 113.034 57.3552 112.494C57.469 111.953 57.8102 111.479 58.2889 111.2L60.9289 109.65C61.2275 109.474 61.5688 109.38 61.9148 109.375C62.7206 109.37 63.4458 109.849 63.7586 110.593L64.7539 112.977C65.152 113.934 64.7397 115.048 63.8155 115.513L61.5688 116.636C61.2987 116.769 60.9953 116.845 60.6967 116.845H60.6919Z" fill="#110A1D"/>
<path d="M38.7106 131.936C37.502 131.945 36.4166 131.187 36.0043 130.049L31.4115 117.408C31.1176 117.551 30.8048 117.66 30.4872 117.74C30.1128 117.835 29.7336 117.882 29.3497 117.882C29.1269 117.882 28.9089 117.873 28.6956 117.845C26.302 117.541 24.4868 115.489 24.4725 113.072C24.4536 110.398 26.6148 108.209 29.288 108.19C31.9612 108.171 34.151 110.332 34.1652 113.005C34.1652 113.621 34.0609 114.214 33.8429 114.768C33.7244 115.072 33.5775 115.361 33.4069 115.636L42.1422 119.864L48.8252 110.18C48.5456 110.062 48.2754 109.915 48.0194 109.74C47.536 109.413 47.1141 109.005 46.7729 108.526C46.1946 107.711 45.8818 106.749 45.8771 105.753C45.8581 103.08 48.0194 100.891 50.6926 100.872C50.8111 100.872 50.9344 100.872 51.0529 100.881C53.4464 101.042 55.3802 102.962 55.5556 105.355C55.6362 106.488 55.3376 107.574 54.693 108.498C54.3517 108.981 53.9346 109.394 53.4559 109.721C53.2047 109.896 52.9345 110.043 52.6549 110.161L59.4564 119.745L68.0495 115.446C67.8883 115.138 67.7604 114.816 67.6656 114.479C67.5518 114.072 67.4902 113.645 67.4902 113.214C67.4902 113.019 67.4997 112.825 67.5186 112.636C67.7935 110.199 69.8506 108.351 72.301 108.337C74.9742 108.318 77.164 110.479 77.1782 113.152C77.1971 115.702 75.2159 117.845 72.6707 118.02L72.3674 118.029C71.8744 118.029 71.391 117.963 70.9218 117.821C70.6184 117.726 70.3245 117.608 70.0496 117.456L65.7365 129.85C65.3431 130.992 64.2624 131.76 63.0538 131.77L38.7106 131.931V131.936Z" fill="#110A1D"/>
<path d="M100.411 -0.959878V118.635C100.411 119.624 99.6098 120.415 98.6314 120.415C97.653 120.415 96.8516 119.614 96.8516 118.635V-0.959878C96.8516 -1.9487 97.653 -2.73975 98.6314 -2.73975C99.6098 -2.73975 100.411 -1.93829 100.411 -0.959878Z" fill="white"/>
<path d="M4.86833 -1.22013V118.375C4.86833 119.364 4.0669 120.155 3.08849 120.155C2.11008 120.155 1.30859 119.354 1.30859 118.375V-1.22013C1.30859 -2.20895 2.11008 -3 3.08849 -3C4.0669 -3 4.86833 -2.19854 4.86833 -1.22013Z" fill="white"/>
</g>
</svg>
